<svg id="Ebene_1" data-name="Ebene 1" xmlns="http://www.w3.org/2000/svg" viewBox="0 0 289.92 120.08">
  <defs>
    <style>
      .cls-1 {
        fill: #fff;
      }
    </style>
  </defs>
  <title>407logo</title>
  <path class="cls-1" d="M191.19,76.11q0,27.58-10.58,43.2t-29.12,15.61q-18.75,0-29.18-15.77T111.88,74.84q0-28.29,10.54-44.11t29.3-15.81q19,0,29.22,15.85T191.19,76.11Zm-40,42.61q11,0,16.54-11t5.53-33q0-21.35-5.46-32.53T151.87,31Q141,31,135.38,42.11T129.8,75q0,21.1,5.54,32.41T151.19,118.72Z" transform="translate(-7.21 -14.92)"></path>
  <path class="cls-1" d="M205.07,0L289.92 0.26 218.08 120 199.08 119.74 263.71 14.55 205.07 14.22 205.07 0z"></path>
  <path class="cls-1" d="M93.71,103.12H81.3V15L7.21,118.51l56.33-.16L63.88,135H81.46L81,118.67H93.71Zm-30.14,0H36.72L63.57,64.19Z" transform="translate(-7.21 -14.92)"></path>
</svg>