<?xml version="1.0" encoding="utf-8"?>
<!-- Generator: Adobe Illustrator 23.0.3, SVG Export Plug-In . SVG Version: 6.00 Build 0)  -->
<svg version="1.1" id="Layer_1" xmlns="http://www.w3.org/2000/svg" xmlns:xlink="http://www.w3.org/1999/xlink" x="0px" y="0px"
	 viewBox="0 0 1230.48 71.05" style="enable-background:new 0 0 1230.48 71.05;" xml:space="preserve">
<style type="text/css">
	.st0{fill:#FFFFFF;}
</style>
<g>
	<path class="st0" d="M34.38,67.94c-0.47-0.47-0.71-1.02-0.71-1.64V55.96H4.54c-0.63,0-1.17-0.23-1.65-0.7
		c-0.47-0.47-0.71-1.02-0.71-1.65v-9.49c0-0.94,0.34-1.88,1.03-2.82L30.48,4.45c0.88-1.06,2.04-1.6,3.48-1.6h14.29
		c0.69,0,1.27,0.22,1.74,0.66c0.47,0.44,0.71,1,0.71,1.69v36.19h8.27c0.75,0,1.35,0.23,1.79,0.71c0.44,0.47,0.66,1.02,0.66,1.64
		v9.87c0,0.63-0.22,1.17-0.66,1.65c-0.44,0.47-1,0.7-1.69,0.7h-8.37V66.3c0,0.69-0.24,1.25-0.71,1.69
		c-0.47,0.44-1.05,0.66-1.74,0.66H36.03C35.4,68.65,34.85,68.41,34.38,67.94z M18.92,42.05h15.13V20.9L18.92,42.05z"/>
	<path class="st0" d="M80.72,67.94c-0.47-0.47-0.71-1.02-0.71-1.64V5.29c0-0.69,0.22-1.27,0.66-1.74c0.44-0.47,1-0.71,1.69-0.71
		h44.37c0.69,0,1.27,0.23,1.74,0.71c0.47,0.47,0.71,1.05,0.71,1.74v9.31c0,0.69-0.24,1.25-0.71,1.69c-0.47,0.44-1.05,0.66-1.74,0.66
		h-29.7v11.94h27.64c0.69,0,1.27,0.23,1.74,0.71c0.47,0.47,0.71,1.05,0.71,1.74v8.55c0,0.69-0.23,1.27-0.71,1.74
		c-0.47,0.47-1.05,0.71-1.74,0.71H97.03v12.22h30.46c0.69,0,1.27,0.23,1.74,0.71c0.47,0.47,0.71,1.05,0.71,1.74v9.31
		c0,0.69-0.24,1.25-0.71,1.69c-0.47,0.44-1.05,0.66-1.74,0.66H82.37C81.74,68.65,81.19,68.41,80.72,67.94z"/>
	<path class="st0" d="M155.03,68.04c-0.38-0.41-0.56-0.89-0.56-1.46c0-0.31,0.06-0.59,0.19-0.85l21.62-48.13h-27.92
		c-0.69,0-1.27-0.24-1.74-0.71c-0.47-0.47-0.71-1.05-0.71-1.74V5.29c0-0.69,0.24-1.27,0.71-1.74c0.47-0.47,1.05-0.71,1.74-0.71
		h44.46c0.69,0,1.27,0.23,1.74,0.71c0.47,0.47,0.71,1.05,0.71,1.74v8.74c0,1.13-0.16,2.1-0.47,2.91c-0.31,0.82-0.5,1.29-0.56,1.41
		l-21.62,48.03c-0.69,1.5-1.82,2.26-3.38,2.26h-12.78C155.87,68.65,155.4,68.45,155.03,68.04z"/>
	<path class="st0" d="M249.92,67.76c-0.66-0.6-1.05-1.33-1.17-2.21L238.69,5.39c-0.06-0.12-0.09-0.31-0.09-0.56
		c0-0.5,0.2-0.95,0.61-1.36c0.41-0.41,0.86-0.61,1.36-0.61h12.31c1.82,0,2.82,0.72,3.01,2.16l5.73,35.53l6.49-20.59
		c0.5-1.69,1.53-2.54,3.1-2.54h7.05c1.57,0,2.6,0.85,3.1,2.54l6.48,20.49l5.83-35.44c0.12-0.75,0.41-1.3,0.85-1.65
		c0.44-0.34,1.13-0.52,2.07-0.52h12.31c0.56,0,1.03,0.2,1.41,0.61c0.38,0.41,0.56,0.86,0.56,1.36v0.56l-10.06,60.16
		c-0.13,0.88-0.53,1.61-1.22,2.21s-1.54,0.89-2.54,0.89h-9.49c-1,0-1.79-0.25-2.35-0.75c-0.56-0.5-0.94-1.06-1.13-1.69l-9.3-26.04
		l-9.31,26.04c-0.25,0.63-0.66,1.19-1.22,1.69c-0.56,0.5-1.35,0.75-2.35,0.75h-9.4C251.44,68.65,250.58,68.35,249.92,67.76z"/>
	<path class="st0" d="M335.13,63.1c-5.14-4.32-7.87-10.68-8.18-19.08c-0.06-1.75-0.09-4.45-0.09-8.08c0-3.63,0.03-6.36,0.09-8.18
		c0.25-8.27,2.99-14.65,8.22-19.13s12.24-6.72,21.01-6.72c8.71,0,15.68,2.24,20.92,6.72c5.23,4.48,7.97,10.86,8.22,19.13
		c0.12,3.63,0.19,6.36,0.19,8.18c0,1.88-0.06,4.58-0.19,8.08c-0.31,8.4-3.02,14.76-8.13,19.08c-5.11,4.32-12.11,6.49-21.01,6.49
		C347.29,69.59,340.27,67.43,335.13,63.1z M363.99,52.53c1.94-1.97,2.98-5,3.1-9.07c0.12-3.63,0.19-6.23,0.19-7.8
		c0-1.57-0.06-4.1-0.19-7.61c-0.13-4.07-1.16-7.1-3.1-9.07c-1.94-1.97-4.54-2.96-7.8-2.96c-3.32,0-5.96,0.99-7.9,2.96
		c-1.94,1.97-2.98,5-3.1,9.07c-0.06,1.76-0.09,4.29-0.09,7.61c0,3.38,0.03,5.99,0.09,7.8c0.12,4.07,1.16,7.1,3.1,9.07
		c1.94,1.97,4.57,2.96,7.9,2.96C359.44,55.49,362.04,54.5,363.99,52.53z"/>
	<path class="st0" d="M406.15,67.94c-0.47-0.47-0.71-1.02-0.71-1.64V5.29c0-0.69,0.22-1.27,0.66-1.74c0.44-0.47,1-0.71,1.69-0.71
		h25.85c8.27,0,14.74,1.88,19.41,5.64c4.67,3.76,7,9.06,7,15.89c0,4.39-1.02,8.12-3.05,11.19c-2.04,3.07-4.84,5.45-8.41,7.14
		l12.69,22.94c0.19,0.38,0.28,0.72,0.28,1.03c0,0.5-0.19,0.96-0.56,1.36c-0.38,0.41-0.85,0.61-1.41,0.61h-13.25
		c-1.82,0-3.1-0.85-3.85-2.54l-10.34-20.4h-9.02V66.3c0,0.69-0.24,1.25-0.71,1.69c-0.47,0.44-1.05,0.66-1.74,0.66h-12.88
		C407.17,68.65,406.62,68.41,406.15,67.94z M433.55,31.89c2.69,0,4.75-0.67,6.16-2.02c1.41-1.35,2.11-3.21,2.11-5.59
		c0-2.38-0.7-4.29-2.11-5.73s-3.46-2.16-6.16-2.16h-10.43v15.51H433.55z"/>
	<path class="st0" d="M480.88,67.94c-0.47-0.47-0.71-1.02-0.71-1.64V5.29c0-0.69,0.22-1.27,0.66-1.74c0.44-0.47,1-0.71,1.69-0.71
		h12.6c0.69,0,1.25,0.23,1.69,0.71c0.44,0.47,0.66,1.05,0.66,1.74v20.49l16.64-21.06c0.69-1.25,1.91-1.88,3.67-1.88h14.38
		c0.5,0,0.96,0.2,1.36,0.61c0.41,0.41,0.61,0.86,0.61,1.36c0,0.5-0.13,0.88-0.38,1.13l-21.9,28.39l23.69,31.21
		c0.25,0.25,0.38,0.63,0.38,1.13c0,0.5-0.2,0.96-0.61,1.36c-0.41,0.41-0.89,0.61-1.46,0.61h-14.76c-1,0-1.82-0.2-2.44-0.61
		c-0.63-0.41-1.07-0.83-1.32-1.27l-17.86-22.94V66.3c0,0.63-0.22,1.17-0.66,1.64c-0.44,0.47-1,0.71-1.69,0.71h-12.6
		C481.89,68.65,481.35,68.41,480.88,67.94z"/>
</g>
<g>
	<path class="st0" d="M1227.55,47.76c0,0,2,0,2-2v-17c0,0,0-2-2-2H595.24c0,0-2,0-2,2v17c0,0,0,2,2,2H1227.55z"/>
</g>
</svg>
