<svg xmlns="http://www.w3.org/2000/svg" width="334.72" height="20" viewBox="0 0 334.72 20">
  <g id="Group_268" data-name="Group 268" transform="translate(-0.308 14.868)">
    <g id="Group_198" data-name="Group 198" transform="translate(0.308 -14.868)">
      <g id="Group" transform="translate(0 0)">
        <path id="Path_188" data-name="Path 188" d="M19.684-1.186a1.254,1.254,0,0,1,.112.417.585.585,0,0,1-.182.431.6.6,0,0,1-.434.181H15.652a1.176,1.176,0,0,1-.742-.208.975.975,0,0,1-.35-.486l-.784-2.306H6.328L5.544-.852a.975.975,0,0,1-.35.486,1.176,1.176,0,0,1-.742.208H.924A.6.6,0,0,1,.49-.338.585.585,0,0,1,.308-.769,1.254,1.254,0,0,1,.42-1.186l6.1-17.5a1.524,1.524,0,0,1,.448-.653,1.2,1.2,0,0,1,.812-.264H12.32a1.2,1.2,0,0,1,.812.264,1.524,1.524,0,0,1,.448.653ZM12.32-7.463,10.052-14.13,7.784-7.463ZM25.06-.158a.73.73,0,0,1-.532-.222A.718.718,0,0,1,24.3-.908V-18.852a.718.718,0,0,1,.224-.528.73.73,0,0,1,.532-.222h9.016a7.852,7.852,0,0,1,3.864.833,5.122,5.122,0,0,1,2.142,2.125,6.121,6.121,0,0,1,.658,2.819,4.444,4.444,0,0,1-.49,2.236A4.265,4.265,0,0,1,39.172-10.3a4.162,4.162,0,0,1,1.512,1.708,5.789,5.789,0,0,1,.448,2.4A6.154,6.154,0,0,1,39.564-1.88Q38-.158,34.664-.158ZM29.484-15.3v3.167h4.34a1.771,1.771,0,0,0,1.274-.417,1.541,1.541,0,0,0,.434-1.167A1.541,1.541,0,0,0,35.1-14.88a1.771,1.771,0,0,0-1.274-.417ZM34.1-4.463a1.886,1.886,0,0,0,1.344-.472,1.6,1.6,0,0,0,.5-1.222,1.6,1.6,0,0,0-.5-1.222A1.886,1.886,0,0,0,34.1-7.852h-4.62v3.389ZM54.572-19.88a9.87,9.87,0,0,1,4.592,1,7.4,7.4,0,0,1,2.982,2.708,7.98,7.98,0,0,1,1.162,3.819q.056.778.056,2.5,0,1.694-.056,2.444a7.98,7.98,0,0,1-1.162,3.819A7.4,7.4,0,0,1,59.164-.88a9.87,9.87,0,0,1-4.592,1,9.87,9.87,0,0,1-4.592-1A7.4,7.4,0,0,1,47-3.588a7.98,7.98,0,0,1-1.162-3.819q-.056-1.5-.056-2.444t.056-2.5A7.98,7.98,0,0,1,47-16.172,7.4,7.4,0,0,1,49.98-18.88,9.87,9.87,0,0,1,54.572-19.88Zm3.556,7.667a3.674,3.674,0,0,0-1.022-2.347,3.446,3.446,0,0,0-2.534-.875,3.446,3.446,0,0,0-2.534.875,3.674,3.674,0,0,0-1.022,2.347q-.084.917-.084,2.306,0,1.361.084,2.361A3.674,3.674,0,0,0,52.038-5.2a3.446,3.446,0,0,0,2.534.875A3.446,3.446,0,0,0,57.106-5.2a3.674,3.674,0,0,0,1.022-2.347q.084-1,.084-2.361Q58.212-11.3,58.128-12.213ZM84.9-19.6a.73.73,0,0,1,.532.222.718.718,0,0,1,.224.528V-7.769a8.182,8.182,0,0,1-1.064,4.278A6.818,6.818,0,0,1,81.606-.8,10.249,10.249,0,0,1,77.14.12,10.318,10.318,0,0,1,72.646-.8a6.732,6.732,0,0,1-2.968-2.694,8.267,8.267,0,0,1-1.05-4.278V-18.852a.718.718,0,0,1,.224-.528.73.73,0,0,1,.532-.222h3.668a.73.73,0,0,1,.532.222.718.718,0,0,1,.224.528V-7.88a3.741,3.741,0,0,0,.854,2.625,3.2,3.2,0,0,0,2.478.931,3.2,3.2,0,0,0,2.478-.931,3.741,3.741,0,0,0,.854-2.625V-18.852a.718.718,0,0,1,.224-.528.73.73,0,0,1,.532-.222Zm21.112,0a.73.73,0,0,1,.532.222.718.718,0,0,1,.224.528v2.944a.718.718,0,0,1-.224.528.73.73,0,0,1-.532.222H101.08V-.908a.718.718,0,0,1-.224.528.73.73,0,0,1-.532.222H96.656a.73.73,0,0,1-.532-.222A.718.718,0,0,1,95.9-.908v-14.25H90.972a.73.73,0,0,1-.532-.222.718.718,0,0,1-.224-.528v-2.944a.718.718,0,0,1,.224-.528.73.73,0,0,1,.532-.222Z" transform="translate(-0.308 19.88)" fill="#2c2c26"/>
        <path id="Path_187" data-name="Path 187" d="M26.208-19.6a.73.73,0,0,1,.532.222.718.718,0,0,1,.224.528V-7.769A8.182,8.182,0,0,1,25.9-3.491,6.818,6.818,0,0,1,22.918-.8,10.249,10.249,0,0,1,18.452.12,10.318,10.318,0,0,1,13.958-.8,6.732,6.732,0,0,1,10.99-3.491,8.268,8.268,0,0,1,9.94-7.769V-18.852a.718.718,0,0,1,.224-.528A.73.73,0,0,1,10.7-19.6h3.668a.73.73,0,0,1,.532.222.718.718,0,0,1,.224.528V-7.88a3.741,3.741,0,0,0,.854,2.625,3.2,3.2,0,0,0,2.478.931,3.2,3.2,0,0,0,2.478-.931,3.741,3.741,0,0,0,.854-2.625V-18.852a.718.718,0,0,1,.224-.528.73.73,0,0,1,.532-.222ZM48.44-14.408a.586.586,0,0,1-.182.431.564.564,0,0,1-.406.181H44.184a1.583,1.583,0,0,1-.616-.1,1.98,1.98,0,0,1-.5-.347q-.056-.056-.364-.375a2.64,2.64,0,0,0-.966-.569,4.283,4.283,0,0,0-1.526-.25,5.2,5.2,0,0,0-1.974.319,1.117,1.117,0,0,0-.77,1.1,1,1,0,0,0,.476.875,4.862,4.862,0,0,0,1.47.569q.994.25,3.458.75a9.666,9.666,0,0,1,4.648,2A5.012,5.012,0,0,1,49-5.936a4.968,4.968,0,0,1-1.106,3.208,6.963,6.963,0,0,1-3.08,2.111A12.716,12.716,0,0,1,40.348.12,11.057,11.057,0,0,1,35.98-.713,8.036,8.036,0,0,1,32.9-2.88a4.537,4.537,0,0,1-1.176-2.75.586.586,0,0,1,.182-.431.564.564,0,0,1,.406-.181H35.98a1.57,1.57,0,0,1,1.064.389q.084.083.448.486a3.158,3.158,0,0,0,1.106.722,4.4,4.4,0,0,0,1.75.319q3.472,0,3.472-1.472a.931.931,0,0,0-.49-.792,4.615,4.615,0,0,0-1.386-.542q-.9-.222-2.856-.639l-1.26-.25a7.889,7.889,0,0,1-4.2-2.042,5.352,5.352,0,0,1-1.344-3.819,5.04,5.04,0,0,1,.98-2.986,6.743,6.743,0,0,1,2.786-2.194,9.968,9.968,0,0,1,4.158-.819,9.953,9.953,0,0,1,4.144.847,8.2,8.2,0,0,1,2.954,2.125A4.235,4.235,0,0,1,48.44-14.408Z" transform="translate(111 19.88)" fill="#2c2c26"/>
      </g>
      <g id="Group_195" data-name="Group 195" transform="translate(170.037 4.999)">
        <path id="Path_129" data-name="Path 129" d="M-37.425,2.792s.493,0,.493-.929V-4.279s0-.929-.493-.929h-163.7s-.493,0-.493.929V1.863s0,.929.493.929Z" transform="translate(201.615 5.208)" fill="#2c2c26"/>
      </g>
    </g>
  </g>
</svg>
