<svg xmlns="http://www.w3.org/2000/svg" xmlns:xlink="http://www.w3.org/1999/xlink" width="282.281" height="16.083" viewBox="0 0 282.281 16.083">
  <defs>
    <clipPath id="clip-path">
      <path id="Path_90" data-name="Path 90" d="M0,0H282.281V-16.083H0Z" fill="none"/>
    </clipPath>
  </defs>
  <g id="Group_109" data-name="Group 109" transform="translate(0 16.083)">
    <g id="Group_108" data-name="Group 108" clip-path="url(#clip-path)">
      <g id="Group_106" data-name="Group 106" transform="translate(281.281 -4.824)">
        <path id="Path_88" data-name="Path 88" d="M0,0A.979.979,0,0,0,1-1V-4.345a.979.979,0,0,0-1-1H-93.917a.979.979,0,0,0-1,1V-1a.979.979,0,0,0,1,1Z" fill="#fff"/>
      </g>
      <g id="Group_107" data-name="Group 107" transform="translate(0.469 -0.223)">
        <path id="Path_89" data-name="Path 89" d="M0,0H2.9a.776.776,0,0,0,.759-.491l.8-2.167H10.32l.8,2.167A.775.775,0,0,0,11.883,0h2.9a.448.448,0,0,0,.324-.145.448.448,0,0,0,.145-.324.714.714,0,0,0-.022-.2l-5.2-14.318a.872.872,0,0,0-.893-.648H5.651a.871.871,0,0,0-.893.648L-.447-.67a.679.679,0,0,0-.022.2.448.448,0,0,0,.145.324A.448.448,0,0,0,0,0M7.393-11.7l1.988,5.7H5.406ZM19.745,0h5.987q6.723,0,6.946-6.12.022-.626.023-1.7t-.023-1.72a5.892,5.892,0,0,0-1.92-4.523,7.641,7.641,0,0,0-5.138-1.575H19.745a.524.524,0,0,0-.4.168.581.581,0,0,0-.156.413v14.5a.532.532,0,0,0,.168.39.532.532,0,0,0,.39.168m3.641-3.351v-8.934h2.122a3.012,3.012,0,0,1,2.134.681,2.9,2.9,0,0,1,.77,2.111q.045.625.045,1.653t-.045,1.675A3.073,3.073,0,0,1,27.7-4.021a2.829,2.829,0,0,1-2.077.67ZM41.457,0h3.6a.947.947,0,0,0,.615-.19.846.846,0,0,0,.3-.48l4.534-14.3a.817.817,0,0,0,.023-.2.469.469,0,0,0-.134-.324.44.44,0,0,0-.335-.145H47.131a.823.823,0,0,0-.548.179.842.842,0,0,0-.279.424l-3.06,10.1-3.038-10.1a.921.921,0,0,0-.279-.413.793.793,0,0,0-.547-.19H36.454a.478.478,0,0,0-.347.145.448.448,0,0,0-.145.324l.045.2L40.519-.67a.96.96,0,0,0,.324.48.943.943,0,0,0,.614.19M55.35,0H66.072a.581.581,0,0,0,.413-.156.524.524,0,0,0,.168-.4V-2.77a.562.562,0,0,0-.168-.413.559.559,0,0,0-.413-.168H58.835v-2.9H65.4a.56.56,0,0,0,.413-.168.56.56,0,0,0,.168-.413V-8.868a.562.562,0,0,0-.168-.413.559.559,0,0,0-.413-.167H58.835v-2.837h7.058a.582.582,0,0,0,.414-.157.527.527,0,0,0,.167-.4v-2.211a.562.562,0,0,0-.167-.413.563.563,0,0,0-.414-.168H55.35a.524.524,0,0,0-.4.168.581.581,0,0,0-.156.413v14.5a.535.535,0,0,0,.167.39A.536.536,0,0,0,55.35,0M71.924,0h3.06A.586.586,0,0,0,75.4-.156a.527.527,0,0,0,.167-.4V-5.45h2.144L80.167-.6a.931.931,0,0,0,.915.6h3.15a.436.436,0,0,0,.335-.145A.469.469,0,0,0,84.7-.469a.556.556,0,0,0-.067-.246l-3.016-5.45a4.814,4.814,0,0,0,2-1.7,4.705,4.705,0,0,0,.726-2.658A4.572,4.572,0,0,0,82.679-14.3a7.164,7.164,0,0,0-4.612-1.34H71.924a.524.524,0,0,0-.4.168.581.581,0,0,0-.156.413v14.5a.535.535,0,0,0,.167.39A.536.536,0,0,0,71.924,0m3.641-8.734v-3.685h2.48a1.958,1.958,0,0,1,1.463.513,1.866,1.866,0,0,1,.5,1.363,1.75,1.75,0,0,1-.5,1.329,2.039,2.039,0,0,1-1.463.48ZM92.988,0h3.105a.585.585,0,0,0,.413-.156.524.524,0,0,0,.168-.4V-11.995h3.931a.585.585,0,0,0,.413-.156.524.524,0,0,0,.168-.4v-2.5a.559.559,0,0,0-.168-.413.562.562,0,0,0-.413-.168H88.476a.559.559,0,0,0-.413.168.559.559,0,0,0-.168.413v2.5a.524.524,0,0,0,.168.4.581.581,0,0,0,.413.156h3.931V-.558a.524.524,0,0,0,.168.4A.581.581,0,0,0,92.988,0m12.955,0h3.194a.524.524,0,0,0,.4-.168.553.553,0,0,0,.157-.39V-15.077a.545.545,0,0,0-.157-.4.545.545,0,0,0-.4-.157h-3.194a.557.557,0,0,0-.391.157.527.527,0,0,0-.167.4V-.558a.535.535,0,0,0,.167.39.536.536,0,0,0,.391.168m14.943.223a9.791,9.791,0,0,0,3.53-.592,5.452,5.452,0,0,0,2.412-1.708,4.159,4.159,0,0,0,.871-2.636A4.1,4.1,0,0,0,127.107-7a4.216,4.216,0,0,0-1.831-1.474,14.29,14.29,0,0,0-3.34-.949,10.153,10.153,0,0,1-2.5-.748,1.127,1.127,0,0,1-.671-1.017,1.1,1.1,0,0,1,.514-.983,2.657,2.657,0,0,1,1.452-.335,2.732,2.732,0,0,1,1.385.324,1.38,1.38,0,0,1,.692.793.861.861,0,0,0,.76.4h3.127a.436.436,0,0,0,.335-.145.494.494,0,0,0,.134-.346,3.6,3.6,0,0,0-.815-2,5.837,5.837,0,0,0-2.212-1.7,7.9,7.9,0,0,0-3.406-.681,8.369,8.369,0,0,0-3.3.6,5.016,5.016,0,0,0-2.189,1.686,4.16,4.16,0,0,0-.77,2.469,3.805,3.805,0,0,0,1.34,3.127,9.233,9.233,0,0,0,4.043,1.63q1.384.291,2.122.525a2.982,2.982,0,0,1,1.072.536.992.992,0,0,1,.335.771A1.127,1.127,0,0,1,122.74-3.5a3.793,3.793,0,0,1-1.854.369,3.334,3.334,0,0,1-1.641-.346,2.24,2.24,0,0,1-.905-.883,1.439,1.439,0,0,0-.369-.312.913.913,0,0,0-.435-.09h-2.971a.494.494,0,0,0-.346.134.437.437,0,0,0-.145.335,3.854,3.854,0,0,0,.826,2.234A5.375,5.375,0,0,0,117.2-.4a9.676,9.676,0,0,0,3.685.625M132.635,0h3.194a.527.527,0,0,0,.4-.168.552.552,0,0,0,.156-.39V-15.077a.544.544,0,0,0-.156-.4.549.549,0,0,0-.4-.157h-3.194a.557.557,0,0,0-.391.157.526.526,0,0,0-.167.4V-.558a.535.535,0,0,0,.167.39.536.536,0,0,0,.391.168m9.583,0h2.836a.586.586,0,0,0,.414-.156.527.527,0,0,0,.167-.4V-8.421l5.249,8a.818.818,0,0,0,.76.424h2.524a.524.524,0,0,0,.4-.168.582.582,0,0,0,.156-.413V-15.055a.582.582,0,0,0-.156-.413.524.524,0,0,0-.4-.168h-2.837a.524.524,0,0,0-.4.168.581.581,0,0,0-.156.413V-6.88L145.5-15.211a.818.818,0,0,0-.759-.425h-2.524a.524.524,0,0,0-.4.168.578.578,0,0,0-.157.413v14.5a.532.532,0,0,0,.168.39.534.534,0,0,0,.391.168m24.324.223A9.03,9.03,0,0,0,170.295-.5a5.616,5.616,0,0,0,2.49-2.1,5.92,5.92,0,0,0,.883-3.273V-8.466a.562.562,0,0,0-.168-.413.558.558,0,0,0-.413-.167h-5.674a.559.559,0,0,0-.413.167.565.565,0,0,0-.167.413v1.743A.563.563,0,0,0,167-6.31a.559.559,0,0,0,.413.167H169.4v.4a2.443,2.443,0,0,1-.759,1.966,3.062,3.062,0,0,1-2.055.648q-2.636,0-2.725-2.837-.022-.648-.022-1.943t.022-1.921q.089-2.68,2.68-2.681a2.71,2.71,0,0,1,1.664.447,2.634,2.634,0,0,1,.86,1.072.871.871,0,0,0,.235.235.645.645,0,0,0,.346.078h3.462a.474.474,0,0,0,.347-.145.475.475,0,0,0,.145-.346,3.86,3.86,0,0,0-.883-2.223,6.026,6.026,0,0,0-2.434-1.776,9.359,9.359,0,0,0-3.742-.692,7.664,7.664,0,0,0-5.059,1.552,5.614,5.614,0,0,0-1.954,4.367q-.022.648-.023,2.055t.023,2.033a5.929,5.929,0,0,0,1.943,4.5,7.533,7.533,0,0,0,5.07,1.574" fill="#fff"/>
      </g>
    </g>
  </g>
</svg>
