<?xml version="1.0" encoding="utf-8"?>
<!-- Generator: Adobe Illustrator 23.0.4, SVG Export Plug-In . SVG Version: 6.00 Build 0)  -->
<svg version="1.1" id="Layer_1" xmlns="http://www.w3.org/2000/svg" xmlns:xlink="http://www.w3.org/1999/xlink" x="0px" y="0px"
	 viewBox="0 0 282.3 16.1" style="enable-background:new 0 0 282.3 16.1;" xml:space="preserve">
<style type="text/css">
	.st0{fill:#FFFFFF;}
</style>
<g id="Group_109" transform="translate(0 16.083)">
	<g>
		<g id="Group_108">
			<g id="Group_106" transform="translate(281.281 -4.824)">
				<path id="Path_88" class="st0" d="M0,0c0.5,0,1-0.4,1-1c0,0,0,0,0,0v-3.3c0-0.5-0.4-1-1-1c0,0,0,0,0,0h-93.9c-0.5,0-1,0.4-1,1
					c0,0,0,0,0,0V-1c0,0.5,0.4,1,1,1c0,0,0,0,0,0H0z"/>
			</g>
			<g id="Group_107" transform="translate(0.469 -0.223)">
				<path id="Path_89" class="st0" d="M0,0h2.9c0.3,0,0.6-0.2,0.8-0.5l0.8-2.2h5.9l0.8,2.2C11.2-0.2,11.5,0,11.9,0h2.9
					c0.1,0,0.2-0.1,0.3-0.1c0.1-0.1,0.1-0.2,0.1-0.3c0-0.1,0-0.1,0-0.2L10-15c-0.1-0.4-0.5-0.7-0.9-0.6H5.7c-0.4,0-0.8,0.2-0.9,0.6
					L-0.4-0.7c0,0.1,0,0.1,0,0.2c0,0.1,0.1,0.2,0.1,0.3C-0.2-0.1-0.1,0,0,0 M7.4-11.7l2,5.7h-4L7.4-11.7z M19.7,0h6
					c4.5,0,6.8-2,6.9-6.1c0-0.4,0-1,0-1.7c0-0.7,0-1.3,0-1.7c0-1.7-0.7-3.4-1.9-4.5c-1.5-1.1-3.3-1.7-5.1-1.6h-5.9
					c-0.2,0-0.3,0.1-0.4,0.2c-0.1,0.1-0.2,0.3-0.2,0.4v14.5c0,0.1,0.1,0.3,0.2,0.4C19.5-0.1,19.6,0,19.7,0 M23.4-3.4v-8.9h2.1
					c0.8-0.1,1.5,0.2,2.1,0.7c0.5,0.6,0.8,1.3,0.8,2.1c0,0.4,0,1,0,1.7s0,1.2,0,1.7c0,0.8-0.2,1.5-0.7,2.1c-0.6,0.5-1.3,0.7-2.1,0.7
					L23.4-3.4z M41.5,0h3.6c0.2,0,0.4-0.1,0.6-0.2c0.2-0.1,0.3-0.3,0.3-0.5L50.5-15c0-0.1,0-0.1,0-0.2c0-0.1,0-0.2-0.1-0.3
					c-0.1-0.1-0.2-0.1-0.3-0.1h-2.9c-0.2,0-0.4,0.1-0.5,0.2c-0.1,0.1-0.2,0.3-0.3,0.4L43.2-4.9l-3-10.1c-0.1-0.2-0.1-0.3-0.3-0.4
					c-0.2-0.1-0.3-0.2-0.5-0.2h-2.9c-0.1,0-0.3,0.1-0.3,0.1C36-15.4,36-15.3,36-15.2l0,0.2l4.5,14.3c0.1,0.2,0.2,0.4,0.3,0.5
					C41-0.1,41.2,0,41.5,0 M55.3,0h10.7c0.2,0,0.3-0.1,0.4-0.2c0.1-0.1,0.2-0.2,0.2-0.4v-2.2c0-0.2-0.1-0.3-0.2-0.4
					c-0.1-0.1-0.3-0.2-0.4-0.2h-7.2v-2.9h6.6c0.2,0,0.3-0.1,0.4-0.2C65.9-6.5,66-6.7,66-6.8v-2c0-0.2-0.1-0.3-0.2-0.4
					c-0.1-0.1-0.3-0.2-0.4-0.2h-6.6v-2.8h7.1c0.2,0,0.3-0.1,0.4-0.2c0.1-0.1,0.2-0.2,0.2-0.4v-2.2c0-0.2-0.1-0.3-0.2-0.4
					c-0.1-0.1-0.3-0.2-0.4-0.2H55.3c-0.2,0-0.3,0.1-0.4,0.2c-0.1,0.1-0.2,0.3-0.2,0.4v14.5c0,0.1,0.1,0.3,0.2,0.4
					C55.1-0.1,55.2,0,55.3,0 M71.9,0H75c0.2,0,0.3-0.1,0.4-0.2c0.1-0.1,0.2-0.2,0.2-0.4v-4.9h2.1l2.5,4.8C80.3-0.2,80.7,0,81.1,0
					h3.2c0.1,0,0.2,0,0.3-0.1c0.1-0.1,0.1-0.2,0.1-0.3c0-0.1,0-0.2-0.1-0.2l-3-5.4c0.8-0.4,1.5-1,2-1.7c0.5-0.8,0.8-1.7,0.7-2.7
					c0.1-1.5-0.5-2.9-1.7-3.8c-1.3-1-3-1.4-4.6-1.3h-6.1c-0.2,0-0.3,0.1-0.4,0.2c-0.1,0.1-0.2,0.3-0.2,0.4v14.5
					c0,0.1,0.1,0.3,0.2,0.4C71.6-0.1,71.8,0,71.9,0 M75.6-8.7v-3.7H78c0.5,0,1.1,0.1,1.5,0.5c0.3,0.4,0.5,0.9,0.5,1.4
					c0,0.5-0.2,1-0.5,1.3c-0.4,0.3-0.9,0.5-1.5,0.5L75.6-8.7z M93,0h3.1c0.2,0,0.3-0.1,0.4-0.2c0.1-0.1,0.2-0.2,0.2-0.4V-12h3.9
					c0.2,0,0.3-0.1,0.4-0.2c0.1-0.1,0.2-0.2,0.2-0.4v-2.5c0-0.2-0.1-0.3-0.2-0.4c-0.1-0.1-0.3-0.2-0.4-0.2H88.5
					c-0.2,0-0.3,0.1-0.4,0.2c-0.1,0.1-0.2,0.3-0.2,0.4v2.5c0,0.2,0.1,0.3,0.2,0.4c0.1,0.1,0.3,0.2,0.4,0.2h3.9v11.4
					c0,0.2,0.1,0.3,0.2,0.4C92.7-0.1,92.8,0,93,0 M105.9,0h3.2c0.2,0,0.3-0.1,0.4-0.2c0.1-0.1,0.2-0.2,0.2-0.4v-14.5
					c0-0.1-0.1-0.3-0.2-0.4c-0.1-0.1-0.3-0.2-0.4-0.2h-3.2c-0.1,0-0.3,0.1-0.4,0.2c-0.1,0.1-0.2,0.2-0.2,0.4v14.5
					c0,0.1,0.1,0.3,0.2,0.4C105.7-0.1,105.8,0,105.9,0 M120.9,0.2c1.2,0,2.4-0.2,3.5-0.6c0.9-0.3,1.8-0.9,2.4-1.7
					c0.6-0.8,0.9-1.7,0.9-2.6c0-0.8-0.2-1.6-0.6-2.3c-0.5-0.7-1.1-1.2-1.8-1.5c-1.1-0.5-2.2-0.8-3.3-0.9c-0.9-0.1-1.7-0.4-2.5-0.7
					c-0.4-0.2-0.7-0.6-0.7-1c0-0.4,0.2-0.8,0.5-1c0.4-0.2,0.9-0.4,1.5-0.3c0.5,0,1,0.1,1.4,0.3c0.3,0.2,0.6,0.4,0.7,0.8
					c0.2,0.3,0.5,0.4,0.8,0.4h3.1c0.1,0,0.2,0,0.3-0.1c0.1-0.1,0.1-0.2,0.1-0.3c-0.1-0.7-0.3-1.4-0.8-2c-0.6-0.7-1.3-1.3-2.2-1.7
					c-1.1-0.5-2.2-0.7-3.4-0.7c-1.1,0-2.3,0.2-3.3,0.6c-0.9,0.3-1.6,0.9-2.2,1.7c-0.5,0.7-0.8,1.6-0.8,2.5c-0.1,1.2,0.4,2.4,1.3,3.1
					c1.2,0.9,2.6,1.4,4,1.6c0.9,0.2,1.6,0.4,2.1,0.5c0.4,0.1,0.8,0.3,1.1,0.5c0.2,0.2,0.3,0.5,0.3,0.8c0,0.4-0.3,0.8-0.6,1
					c-0.6,0.3-1.2,0.4-1.9,0.4c-0.6,0-1.1-0.1-1.6-0.3c-0.4-0.2-0.7-0.5-0.9-0.9c-0.1-0.1-0.2-0.2-0.4-0.3c-0.1-0.1-0.3-0.1-0.4-0.1
					h-3c-0.1,0-0.3,0-0.3,0.1c-0.1,0.1-0.1,0.2-0.1,0.3c0,0.8,0.3,1.6,0.8,2.2c0.6,0.7,1.4,1.3,2.3,1.7C118.4,0,119.6,0.3,120.9,0.2
					 M132.6,0h3.2c0.2,0,0.3-0.1,0.4-0.2c0.1-0.1,0.2-0.2,0.2-0.4v-14.5c0-0.1-0.1-0.3-0.2-0.4c-0.1-0.1-0.3-0.2-0.4-0.2h-3.2
					c-0.1,0-0.3,0.1-0.4,0.2c-0.1,0.1-0.2,0.2-0.2,0.4v14.5c0,0.1,0.1,0.3,0.2,0.4C132.3-0.1,132.5,0,132.6,0 M142.2,0h2.8
					c0.2,0,0.3-0.1,0.4-0.2c0.1-0.1,0.2-0.2,0.2-0.4v-7.9l5.2,8c0.2,0.3,0.4,0.4,0.8,0.4h2.5c0.2,0,0.3-0.1,0.4-0.2
					c0.1-0.1,0.2-0.3,0.2-0.4v-14.5c0-0.2-0.1-0.3-0.2-0.4c-0.1-0.1-0.2-0.2-0.4-0.2h-2.8c-0.2,0-0.3,0.1-0.4,0.2
					c-0.1,0.1-0.2,0.3-0.2,0.4v8.2l-5.3-8.3c-0.2-0.3-0.4-0.4-0.8-0.4h-2.5c-0.2,0-0.3,0.1-0.4,0.2c-0.1,0.1-0.2,0.3-0.2,0.4v14.5
					c0,0.1,0.1,0.3,0.2,0.4C141.9-0.1,142.1,0,142.2,0 M166.5,0.2c1.3,0,2.6-0.2,3.8-0.7c1-0.4,1.9-1.2,2.5-2.1
					c0.6-1,0.9-2.1,0.9-3.3v-2.6c0-0.2-0.1-0.3-0.2-0.4c-0.1-0.1-0.3-0.2-0.4-0.2h-5.7c-0.2,0-0.3,0.1-0.4,0.2
					c-0.1,0.1-0.2,0.3-0.2,0.4v1.7c0,0.2,0.1,0.3,0.2,0.4c0.1,0.1,0.3,0.2,0.4,0.2h2v0.4c0.1,0.7-0.2,1.5-0.8,2
					c-0.6,0.5-1.3,0.7-2.1,0.6c-1.8,0-2.7-0.9-2.7-2.8c0-0.4,0-1.1,0-1.9c0-0.9,0-1.5,0-1.9c0.1-1.8,1-2.7,2.7-2.7
					c0.6,0,1.2,0.1,1.7,0.4c0.4,0.3,0.7,0.6,0.9,1.1c0.1,0.1,0.1,0.2,0.2,0.2c0.1,0.1,0.2,0.1,0.3,0.1h3.5c0.1,0,0.3-0.1,0.3-0.1
					c0.1-0.1,0.1-0.2,0.1-0.3c-0.1-0.8-0.4-1.6-0.9-2.2c-0.6-0.8-1.5-1.4-2.4-1.8c-1.2-0.5-2.5-0.7-3.7-0.7
					c-1.8-0.1-3.6,0.5-5.1,1.6c-1.3,1.1-2,2.7-2,4.4c0,0.4,0,1.1,0,2.1c0,0.9,0,1.6,0,2c0,1.7,0.7,3.4,1.9,4.5
					C162.9-0.2,164.7,0.3,166.5,0.2"/>
			</g>
		</g>
	</g>
</g>
</svg>
