<?xml version="1.0" encoding="utf-8"?>
<!-- Generator: Adobe Illustrator 23.0.4, SVG Export Plug-In . SVG Version: 6.00 Build 0)  -->
<svg version="1.1" id="Layer_1" xmlns="http://www.w3.org/2000/svg" xmlns:xlink="http://www.w3.org/1999/xlink" x="0px" y="0px"
	 viewBox="0 0 322.1 45.1" style="enable-background:new 0 0 322.1 45.1;" xml:space="preserve">
<style type="text/css">
	.st0{fill:#FFFFFF;}
</style>
<g id="Group_105" transform="translate(0 45.092)">
	<g>
		<g id="Group_104">
			<g id="Group_100" transform="translate(94.766 0)">
				<path id="Path_83" class="st0" d="M0,0h11.4c0.2,0,0.3-0.1,0.4-0.2C11.9-0.3,12-0.4,12-0.6v-2.3c0-0.2-0.1-0.3-0.2-0.4
					c-0.1-0.1-0.3-0.2-0.4-0.2H3.7v-3.1h7c0.2,0,0.3-0.1,0.4-0.2c0.1-0.1,0.2-0.3,0.2-0.4v-2.2c0-0.2-0.1-0.3-0.2-0.4
					C11-10,10.8-10,10.7-10h-7v-3h7.5c0.2,0,0.3-0.1,0.4-0.2c0.1-0.1,0.2-0.3,0.2-0.4V-16c0-0.2-0.1-0.3-0.2-0.4
					c-0.1-0.1-0.3-0.2-0.4-0.2H0c-0.2,0-0.3,0.1-0.4,0.2c-0.1,0.1-0.2,0.3-0.2,0.4v15.4c0,0.2,0.1,0.3,0.2,0.4C-0.3-0.1-0.2,0,0,0
					 M17.6,0h3c0.2,0,0.3-0.1,0.4-0.2c0.1-0.1,0.2-0.3,0.2-0.4v-8.4l5.6,8.5C27-0.2,27.3,0,27.6,0h2.7c0.2,0,0.3-0.1,0.4-0.2
					c0.1-0.1,0.2-0.3,0.2-0.4V-16c0-0.2-0.1-0.3-0.2-0.4c-0.1-0.1-0.3-0.2-0.4-0.2h-3c-0.2,0-0.3,0.1-0.4,0.2
					c-0.1,0.1-0.2,0.3-0.2,0.4v8.7l-5.6-8.9c-0.2-0.3-0.5-0.5-0.8-0.5h-2.7c-0.2,0-0.3,0.1-0.4,0.2C17.1-16.3,17-16.2,17-16v15.4
					c0,0.2,0.1,0.3,0.2,0.4C17.3-0.1,17.5,0,17.6,0 M40.8,0h3.3c0.2,0,0.3-0.1,0.4-0.2c0.1-0.1,0.2-0.3,0.2-0.4v-12.2h4.2
					c0.2,0,0.3-0.1,0.4-0.2c0.1-0.1,0.2-0.3,0.2-0.4V-16c0-0.2-0.1-0.3-0.2-0.4c-0.1-0.1-0.3-0.2-0.4-0.2H36c-0.2,0-0.3,0.1-0.4,0.2
					c-0.1,0.1-0.2,0.3-0.2,0.4v2.7c0,0.2,0.1,0.3,0.2,0.4c0.1,0.1,0.3,0.2,0.4,0.2h4.2v12.2c0,0.2,0.1,0.3,0.2,0.4
					C40.5-0.1,40.6,0,40.8,0 M54.5,0h11.4c0.2,0,0.3-0.1,0.4-0.2c0.1-0.1,0.2-0.3,0.2-0.4v-2.3c0-0.2-0.1-0.3-0.2-0.4
					c-0.1-0.1-0.3-0.2-0.4-0.2h-7.7v-3.1h7c0.2,0,0.3-0.1,0.4-0.2c0.1-0.1,0.2-0.3,0.2-0.4v-2.2c0-0.2-0.1-0.3-0.2-0.4
					C65.5-10,65.4-10,65.2-10h-7v-3h7.5c0.2,0,0.3-0.1,0.4-0.2c0.1-0.1,0.2-0.3,0.2-0.4V-16c0-0.2-0.1-0.3-0.2-0.4
					c-0.1-0.1-0.3-0.2-0.4-0.2H54.5c-0.2,0-0.3,0.1-0.4,0.2c-0.1,0.1-0.2,0.3-0.2,0.4v15.4c0,0.2,0.1,0.3,0.2,0.4
					C54.2-0.1,54.4,0,54.5,0 M72.1,0h3.3c0.2,0,0.3-0.1,0.4-0.2C76-0.3,76-0.4,76-0.6v-5.2h2.3l2.6,5.2c0.2,0.4,0.5,0.7,1,0.6h3.3
					c0.1,0,0.3-0.1,0.4-0.2c0.1-0.1,0.1-0.2,0.1-0.3c0-0.1,0-0.2-0.1-0.3l-3.2-5.8c0.9-0.4,1.6-1,2.1-1.8c0.5-0.8,0.8-1.8,0.8-2.8
					c0.1-1.5-0.6-3-1.8-4c-1.4-1-3.2-1.5-4.9-1.4h-6.5c-0.2,0-0.3,0.1-0.4,0.2c-0.1,0.1-0.2,0.3-0.2,0.4v15.4c0,0.2,0.1,0.3,0.2,0.4
					C71.8-0.1,72,0,72.1,0 M76-9.3v-3.9h2.6c0.6,0,1.1,0.2,1.6,0.5c0.4,0.4,0.6,0.9,0.5,1.4c0,0.5-0.2,1-0.5,1.4
					c-0.4,0.4-1,0.6-1.6,0.5H76z M94.5,0h3.3c0.2,0,0.3-0.1,0.4-0.2c0.1-0.1,0.2-0.3,0.2-0.4v-12.2h4.2c0.2,0,0.3-0.1,0.4-0.2
					c0.1-0.1,0.2-0.3,0.2-0.4V-16c0-0.2-0.1-0.3-0.2-0.4c-0.1-0.1-0.3-0.2-0.4-0.2H89.7c-0.2,0-0.3,0.1-0.4,0.2
					c-0.1,0.1-0.2,0.3-0.2,0.4v2.7c0,0.2,0.1,0.3,0.2,0.4c0.1,0.1,0.3,0.2,0.4,0.2h4.2v12.2c0,0.2,0.1,0.3,0.2,0.4
					C94.2-0.1,94.4,0,94.5,0 M105.1,0h3.1c0.4,0,0.7-0.2,0.8-0.5l0.9-2.3h6.2l0.9,2.3c0.1,0.3,0.5,0.5,0.8,0.5h3.1
					c0.1,0,0.3-0.1,0.3-0.2c0.1-0.1,0.2-0.2,0.2-0.3c0-0.1,0-0.1,0-0.2l-5.5-15.2c-0.1-0.4-0.5-0.7-0.9-0.7h-3.7
					c-0.4,0-0.8,0.3-0.9,0.7l-5.5,15.2c0,0.1,0,0.1,0,0.2c0,0.1,0.1,0.3,0.2,0.3C104.8-0.1,105,0,105.1,0 M112.9-12.4l2.1,6.1h-4.2
					L112.9-12.4z M126.1,0h3.4c0.2,0,0.3-0.1,0.4-0.2c0.1-0.1,0.2-0.3,0.2-0.4V-16c0-0.2-0.1-0.3-0.2-0.4c-0.1-0.1-0.3-0.2-0.4-0.2
					h-3.4c-0.2,0-0.3,0.1-0.4,0.2c-0.1,0.1-0.2,0.3-0.2,0.4v15.4c0,0.2,0.1,0.3,0.2,0.4C125.8-0.1,125.9,0,126.1,0 M136.2,0h3
					c0.2,0,0.3-0.1,0.4-0.2c0.1-0.1,0.2-0.3,0.2-0.4v-8.4l5.6,8.5c0.2,0.3,0.5,0.5,0.8,0.5h2.7c0.2,0,0.3-0.1,0.4-0.2
					c0.1-0.1,0.2-0.3,0.2-0.4V-16c0-0.2-0.1-0.3-0.2-0.4c-0.1-0.1-0.3-0.2-0.4-0.2h-3c-0.2,0-0.3,0.1-0.4,0.2
					c-0.1,0.1-0.2,0.3-0.2,0.4v8.7l-5.6-8.9c-0.2-0.3-0.5-0.5-0.8-0.5h-2.7c-0.2,0-0.3,0.1-0.4,0.2c-0.1,0.1-0.2,0.3-0.2,0.4v15.4
					c0,0.2,0.1,0.3,0.2,0.4C135.9-0.1,136.1,0,136.2,0 M155.8,0h3c0.2,0,0.3-0.1,0.4-0.2c0.1-0.1,0.2-0.3,0.2-0.4v-8.6l2.5,4.7
					c0.2,0.3,0.5,0.5,0.8,0.5h1.3c0.4,0,0.7-0.2,0.8-0.5l2.6-4.7v8.6c0,0.2,0.1,0.3,0.2,0.4c0.1,0.1,0.3,0.2,0.4,0.2h3
					c0.2,0,0.3-0.1,0.4-0.2c0.1-0.1,0.2-0.3,0.2-0.4V-16c0-0.2-0.1-0.3-0.2-0.4c-0.1-0.1-0.3-0.2-0.4-0.2h-2.7
					c-0.4,0-0.7,0.2-0.9,0.5l-4.1,7.3l-4.1-7.3c-0.2-0.3-0.5-0.5-0.9-0.5h-2.7c-0.2,0-0.3,0.1-0.4,0.2c-0.1,0.1-0.2,0.3-0.2,0.4
					v15.4c0,0.2,0.1,0.3,0.2,0.4C155.4-0.1,155.6,0,155.8,0 M177.8,0h11.4c0.2,0,0.3-0.1,0.4-0.2c0.1-0.1,0.2-0.3,0.2-0.4V-3
					c0-0.2-0.1-0.3-0.2-0.4c-0.1-0.1-0.3-0.2-0.4-0.2h-7.7v-3.1h7c0.2,0,0.3-0.1,0.4-0.2c0.1-0.1,0.2-0.3,0.2-0.4v-2.2
					c0-0.2-0.1-0.3-0.2-0.4c-0.1-0.1-0.3-0.2-0.4-0.2h-7v-3h7.5c0.2,0,0.3-0.1,0.4-0.2c0.1-0.1,0.2-0.3,0.2-0.4V-16
					c0-0.2-0.1-0.3-0.2-0.4c-0.1-0.1-0.3-0.2-0.4-0.2h-11.2c-0.2,0-0.3,0.1-0.4,0.2c-0.1,0.1-0.2,0.3-0.2,0.4v15.4
					c0,0.2,0.1,0.3,0.2,0.4C177.5-0.1,177.7,0,177.8,0 M195.4,0h3c0.2,0,0.3-0.1,0.4-0.2c0.1-0.1,0.2-0.3,0.2-0.4v-8.3l5.6,8.5
					c0.2,0.3,0.5,0.5,0.8,0.4h2.7c0.2,0,0.3-0.1,0.4-0.2c0.1-0.1,0.2-0.3,0.2-0.4V-16c0-0.2-0.1-0.3-0.2-0.4
					c-0.1-0.1-0.3-0.2-0.4-0.2h-3c-0.2,0-0.3,0.1-0.4,0.2c-0.1,0.1-0.2,0.3-0.2,0.4v8.7l-5.6-8.9c-0.2-0.3-0.5-0.5-0.8-0.5h-2.7
					c-0.2,0-0.3,0.1-0.4,0.2c-0.1,0.1-0.2,0.3-0.2,0.4v15.4c0,0.2,0.1,0.3,0.2,0.4C195.1-0.1,195.3,0,195.4,0 M218.6,0h3.3
					c0.2,0,0.3-0.1,0.4-0.2c0.1-0.1,0.2-0.3,0.2-0.4v-12.2h4.2c0.2,0,0.3-0.1,0.4-0.2c0.1-0.1,0.2-0.3,0.2-0.4V-16
					c0-0.2-0.1-0.3-0.2-0.4c-0.1-0.1-0.3-0.2-0.4-0.2h-12.9c-0.2,0-0.3,0.1-0.4,0.2c-0.1,0.1-0.2,0.3-0.2,0.4v2.7
					c0,0.2,0.1,0.3,0.2,0.4c0.1,0.1,0.3,0.2,0.4,0.2h4.2v12.2c0,0.2,0.1,0.3,0.2,0.4C218.3-0.1,218.4,0,218.6,0"/>
			</g>
			<g id="Group_101" transform="translate(1.553 -28.479)">
				<path id="Path_84" class="st0" d="M0,0h7.5c1.6,0.1,3.2-0.4,4.5-1.3c1.1-0.9,1.7-2.3,1.6-3.7c0-0.8-0.2-1.6-0.7-2.2
					c-0.4-0.6-1-1.1-1.6-1.4c0.5-0.3,1-0.7,1.3-1.2c0.4-0.6,0.6-1.3,0.6-2c0.1-1.3-0.5-2.6-1.5-3.5c-1.3-0.9-2.9-1.4-4.5-1.2H0
					c-0.2,0-0.3,0.1-0.4,0.2c-0.1,0.1-0.2,0.3-0.2,0.4v15.4c0,0.2,0.1,0.3,0.2,0.4C-0.3-0.1-0.2,0,0,0 M3.9-10v-3.4h3
					c0.5,0,1,0.1,1.4,0.5c0.3,0.3,0.5,0.8,0.5,1.2c0,0.5-0.2,0.9-0.5,1.2C7.8-10.2,7.3-10,6.8-10L3.9-10z M3.9-3.2v-3.7H7
					c0.5,0,1,0.2,1.4,0.5C8.8-6,9-5.6,9-5.1c0,0.5-0.2,1-0.5,1.3C8.1-3.4,7.6-3.2,7-3.2L3.9-3.2z M19.2,0h3.2c0.2,0,0.3-0.1,0.4-0.2
					C23-0.3,23-0.4,23-0.6v-5.2h2.3l2.6,5.2c0.2,0.4,0.5,0.7,1,0.6h3.3c0.1,0,0.3-0.1,0.4-0.2c0.1-0.1,0.1-0.2,0.1-0.3
					c0-0.1,0-0.2-0.1-0.3l-3.2-5.8c0.9-0.4,1.6-1,2.1-1.8c0.5-0.8,0.8-1.8,0.8-2.8c0.1-1.5-0.6-3-1.8-4c-1.4-1-3.2-1.5-4.9-1.4h-6.5
					c-0.2,0-0.3,0.1-0.4,0.2c-0.1,0.1-0.2,0.3-0.2,0.4v15.4c0,0.2,0.1,0.3,0.2,0.4C18.8-0.1,19,0,19.2,0 M23-9.3v-3.9h2.6
					c0.6,0,1.1,0.2,1.6,0.5c0.4,0.4,0.6,0.9,0.5,1.4c0,0.5-0.2,1-0.5,1.4c-0.4,0.4-1,0.6-1.6,0.5H23z M36.5,0h3.1
					c0.4,0,0.7-0.2,0.8-0.5l0.9-2.3h6.2l0.9,2.3C48.4-0.2,48.8,0,49.1,0h3.1c0.1,0,0.3-0.1,0.3-0.2c0.1-0.1,0.2-0.2,0.2-0.3
					c0-0.1,0-0.1,0-0.2l-5.5-15.2c-0.1-0.4-0.5-0.7-1-0.7h-3.7c-0.4,0-0.8,0.3-0.9,0.7L36-0.7c0,0.1,0,0.1,0,0.2
					c0,0.1,0.1,0.3,0.2,0.3C36.2-0.1,36.4,0,36.5,0 M44.4-12.4l2.1,6.1h-4.2L44.4-12.4z M57.5,0h3c0.2,0,0.3-0.1,0.4-0.2
					c0.1-0.1,0.2-0.3,0.2-0.4v-8.4l5.6,8.5C66.8-0.2,67.2,0,67.5,0h2.7c0.2,0,0.3-0.1,0.4-0.2c0.1-0.1,0.2-0.3,0.2-0.4V-16
					c0-0.2-0.1-0.3-0.2-0.4c-0.1-0.1-0.3-0.2-0.4-0.2h-3c-0.2,0-0.3,0.1-0.4,0.2c-0.1,0.1-0.2,0.3-0.2,0.4v8.7L61-16.2
					c-0.2-0.3-0.5-0.5-0.8-0.5h-2.7c-0.2,0-0.3,0.1-0.4,0.2c-0.1,0.1-0.2,0.3-0.2,0.4v15.4c0,0.2,0.1,0.3,0.2,0.4
					C57.2-0.1,57.3,0,57.5,0 M77,0h6.4c4.8,0,7.2-2.2,7.4-6.5c0-0.4,0-1,0-1.8s0-1.4,0-1.8c0.1-1.8-0.7-3.6-2-4.8
					c-1.6-1.2-3.5-1.8-5.5-1.7H77c-0.2,0-0.3,0.1-0.4,0.2c-0.1,0.1-0.2,0.3-0.2,0.4v15.4c0,0.2,0.1,0.3,0.2,0.4
					C76.7-0.1,76.8,0,77,0 M80.8-3.6v-9.5h2.3c0.8-0.1,1.6,0.2,2.3,0.7c0.6,0.6,0.9,1.4,0.8,2.2c0,0.4,0,1,0,1.8s0,1.3,0,1.8
					c0,0.8-0.2,1.6-0.8,2.3c-0.6,0.5-1.4,0.8-2.2,0.7L80.8-3.6z M96.4,0h11.4c0.2,0,0.3-0.1,0.4-0.2c0.1-0.1,0.2-0.3,0.2-0.4v-2.3
					c0-0.2-0.1-0.3-0.2-0.4c-0.1-0.1-0.3-0.2-0.4-0.2h-7.7v-3.1h7c0.2,0,0.3-0.1,0.4-0.2c0.1-0.1,0.2-0.3,0.2-0.4v-2.2
					c0-0.2-0.1-0.3-0.2-0.4c-0.1-0.1-0.3-0.2-0.4-0.2h-7v-3h7.5c0.2,0,0.3-0.1,0.4-0.2c0.1-0.1,0.2-0.3,0.2-0.4V-16
					c0-0.2-0.1-0.3-0.2-0.4c-0.1-0.1-0.3-0.2-0.4-0.2H96.4c-0.2,0-0.3,0.1-0.4,0.2c-0.1,0.1-0.2,0.3-0.2,0.4v15.4
					c0,0.2,0.1,0.3,0.2,0.4C96.1-0.1,96.2,0,96.4,0 M114,0h6.4c4.8,0,7.2-2.2,7.4-6.5c0-0.4,0-1,0-1.8c0-0.8,0-1.4,0-1.8
					c0.1-1.8-0.7-3.6-2-4.8c-1.6-1.2-3.5-1.8-5.5-1.7H114c-0.2,0-0.3,0.1-0.4,0.2c-0.1,0.1-0.2,0.3-0.2,0.4v15.4
					c0,0.2,0.1,0.3,0.2,0.4C113.7-0.1,113.9,0,114,0 M117.9-3.6v-9.5h2.3c0.8-0.1,1.6,0.2,2.3,0.7c0.6,0.6,0.9,1.4,0.8,2.2
					c0,0.4,0,1,0,1.8c0,0.7,0,1.3,0,1.8c0,0.8-0.2,1.6-0.8,2.3c-0.6,0.5-1.4,0.8-2.2,0.7L117.9-3.6z"/>
			</g>
			<g id="Group_102" transform="translate(73.579 -5.017)">
				<path id="Path_85" class="st0" d="M0,0c0.5,0,1-0.4,1-1c0,0,0,0,0,0v-3.7c0-0.5-0.4-1-1-1c0,0,0,0,0,0h-72.6c-0.5,0-1,0.4-1,1
					c0,0,0,0,0,0V-1c0,0.5,0.4,1,1,1c0,0,0,0,0,0H0z"/>
			</g>
			<g id="Group_103" transform="translate(320.932 -33.077)">
				<path id="Path_86" class="st0" d="M0,0c0.5,0,1-0.4,1-1c0,0,0,0,0,0v-3.7c0-0.5-0.4-1-1-1c0,0,0,0,0,0h-173c-0.5,0-1,0.4-1,1
					c0,0,0,0,0,0V-1c0,0.5,0.4,1,1,1c0,0,0,0,0,0H0z"/>
			</g>
		</g>
	</g>
</g>
</svg>
