<svg xmlns="http://www.w3.org/2000/svg" xmlns:xlink="http://www.w3.org/1999/xlink" width="322.073" height="45.092" viewBox="0 0 322.073 45.092">
  <defs>
    <clipPath id="clip-path">
      <path id="Path_87" data-name="Path 87" d="M0,0H322.073V-45.092H0Z" fill="none"/>
    </clipPath>
  </defs>
  <g id="Group_105" data-name="Group 105" transform="translate(0 45.092)">
    <g id="Group_104" data-name="Group 104" clip-path="url(#clip-path)">
      <g id="Group_100" data-name="Group 100" transform="translate(94.766 0)">
        <path id="Path_83" data-name="Path 83" d="M0,0H11.392a.62.62,0,0,0,.439-.166.561.561,0,0,0,.178-.427v-2.35a.6.6,0,0,0-.178-.439.6.6,0,0,0-.439-.178H3.7V-6.645H10.68a.6.6,0,0,0,.439-.178.6.6,0,0,0,.178-.439v-2.16a.6.6,0,0,0-.178-.439.6.6,0,0,0-.439-.178H3.7v-3.014h7.5a.619.619,0,0,0,.439-.166.559.559,0,0,0,.178-.427V-16a.6.6,0,0,0-.178-.439.6.6,0,0,0-.439-.178H0a.559.559,0,0,0-.427.178A.619.619,0,0,0-.593-16v15.4a.568.568,0,0,0,.178.415A.567.567,0,0,0,0,0M17.609,0h3.014a.617.617,0,0,0,.439-.166.557.557,0,0,0,.178-.427V-8.947l5.578,8.5A.865.865,0,0,0,27.624,0h2.682a.557.557,0,0,0,.427-.178A.619.619,0,0,0,30.9-.617V-16a.619.619,0,0,0-.167-.439.561.561,0,0,0-.427-.178H27.292a.561.561,0,0,0-.427.178A.619.619,0,0,0,26.7-16V-7.31l-5.6-8.852a.87.87,0,0,0-.807-.451H17.609a.561.561,0,0,0-.427.178.619.619,0,0,0-.166.439v15.4a.568.568,0,0,0,.178.415A.568.568,0,0,0,17.609,0M40.772,0h3.3a.619.619,0,0,0,.439-.166.557.557,0,0,0,.178-.427V-12.744h4.177a.623.623,0,0,0,.439-.166.561.561,0,0,0,.178-.428V-16a.6.6,0,0,0-.178-.439.6.6,0,0,0-.439-.178H35.978a.6.6,0,0,0-.439.178.6.6,0,0,0-.178.439v2.658a.558.558,0,0,0,.178.428.623.623,0,0,0,.439.166h4.177V-.593a.557.557,0,0,0,.178.427A.619.619,0,0,0,40.772,0M54.537,0H65.928a.617.617,0,0,0,.439-.166.557.557,0,0,0,.178-.427v-2.35a.6.6,0,0,0-.178-.439.594.594,0,0,0-.439-.178H58.239V-6.645h6.977a.594.594,0,0,0,.439-.178.6.6,0,0,0,.178-.439v-2.16a.6.6,0,0,0-.178-.439.6.6,0,0,0-.439-.178H58.239v-3.014h7.5a.617.617,0,0,0,.439-.166.556.556,0,0,0,.178-.427V-16a.6.6,0,0,0-.178-.439.6.6,0,0,0-.439-.178h-11.2a.561.561,0,0,0-.428.178.623.623,0,0,0-.166.439v15.4a.572.572,0,0,0,.178.415A.569.569,0,0,0,54.537,0M72.146,0H75.4a.617.617,0,0,0,.439-.166.557.557,0,0,0,.178-.427v-5.2h2.279L80.9-.641A.991.991,0,0,0,81.876,0h3.347a.464.464,0,0,0,.356-.154A.5.5,0,0,0,85.721-.5a.593.593,0,0,0-.071-.261l-3.2-5.791a5.1,5.1,0,0,0,2.124-1.8,4.994,4.994,0,0,0,.771-2.824,4.859,4.859,0,0,0-1.768-4.011,7.614,7.614,0,0,0-4.9-1.424H72.146a.559.559,0,0,0-.427.178.619.619,0,0,0-.166.439v15.4a.568.568,0,0,0,.178.415A.566.566,0,0,0,72.146,0m3.868-9.279v-3.916h2.635a2.077,2.077,0,0,1,1.554.546,1.98,1.98,0,0,1,.534,1.447A1.859,1.859,0,0,1,80.2-9.79a2.161,2.161,0,0,1-1.554.511ZM94.526,0h3.3a.62.62,0,0,0,.439-.166.56.56,0,0,0,.178-.427V-12.744h4.176a.625.625,0,0,0,.44-.166.561.561,0,0,0,.178-.428V-16a.6.6,0,0,0-.178-.439.6.6,0,0,0-.44-.178H89.732a.6.6,0,0,0-.439.178.6.6,0,0,0-.178.439v2.658a.558.558,0,0,0,.178.428.621.621,0,0,0,.439.166h4.177V-.593a.557.557,0,0,0,.178.427A.615.615,0,0,0,94.526,0m10.561,0h3.085a.825.825,0,0,0,.807-.522l.854-2.3h6.218l.854,2.3a.823.823,0,0,0,.807.522H120.8a.479.479,0,0,0,.345-.154A.48.48,0,0,0,121.3-.5a.713.713,0,0,0-.024-.214l-5.53-15.212a.927.927,0,0,0-.949-.689h-3.7a.927.927,0,0,0-.949.689L104.612-.712a.713.713,0,0,0-.024.214.477.477,0,0,0,.154.344.477.477,0,0,0,.345.154m7.855-12.436,2.112,6.052H110.83ZM126.066,0h3.393a.559.559,0,0,0,.428-.178.593.593,0,0,0,.166-.415V-16.019a.583.583,0,0,0-.166-.428.583.583,0,0,0-.428-.166h-3.393a.593.593,0,0,0-.416.166.563.563,0,0,0-.178.428V-.593a.572.572,0,0,0,.178.415.569.569,0,0,0,.416.178m10.181,0h3.014a.619.619,0,0,0,.439-.166.561.561,0,0,0,.178-.427V-8.947l5.577,8.5a.868.868,0,0,0,.807.451h2.682a.558.558,0,0,0,.427-.178.623.623,0,0,0,.166-.439V-16a.623.623,0,0,0-.166-.439.562.562,0,0,0-.427-.178H145.93a.561.561,0,0,0-.428.178.619.619,0,0,0-.166.439V-7.31l-5.6-8.852a.87.87,0,0,0-.807-.451h-2.681a.557.557,0,0,0-.427.178.619.619,0,0,0-.167.439v15.4a.572.572,0,0,0,.178.415.569.569,0,0,0,.416.178m19.508,0h2.99a.619.619,0,0,0,.439-.166.557.557,0,0,0,.178-.427V-9.232l2.539,4.7a1,1,0,0,0,.831.546h1.281a.931.931,0,0,0,.831-.546l2.563-4.7V-.593a.568.568,0,0,0,.178.415A.568.568,0,0,0,168,0h3.015a.62.62,0,0,0,.439-.166.56.56,0,0,0,.178-.427V-16a.6.6,0,0,0-.178-.439.6.6,0,0,0-.439-.178h-2.682a.889.889,0,0,0-.855.522l-4.1,7.31-4.082-7.31a.89.89,0,0,0-.855-.522h-2.681a.6.6,0,0,0-.439.178.6.6,0,0,0-.178.439v15.4a.557.557,0,0,0,.178.427.615.615,0,0,0,.439.166m22.071,0h11.391a.619.619,0,0,0,.439-.166.557.557,0,0,0,.178-.427v-2.35a.6.6,0,0,0-.178-.439.6.6,0,0,0-.439-.178h-7.689V-6.645h6.977a.6.6,0,0,0,.439-.178.6.6,0,0,0,.178-.439v-2.16a.6.6,0,0,0-.178-.439.6.6,0,0,0-.439-.178h-6.977v-3.014h7.5a.617.617,0,0,0,.439-.166.556.556,0,0,0,.178-.427V-16a.6.6,0,0,0-.178-.439.6.6,0,0,0-.439-.178h-11.2a.561.561,0,0,0-.428.178.619.619,0,0,0-.166.439v15.4a.572.572,0,0,0,.178.415.569.569,0,0,0,.416.178m17.609,0h3.014a.619.619,0,0,0,.439-.166.557.557,0,0,0,.178-.427V-8.947l5.577,8.5A.868.868,0,0,0,205.45,0h2.682a.557.557,0,0,0,.427-.178.623.623,0,0,0,.166-.439V-16a.623.623,0,0,0-.166-.439.561.561,0,0,0-.427-.178h-3.014a.558.558,0,0,0-.427.178.619.619,0,0,0-.167.439V-7.31l-5.6-8.852a.872.872,0,0,0-.807-.451h-2.682a.559.559,0,0,0-.427.178.619.619,0,0,0-.166.439v15.4a.568.568,0,0,0,.178.415.566.566,0,0,0,.415.178M218.6,0h3.3a.617.617,0,0,0,.439-.166.557.557,0,0,0,.178-.427V-12.744h4.177a.621.621,0,0,0,.439-.166.558.558,0,0,0,.178-.428V-16a.6.6,0,0,0-.178-.439.6.6,0,0,0-.439-.178H213.8a.6.6,0,0,0-.439.178.6.6,0,0,0-.178.439v2.658a.558.558,0,0,0,.178.428.619.619,0,0,0,.439.166h4.176V-.593a.56.56,0,0,0,.178.427A.619.619,0,0,0,218.6,0" fill="#fff"/>
      </g>
      <g id="Group_101" data-name="Group 101" transform="translate(1.553 -28.479)">
        <path id="Path_84" data-name="Path 84" d="M0,0H7.547a6.834,6.834,0,0,0,4.521-1.329,4.6,4.6,0,0,0,1.578-3.726,3.887,3.887,0,0,0-.664-2.219,3.832,3.832,0,0,0-1.638-1.412A3.909,3.909,0,0,0,12.685-9.9a3.259,3.259,0,0,0,.6-1.97,4.33,4.33,0,0,0-1.471-3.513,6.875,6.875,0,0,0-4.486-1.234H0a.559.559,0,0,0-.427.178A.619.619,0,0,0-.593-16v15.4a.568.568,0,0,0,.178.415A.567.567,0,0,0,0,0M3.868-10.039v-3.37H6.835a1.851,1.851,0,0,1,1.365.463,1.623,1.623,0,0,1,.462,1.2,1.673,1.673,0,0,1-.474,1.235,1.834,1.834,0,0,1-1.353.474Zm0,6.835V-6.93H7.049A1.9,1.9,0,0,1,8.472-6.4a1.842,1.842,0,0,1,.523,1.341,1.835,1.835,0,0,1-.511,1.317A1.89,1.89,0,0,1,7.049-3.2ZM19.152,0H22.4a.619.619,0,0,0,.439-.166.557.557,0,0,0,.178-.427v-5.2H25.3l2.611,5.15A.991.991,0,0,0,28.882,0h3.346a.463.463,0,0,0,.356-.154A.5.5,0,0,0,32.727-.5a.583.583,0,0,0-.072-.261l-3.2-5.791a5.113,5.113,0,0,0,2.124-1.8,4.994,4.994,0,0,0,.771-2.824,4.861,4.861,0,0,0-1.768-4.011,7.614,7.614,0,0,0-4.9-1.424H19.152a.558.558,0,0,0-.427.178.619.619,0,0,0-.167.439v15.4a.572.572,0,0,0,.178.415A.569.569,0,0,0,19.152,0M23.02-9.279v-3.916h2.634a2.08,2.08,0,0,1,1.555.546,1.98,1.98,0,0,1,.534,1.447,1.859,1.859,0,0,1-.534,1.412,2.164,2.164,0,0,1-1.555.511ZM36.5,0h3.085a.823.823,0,0,0,.807-.522l.854-2.3h6.218l.855,2.3A.823.823,0,0,0,49.125,0h3.086a.477.477,0,0,0,.344-.154A.477.477,0,0,0,52.709-.5a.713.713,0,0,0-.024-.214L47.156-15.924a.928.928,0,0,0-.95-.689H42.5a.927.927,0,0,0-.949.689L36.025-.712A.713.713,0,0,0,36-.5a.478.478,0,0,0,.155.344A.473.473,0,0,0,36.5,0m7.855-12.436,2.112,6.052H42.243ZM57.479,0h3.014a.619.619,0,0,0,.439-.166.557.557,0,0,0,.178-.427V-8.947l5.577,8.5A.868.868,0,0,0,67.494,0h2.682A.557.557,0,0,0,70.6-.178a.623.623,0,0,0,.166-.439V-16a.623.623,0,0,0-.166-.439.56.56,0,0,0-.427-.178H67.162a.558.558,0,0,0-.427.178.619.619,0,0,0-.167.439V-7.31l-5.6-8.852a.872.872,0,0,0-.807-.451H57.479a.559.559,0,0,0-.427.178.619.619,0,0,0-.166.439v15.4a.568.568,0,0,0,.178.415A.567.567,0,0,0,57.479,0M76.963,0h6.36Q90.466,0,90.7-6.5q.024-.663.024-1.8T90.7-10.134a6.261,6.261,0,0,0-2.041-4.806,8.117,8.117,0,0,0-5.458-1.673H76.963a.559.559,0,0,0-.427.178A.619.619,0,0,0,76.37-16v15.4a.568.568,0,0,0,.178.415A.567.567,0,0,0,76.963,0m3.868-3.56v-9.493h2.255a3.2,3.2,0,0,1,2.266.724,3.084,3.084,0,0,1,.819,2.243q.048.665.048,1.756t-.048,1.78a3.271,3.271,0,0,1-.759,2.278,3.009,3.009,0,0,1-2.207.712ZM96.4,0h11.391a.617.617,0,0,0,.439-.166.557.557,0,0,0,.178-.427v-2.35a.6.6,0,0,0-.178-.439.594.594,0,0,0-.439-.178H100.1V-6.645h6.977a.594.594,0,0,0,.439-.178.6.6,0,0,0,.178-.439v-2.16a.6.6,0,0,0-.178-.439.6.6,0,0,0-.439-.178H100.1v-3.014h7.5a.617.617,0,0,0,.439-.166.556.556,0,0,0,.178-.427V-16a.6.6,0,0,0-.178-.439.6.6,0,0,0-.439-.178H96.4a.558.558,0,0,0-.427.178.619.619,0,0,0-.167.439v15.4a.572.572,0,0,0,.178.415A.569.569,0,0,0,96.4,0m17.609,0h6.36q7.143,0,7.381-6.5.024-.663.024-1.8t-.024-1.828a6.261,6.261,0,0,0-2.041-4.806,8.117,8.117,0,0,0-5.458-1.673h-6.242a.559.559,0,0,0-.427.178.619.619,0,0,0-.166.439v15.4a.568.568,0,0,0,.178.415.566.566,0,0,0,.415.178m3.869-3.56v-9.493h2.254a3.2,3.2,0,0,1,2.267.724,3.088,3.088,0,0,1,.818,2.243q.048.665.048,1.756t-.048,1.78a3.271,3.271,0,0,1-.759,2.278,3.009,3.009,0,0,1-2.207.712Z" fill="#fff"/>
      </g>
      <g id="Group_102" data-name="Group 102" transform="translate(73.579 -5.017)">
        <path id="Path_85" data-name="Path 85" d="M0,0A.979.979,0,0,0,1-1V-4.678a.979.979,0,0,0-1-1H-72.579a.979.979,0,0,0-1,1V-1a.979.979,0,0,0,1,1Z" fill="#fff"/>
      </g>
      <g id="Group_103" data-name="Group 103" transform="translate(320.932 -33.077)">
        <path id="Path_86" data-name="Path 86" d="M0,0A.979.979,0,0,0,1-1V-4.678a.979.979,0,0,0-1-1H-173.048a.979.979,0,0,0-1,1V-1a.979.979,0,0,0,1,1Z" fill="#fff"/>
      </g>
    </g>
  </g>
</svg>
