<?xml version="1.0" encoding="utf-8"?>
<!-- Generator: Adobe Illustrator 23.0.3, SVG Export Plug-In . SVG Version: 6.00 Build 0)  -->
<svg version="1.1" id="Layer_1" xmlns="http://www.w3.org/2000/svg" xmlns:xlink="http://www.w3.org/1999/xlink" x="0px" y="0px"
	 viewBox="0 0 771.38 42.66" style="enable-background:new 0 0 771.38 42.66;" xml:space="preserve">
<style type="text/css">
	.st0{fill:#FFFFFF;}
</style>
<g id="Gruppe_279" transform="translate(0 67.68)">
	<g>
		<g id="Gruppe_270" transform="translate(0 -67.68)">
			<g id="Gruppe_269" transform="translate(0 0)">
				<path id="Pfad_168" class="st0" d="M18.47,42.66c3.23,0.05,6.44-0.53,9.44-1.72c2.62-1.02,4.9-2.74,6.6-4.97
					c1.64-2.23,2.53-4.93,2.55-7.7c0.01-0.34-0.13-0.66-0.38-0.89c-0.25-0.23-0.58-0.36-0.92-0.35h-8.41
					c-0.44-0.03-0.88,0.08-1.24,0.33c-0.34,0.33-0.57,0.75-0.65,1.21c-0.32,1.6-1.22,3.03-2.52,4.03c-1.34,0.84-2.89,1.25-4.47,1.18
					c-4.46,0-6.77-2.49-6.93-7.46c-0.04-1.14-0.06-2.82-0.06-5.03c0-2.21,0.02-3.85,0.06-4.91c0.16-4.97,2.47-7.46,6.93-7.46
					c1.57-0.08,3.13,0.33,4.47,1.15c1.29,1.02,2.18,2.45,2.52,4.06c0.12,0.46,0.35,0.88,0.68,1.21c0.35,0.25,0.78,0.36,1.21,0.33
					h8.41c0.34,0.01,0.67-0.12,0.92-0.35c0.25-0.23,0.39-0.55,0.38-0.89c-0.02-2.77-0.91-5.47-2.55-7.7
					c-1.7-2.23-3.98-3.95-6.6-4.97c-3-1.19-6.21-1.77-9.44-1.72c-5.57,0-9.98,1.39-13.23,4.17c-3.26,2.78-4.98,6.74-5.18,11.87
					C0.02,17.17,0,18.95,0,21.4c0,2.41,0.02,4.14,0.06,5.21c0.2,5.25,1.91,9.24,5.12,11.96C8.4,41.29,12.83,42.65,18.47,42.66
					 M46.77,42.06h7.7c0.88,0.04,1.69-0.48,2.01-1.3l2.13-5.74h15.51l2.13,5.74c0.32,0.82,1.13,1.34,2.01,1.3h7.7
					c0.33,0,0.64-0.14,0.86-0.39c0.24-0.22,0.38-0.53,0.39-0.86c0.01-0.18-0.01-0.36-0.06-0.53L73.36,2.33
					c-0.28-1.06-1.27-1.78-2.37-1.72h-9.24c-1.1-0.06-2.09,0.65-2.37,1.72l-13.8,37.95c-0.05,0.17-0.07,0.35-0.06,0.53
					c0,0.33,0.14,0.64,0.38,0.86C46.13,41.92,46.44,42.06,46.77,42.06 M66.37,11.04l5.27,15.1H61.1L66.37,11.04z M113.26,42.66
					c3.19,0.06,6.36-0.48,9.35-1.57c2.51-0.89,4.72-2.46,6.39-4.53c1.55-2,2.36-4.46,2.31-6.99c0.08-2.13-0.46-4.24-1.57-6.07
					c-1.21-1.74-2.9-3.09-4.85-3.91c-2.84-1.19-5.81-2.04-8.85-2.52c-2.29-0.37-4.52-1.04-6.63-1.98c-1.07-0.47-1.76-1.53-1.78-2.69
					c-0.05-1.05,0.47-2.05,1.36-2.6c1.17-0.66,2.51-0.97,3.85-0.89c1.28-0.04,2.54,0.25,3.67,0.86c0.86,0.43,1.52,1.19,1.84,2.1
					c0.43,0.69,1.2,1.1,2.01,1.07h8.29c0.34,0.01,0.66-0.13,0.89-0.38c0.23-0.25,0.36-0.58,0.35-0.92c-0.16-1.95-0.92-3.8-2.16-5.3
					c-1.56-1.95-3.57-3.5-5.86-4.5c-2.84-1.26-5.92-1.88-9.03-1.81c-2.99-0.06-5.96,0.48-8.73,1.6c-2.31,0.92-4.32,2.47-5.8,4.47
					c-1.36,1.91-2.08,4.2-2.04,6.54c0,3.59,1.18,6.36,3.55,8.29c2.37,1.93,5.94,3.37,10.72,4.32c2.45,0.51,4.32,0.98,5.62,1.39
					c1.03,0.28,2,0.76,2.84,1.42c0.58,0.52,0.91,1.26,0.89,2.04c0,1.15-0.67,2.2-1.72,2.69c-1.53,0.73-3.22,1.07-4.91,0.98
					c-1.51,0.07-3-0.25-4.35-0.92c-1.01-0.53-1.84-1.35-2.4-2.34c-0.28-0.33-0.61-0.61-0.98-0.83c-0.36-0.17-0.76-0.25-1.15-0.24
					h-7.87c-0.34-0.01-0.67,0.12-0.92,0.35c-0.25,0.23-0.39,0.55-0.39,0.89c0.09,2.16,0.85,4.23,2.19,5.92
					c1.6,1.98,3.71,3.49,6.1,4.38C106.61,42.18,109.93,42.74,113.26,42.66 M145,42.06h28.42c0.41,0.01,0.8-0.14,1.1-0.41
					c0.3-0.27,0.46-0.66,0.44-1.07v-5.86c0.01-0.41-0.15-0.81-0.44-1.1c-0.29-0.29-0.69-0.45-1.1-0.44h-19.18v-7.7h17.41
					c0.41,0.01,0.81-0.15,1.1-0.44c0.29-0.29,0.45-0.69,0.44-1.1v-5.39c0.01-0.41-0.15-0.81-0.44-1.1c-0.29-0.29-0.69-0.45-1.1-0.44
					h-17.41V9.48h18.71c0.41,0.01,0.8-0.14,1.1-0.41c0.3-0.27,0.46-0.66,0.44-1.07V2.14c0.01-0.41-0.15-0.81-0.44-1.1
					c-0.29-0.29-0.69-0.45-1.1-0.44H145c-0.4-0.01-0.79,0.15-1.07,0.44c-0.28,0.3-0.43,0.69-0.41,1.1v38.43
					c0,0.39,0.16,0.77,0.44,1.04c0.27,0.28,0.64,0.45,1.04,0.44 M203.73,42.64c3.19,0.06,6.36-0.48,9.35-1.57
					c2.51-0.89,4.72-2.46,6.39-4.53c1.55-2,2.36-4.46,2.31-6.99c0.08-2.13-0.46-4.24-1.57-6.07c-1.21-1.74-2.9-3.09-4.85-3.91
					c-2.84-1.19-5.81-2.04-8.85-2.52c-2.29-0.37-4.52-1.04-6.63-1.98c-1.07-0.47-1.76-1.53-1.78-2.69c-0.05-1.05,0.47-2.05,1.36-2.6
					c1.17-0.66,2.51-0.97,3.85-0.89c1.28-0.04,2.54,0.25,3.67,0.86c0.87,0.43,1.52,1.19,1.84,2.1c0.43,0.69,1.2,1.1,2.01,1.07h8.29
					c0.34,0.01,0.66-0.13,0.89-0.38c0.23-0.25,0.36-0.58,0.35-0.92c-0.16-1.95-0.92-3.8-2.16-5.3c-1.56-1.95-3.57-3.5-5.86-4.5
					c-2.84-1.26-5.92-1.88-9.03-1.81c-2.99-0.06-5.96,0.48-8.73,1.6c-2.31,0.92-4.32,2.47-5.8,4.47c-1.36,1.91-2.08,4.2-2.04,6.54
					c0,3.59,1.18,6.35,3.55,8.29c2.37,1.93,5.94,3.37,10.72,4.32c2.45,0.51,4.32,0.98,5.62,1.39c1.03,0.28,2,0.76,2.84,1.42
					c0.58,0.52,0.91,1.26,0.89,2.04c0,1.15-0.67,2.2-1.72,2.69c-1.53,0.73-3.22,1.07-4.91,0.98c-1.51,0.07-3-0.25-4.35-0.92
					c-1.01-0.53-1.84-1.35-2.4-2.34c-0.28-0.33-0.61-0.61-0.98-0.83c-0.36-0.17-0.76-0.25-1.15-0.24h-7.88
					c-0.34-0.01-0.67,0.12-0.92,0.35c-0.25,0.23-0.39,0.55-0.38,0.89c0.09,2.16,0.85,4.23,2.19,5.92c1.6,1.98,3.71,3.49,6.1,4.38
					C197.08,42.16,200.4,42.72,203.73,42.64"/>
			</g>
		</g>
	</g>
</g>
<path id="Pfad_170" class="st0" d="M260.52,28.91H769.5c1.04,0,1.88-0.84,1.88-1.88v-9.47c0-1.04-0.84-1.88-1.88-1.88H260.52
	c-1.04,0-1.88,0.84-1.88,1.88v9.47C258.64,28.07,259.48,28.91,260.52,28.91z"/>
</svg>
