<svg xmlns="http://www.w3.org/2000/svg" xmlns:xlink="http://www.w3.org/1999/xlink" width="242.41" height="40.944" viewBox="0 0 242.41 40.944">
  <defs>
    <style>
      .cls-1 {
        fill: #fff;
      }

      .cls-2 {
        filter: url(#Rectangle_45);
      }

      .cls-3 {
        filter: url(#Path_187);
      }
    </style>
    <filter id="Path_187" x="0" y="0" width="113.25" height="40.944" filterUnits="userSpaceOnUse">
      <feOffset dy="3" input="SourceAlpha"/>
      <feGaussianBlur stdDeviation="3" result="blur"/>
      <feFlood flood-color="#707070"/>
      <feComposite operator="in" in2="blur"/>
      <feComposite in="SourceGraphic"/>
    </filter>
    <filter id="Rectangle_45" x="101.41" y="8.021" width="141" height="26" filterUnits="userSpaceOnUse">
      <feOffset dy="3" input="SourceAlpha"/>
      <feGaussianBlur stdDeviation="3" result="blur-2"/>
      <feFlood flood-color="#707070"/>
      <feComposite operator="in" in2="blur-2"/>
      <feComposite in="SourceGraphic"/>
    </filter>
  </defs>
  <g id="Group_281" data-name="Group 281" transform="translate(-64.59 -36.7)">
    <g class="cls-3" transform="matrix(1, 0, 0, 1, 64.59, 36.7)">
      <path id="Path_187-2" data-name="Path 187" class="cls-1" d="M10.44,1.644A8.668,8.668,0,0,1,4.035-.619,9.109,9.109,0,0,1,1.62-6.992q-.03-.86-.03-2.8,0-1.976.03-2.868a9.054,9.054,0,0,1,2.445-6.357A8.653,8.653,0,0,1,10.44-21.3a10.439,10.439,0,0,1,4.65.972,7.445,7.445,0,0,1,3.06,2.645,7.2,7.2,0,0,1,1.14,3.776v.064a.556.556,0,0,1-.2.43.635.635,0,0,1-.435.175H15.81a.794.794,0,0,1-.54-.159,1.248,1.248,0,0,1-.3-.605,4.7,4.7,0,0,0-1.59-2.82,4.92,4.92,0,0,0-2.97-.813q-4.32,0-4.5,5.13-.03.86-.03,2.645t.03,2.709q.18,5.13,4.5,5.13A4.919,4.919,0,0,0,13.4-2.849a4.594,4.594,0,0,0,1.575-2.8,1.033,1.033,0,0,1,.285-.605.856.856,0,0,1,.555-.159h2.85a.641.641,0,0,1,.465.191.555.555,0,0,1,.165.478,7.2,7.2,0,0,1-1.14,3.776A7.445,7.445,0,0,1,15.09.672,10.439,10.439,0,0,1,10.44,1.644Zm10.89-.319a.608.608,0,0,1-.435-.191A.642.642,0,0,1,20.7.656l.06-.287,7.23-20.554a.982.982,0,0,1,1.05-.8h3.27a1.038,1.038,0,0,1,1.05.8L40.59.369a1.024,1.024,0,0,1,.03.287.67.67,0,0,1-.18.478.56.56,0,0,1-.42.191H37.41a.861.861,0,0,1-.6-.191A.87.87,0,0,1,36.54.72L35.13-3.168H26.22L24.81.72a.87.87,0,0,1-.87.605ZM34.08-6.833l-3.42-9.847L27.27-6.833ZM50.4,1.644a11.165,11.165,0,0,1-4.59-.86A6.909,6.909,0,0,1,42.9-1.479a5.512,5.512,0,0,1-1.05-3.027.67.67,0,0,1,.18-.478.592.592,0,0,1,.45-.191h2.67a.925.925,0,0,1,.555.143,1.449,1.449,0,0,1,.375.462,3.222,3.222,0,0,0,1.38,1.816,5.169,5.169,0,0,0,2.94.733,5.644,5.644,0,0,0,3.21-.749,2.4,2.4,0,0,0,1.08-2.087,2.021,2.021,0,0,0-.555-1.466,4.475,4.475,0,0,0-1.65-.988Q51.39-7.725,49.23-8.33A12.15,12.15,0,0,1,44.055-10.7a5.407,5.407,0,0,1-1.635-4.222,5.829,5.829,0,0,1,.945-3.282,6.389,6.389,0,0,1,2.73-2.263A9.776,9.776,0,0,1,50.25-21.3a9.216,9.216,0,0,1,4.26.924,7.215,7.215,0,0,1,2.745,2.31,5.3,5.3,0,0,1,1,2.756.67.67,0,0,1-.18.478.592.592,0,0,1-.45.191H54.84a.87.87,0,0,1-.87-.605,2.575,2.575,0,0,0-1.2-1.7,4.419,4.419,0,0,0-2.52-.685,4.554,4.554,0,0,0-2.64.669,2.222,2.222,0,0,0-.96,1.944,2.206,2.206,0,0,0,.48,1.466,4.019,4.019,0,0,0,1.515,1.02,24.64,24.64,0,0,0,2.985.988,19.9,19.9,0,0,1,4.215,1.434A5.622,5.622,0,0,1,58.17-8.107a5.786,5.786,0,0,1,.75,3.091,6.017,6.017,0,0,1-1.065,3.553,6.654,6.654,0,0,1-3,2.31A11.628,11.628,0,0,1,50.4,1.644Zm12.69-.319a.674.674,0,0,1-.51-.223A.761.761,0,0,1,62.37.56V-20.185a.84.84,0,0,1,.195-.574.662.662,0,0,1,.525-.223h13.2a.709.709,0,0,1,.54.223.8.8,0,0,1,.21.574v2.1a.748.748,0,0,1-.21.558.736.736,0,0,1-.54.207H66.42v5.64h9.21a.736.736,0,0,1,.54.207.748.748,0,0,1,.21.558v1.976a.748.748,0,0,1-.21.558.736.736,0,0,1-.54.207H66.42V-2.34H76.53a.709.709,0,0,1,.54.223.8.8,0,0,1,.21.574V.56a.748.748,0,0,1-.21.558.736.736,0,0,1-.54.207Zm25.23.319a11.165,11.165,0,0,1-4.59-.86,6.909,6.909,0,0,1-2.91-2.263,5.512,5.512,0,0,1-1.05-3.027.67.67,0,0,1,.18-.478.592.592,0,0,1,.45-.191h2.67a.925.925,0,0,1,.555.143A1.45,1.45,0,0,1,84-4.57a3.222,3.222,0,0,0,1.38,1.816,5.169,5.169,0,0,0,2.94.733,5.644,5.644,0,0,0,3.21-.749,2.4,2.4,0,0,0,1.08-2.087,2.021,2.021,0,0,0-.555-1.466,4.475,4.475,0,0,0-1.65-.988q-1.1-.414-3.255-1.02A12.15,12.15,0,0,1,81.975-10.7a5.407,5.407,0,0,1-1.635-4.222,5.829,5.829,0,0,1,.945-3.282,6.389,6.389,0,0,1,2.73-2.263A9.776,9.776,0,0,1,88.17-21.3a9.216,9.216,0,0,1,4.26.924,7.215,7.215,0,0,1,2.745,2.31,5.3,5.3,0,0,1,1,2.756.67.67,0,0,1-.18.478.592.592,0,0,1-.45.191H92.76a.87.87,0,0,1-.87-.605,2.575,2.575,0,0,0-1.2-1.7,4.419,4.419,0,0,0-2.52-.685,4.554,4.554,0,0,0-2.64.669,2.222,2.222,0,0,0-.96,1.944,2.207,2.207,0,0,0,.48,1.466,4.019,4.019,0,0,0,1.515,1.02,24.64,24.64,0,0,0,2.985.988,19.9,19.9,0,0,1,4.215,1.434A5.622,5.622,0,0,1,96.09-8.107a5.786,5.786,0,0,1,.75,3.091,6.017,6.017,0,0,1-1.065,3.553,6.654,6.654,0,0,1-3,2.31A11.628,11.628,0,0,1,88.32,1.644Z" transform="translate(7.41 27.3)"/>
    </g>
    <g class="cls-2" transform="matrix(1, 0, 0, 1, 64.59, 36.7)">
      <rect id="Rectangle_45-2" data-name="Rectangle 45" class="cls-1" width="123" height="8" transform="translate(110.41 14.02)"/>
    </g>
  </g>
</svg>
