<svg xmlns="http://www.w3.org/2000/svg" xmlns:xlink="http://www.w3.org/1999/xlink" width="771.383" height="42.629" viewBox="0 0 771.383 42.629">
  <defs>
    <clipPath id="clip-path">
      <path id="Path_169" data-name="Path 169" d="M0-25.051H771.383V-67.68H0Z" transform="translate(0 67.68)" fill="none"/>
    </clipPath>
  </defs>
  <g id="Group_271" data-name="Group 271" transform="translate(0 67.68)">
    <g id="Group_270" data-name="Group 270" transform="translate(0 -67.68)" clip-path="url(#clip-path)">
      <g id="Group_269" data-name="Group 269" transform="translate(0 0)">
        <path id="Path_168" data-name="Path 168" d="M-10.855-25.051a24.636,24.636,0,0,0,9.444-1.717,15.251,15.251,0,0,0,6.6-4.973,13.133,13.133,0,0,0,2.546-7.7,1.159,1.159,0,0,0-.385-.888,1.307,1.307,0,0,0-.918-.355H-1.974a1.992,1.992,0,0,0-1.243.326,2.247,2.247,0,0,0-.651,1.214,6.764,6.764,0,0,1-2.516,4.026,7.8,7.8,0,0,1-4.47,1.184q-6.691,0-6.927-7.46-.06-1.717-.059-5.033t.059-4.914q.236-7.46,6.927-7.46a7.781,7.781,0,0,1,4.47,1.155,7.036,7.036,0,0,1,2.516,4.056,2.713,2.713,0,0,0,.681,1.214,1.857,1.857,0,0,0,1.214.326H6.433a1.307,1.307,0,0,0,.918-.355,1.159,1.159,0,0,0,.385-.888,13.134,13.134,0,0,0-2.546-7.7,15.261,15.261,0,0,0-6.6-4.973,24.636,24.636,0,0,0-9.444-1.717q-8.348,0-13.233,4.174t-5.181,11.871q-.06,1.658-.059,5.329,0,3.612.059,5.21.3,7.875,5.121,11.96t13.292,4.085m28.3-.592h7.7a2.055,2.055,0,0,0,2.013-1.3l2.131-5.743H44.8l2.131,5.743a2.054,2.054,0,0,0,2.013,1.3h7.7a1.19,1.19,0,0,0,.859-.385,1.191,1.191,0,0,0,.385-.859,1.832,1.832,0,0,0-.059-.533l-13.8-37.952a2.313,2.313,0,0,0-2.368-1.717H32.426a2.312,2.312,0,0,0-2.368,1.717l-13.8,37.952a1.768,1.768,0,0,0-.059.533,1.184,1.184,0,0,0,.385.859,1.184,1.184,0,0,0,.859.385m19.6-31.025,5.269,15.1H31.775ZM83.937-25.051a25.978,25.978,0,0,0,9.355-1.569,14.441,14.441,0,0,0,6.394-4.529,11.024,11.024,0,0,0,2.309-6.986,10.883,10.883,0,0,0-1.569-6.069,11.166,11.166,0,0,0-4.855-3.908,37.935,37.935,0,0,0-8.852-2.516,26.866,26.866,0,0,1-6.631-1.983,2.983,2.983,0,0,1-1.776-2.694,2.912,2.912,0,0,1,1.362-2.605,7.026,7.026,0,0,1,3.848-.888,7.226,7.226,0,0,1,3.671.859,3.658,3.658,0,0,1,1.835,2.1,2.28,2.28,0,0,0,2.013,1.066H99.33a1.157,1.157,0,0,0,.888-.385,1.306,1.306,0,0,0,.355-.918,9.55,9.55,0,0,0-2.161-5.3,15.465,15.465,0,0,0-5.862-4.5,20.945,20.945,0,0,0-9.029-1.806,22.17,22.17,0,0,0-8.733,1.6,13.278,13.278,0,0,0-5.8,4.47,11.008,11.008,0,0,0-2.043,6.542q0,5.388,3.552,8.289t10.717,4.322q3.67.77,5.625,1.391a7.876,7.876,0,0,1,2.842,1.421,2.625,2.625,0,0,1,.888,2.043,2.991,2.991,0,0,1-1.717,2.694,10.072,10.072,0,0,1-4.914.977,8.847,8.847,0,0,1-4.352-.918,5.942,5.942,0,0,1-2.4-2.339,3.834,3.834,0,0,0-.977-.829,2.454,2.454,0,0,0-1.155-.237H67.181a1.305,1.305,0,0,0-.918.355,1.155,1.155,0,0,0-.385.888,10.212,10.212,0,0,0,2.191,5.921,14.236,14.236,0,0,0,6.1,4.381,25.661,25.661,0,0,0,9.769,1.658m31.734-.592h28.42a1.544,1.544,0,0,0,1.1-.414,1.391,1.391,0,0,0,.444-1.066v-5.862a1.489,1.489,0,0,0-.444-1.1,1.489,1.489,0,0,0-1.1-.444H124.907v-7.7h17.407a1.489,1.489,0,0,0,1.1-.444,1.488,1.488,0,0,0,.444-1.1v-5.388a1.489,1.489,0,0,0-.444-1.1,1.489,1.489,0,0,0-1.1-.444H124.907v-7.519h18.71a1.544,1.544,0,0,0,1.1-.414,1.391,1.391,0,0,0,.444-1.066v-5.862a1.489,1.489,0,0,0-.444-1.1,1.489,1.489,0,0,0-1.1-.444H115.67a1.391,1.391,0,0,0-1.066.444,1.544,1.544,0,0,0-.414,1.1v38.426a1.42,1.42,0,0,0,.444,1.036,1.42,1.42,0,0,0,1.036.444m58.734.592a25.976,25.976,0,0,0,9.355-1.569,14.441,14.441,0,0,0,6.394-4.529,11.024,11.024,0,0,0,2.309-6.986,10.878,10.878,0,0,0-1.569-6.069,11.163,11.163,0,0,0-4.855-3.908,37.926,37.926,0,0,0-8.852-2.516,26.875,26.875,0,0,1-6.631-1.983,2.983,2.983,0,0,1-1.776-2.694,2.913,2.913,0,0,1,1.362-2.605,7.028,7.028,0,0,1,3.849-.888,7.223,7.223,0,0,1,3.671.859,3.656,3.656,0,0,1,1.835,2.1,2.28,2.28,0,0,0,2.013,1.066H189.8a1.157,1.157,0,0,0,.888-.385,1.306,1.306,0,0,0,.355-.918,9.546,9.546,0,0,0-2.161-5.3,15.465,15.465,0,0,0-5.862-4.5,20.943,20.943,0,0,0-9.029-1.806,22.172,22.172,0,0,0-8.733,1.6,13.281,13.281,0,0,0-5.8,4.47,11.008,11.008,0,0,0-2.043,6.542q0,5.388,3.552,8.289t10.717,4.322q3.671.77,5.625,1.391a7.876,7.876,0,0,1,2.842,1.421,2.625,2.625,0,0,1,.888,2.043,2.99,2.99,0,0,1-1.717,2.694,10.07,10.07,0,0,1-4.914.977,8.85,8.85,0,0,1-4.352-.918,5.95,5.95,0,0,1-2.4-2.339,3.834,3.834,0,0,0-.977-.829,2.454,2.454,0,0,0-1.155-.237h-7.875a1.306,1.306,0,0,0-.918.355,1.157,1.157,0,0,0-.385.888,10.221,10.221,0,0,0,2.191,5.921,14.243,14.243,0,0,0,6.1,4.381,25.666,25.666,0,0,0,9.769,1.658" transform="translate(29.328 67.68)" fill="#799fa7"/>
      </g>
    </g>
    <path id="Path_170" data-name="Path 170" d="M429.676-29.6H930.42V-42.83H429.676Z" transform="translate(-159.037 -9.198)" fill="#799fa7"/>
  </g>
</svg>
