<?xml version="1.0" encoding="utf-8"?>
<!-- Generator: Adobe Illustrator 23.0.4, SVG Export Plug-In . SVG Version: 6.00 Build 0)  -->
<svg version="1.1" id="Layer_1" xmlns="http://www.w3.org/2000/svg" xmlns:xlink="http://www.w3.org/1999/xlink" x="0px" y="0px"
	 viewBox="0 0 1386.2 75" style="enable-background:new 0 0 1386.2 75;" xml:space="preserve">
<style type="text/css">
	.st0{fill:#FFFFFF;}
</style>
<g>
	<g id="Gruppe_279" transform="translate(0 67.68)">
		<g>
			<g id="Gruppe_270" transform="translate(0 -67.68)">
				<g id="Gruppe_269" transform="translate(0 0)">
					<path id="Pfad_168" class="st0" d="M32.5,75c5.7,0.1,11.3-0.9,16.6-3c4.6-1.8,8.6-4.8,11.6-8.7c2.9-3.9,4.4-8.7,4.5-13.5
						c0-0.6-0.2-1.2-0.7-1.6c-0.4-0.4-1-0.6-1.6-0.6H48.1c-0.8-0.1-1.5,0.1-2.2,0.6c-0.6,0.6-1,1.3-1.1,2.1
						c-0.6,2.8-2.1,5.3-4.4,7.1c-2.4,1.5-5.1,2.2-7.9,2.1c-7.8,0-11.9-4.4-12.2-13.1c-0.1-2-0.1-5-0.1-8.8s0-6.8,0.1-8.6
						c0.3-8.7,4.3-13.1,12.2-13.1c2.8-0.1,5.5,0.6,7.9,2c2.3,1.8,3.8,4.3,4.4,7.1c0.2,0.8,0.6,1.5,1.2,2.1c0.6,0.4,1.4,0.6,2.1,0.6
						h14.8c0.6,0,1.2-0.2,1.6-0.6c0.4-0.4,0.7-1,0.7-1.6c0-4.9-1.6-9.6-4.5-13.5c-3-3.9-7-6.9-11.6-8.7C43.8,1,38.2,0,32.5,0.1
						c-9.8,0-17.5,2.4-23.3,7.3c-5.7,4.9-8.8,11.9-9.1,20.9C0,30.2,0,33.3,0,37.6c0,4.2,0,7.3,0.1,9.2c0.4,9.2,3.4,16.2,9,21
						C14.8,72.6,22.6,75,32.5,75 M82.2,73.9h13.5c1.5,0.1,3-0.8,3.5-2.3l3.7-10.1h27.3l3.7,10.1c0.6,1.4,2,2.4,3.5,2.3h13.5
						c0.6,0,1.1-0.2,1.5-0.7c0.4-0.4,0.7-0.9,0.7-1.5c0-0.3,0-0.6-0.1-0.9L129,4.1c-0.5-1.9-2.2-3.1-4.2-3h-16.2
						c-1.9-0.1-3.7,1.1-4.2,3L80.1,70.8c-0.1,0.3-0.1,0.6-0.1,0.9c0,0.6,0.2,1.1,0.7,1.5C81.1,73.7,81.7,73.9,82.2,73.9 M116.7,19.4
						L126,46h-18.5L116.7,19.4z M199.1,75c5.6,0.1,11.2-0.8,16.4-2.8c4.4-1.6,8.3-4.3,11.2-8c2.7-3.5,4.1-7.8,4.1-12.3
						c0.1-3.7-0.8-7.5-2.8-10.7c-2.1-3.1-5.1-5.4-8.5-6.9c-5-2.1-10.2-3.6-15.6-4.4c-4-0.7-7.9-1.8-11.7-3.5
						c-1.9-0.8-3.1-2.7-3.1-4.7c-0.1-1.8,0.8-3.6,2.4-4.6c2.1-1.2,4.4-1.7,6.8-1.6c2.3-0.1,4.5,0.4,6.5,1.5c1.5,0.8,2.7,2.1,3.2,3.7
						c0.8,1.2,2.1,1.9,3.5,1.9h14.6c0.6,0,1.2-0.2,1.6-0.7c0.4-0.4,0.6-1,0.6-1.6c-0.3-3.4-1.6-6.7-3.8-9.3
						c-2.7-3.4-6.3-6.2-10.3-7.9c-5-2.2-10.4-3.3-15.9-3.2c-5.3-0.1-10.5,0.8-15.3,2.8c-4.1,1.6-7.6,4.3-10.2,7.9
						c-2.4,3.4-3.7,7.4-3.6,11.5c0,6.3,2.1,11.2,6.2,14.6s10.4,5.9,18.8,7.6c4.3,0.9,7.6,1.7,9.9,2.4c1.8,0.5,3.5,1.3,5,2.5
						c1,0.9,1.6,2.2,1.6,3.6c0,2-1.2,3.9-3,4.7c-2.7,1.3-5.7,1.9-8.6,1.7c-2.7,0.1-5.3-0.4-7.6-1.6c-1.8-0.9-3.2-2.4-4.2-4.1
						c-0.5-0.6-1.1-1.1-1.7-1.5c-0.6-0.3-1.3-0.4-2-0.4h-13.8c-0.6,0-1.2,0.2-1.6,0.6c-0.4,0.4-0.7,1-0.7,1.6
						c0.2,3.8,1.5,7.4,3.9,10.4c2.8,3.5,6.5,6.1,10.7,7.7C187.5,74.2,193.3,75.1,199.1,75 M255,73.9h50c0.7,0,1.4-0.2,1.9-0.7
						c0.5-0.5,0.8-1.2,0.8-1.9V61c0-0.7-0.3-1.4-0.8-1.9c-0.5-0.5-1.2-0.8-1.9-0.8h-33.7V44.8h30.6c0.7,0,1.4-0.3,1.9-0.8
						c0.5-0.5,0.8-1.2,0.8-1.9v-9.5c0-0.7-0.3-1.4-0.8-1.9c-0.5-0.5-1.2-0.8-1.9-0.8h-30.6V16.7h32.9c0.7,0,1.4-0.2,1.9-0.7
						c0.5-0.5,0.8-1.2,0.8-1.9V3.8c0-0.7-0.3-1.4-0.8-1.9c-0.5-0.5-1.2-0.8-1.9-0.8H255c-0.7,0-1.4,0.3-1.9,0.8
						c-0.5,0.5-0.8,1.2-0.7,1.9v67.6c0,0.7,0.3,1.4,0.8,1.8C253.6,73.6,254.3,73.9,255,73.9 M358.2,75c5.6,0.1,11.2-0.8,16.4-2.8
						c4.4-1.6,8.3-4.3,11.2-8c2.7-3.5,4.1-7.8,4.1-12.3c0.1-3.7-0.8-7.5-2.8-10.7c-2.1-3.1-5.1-5.4-8.5-6.9
						c-5-2.1-10.2-3.6-15.6-4.4c-4-0.7-7.9-1.8-11.7-3.5c-1.9-0.8-3.1-2.7-3.1-4.7c-0.1-1.8,0.8-3.6,2.4-4.6
						c2.1-1.2,4.4-1.7,6.8-1.6c2.3-0.1,4.5,0.4,6.5,1.5c1.5,0.8,2.7,2.1,3.2,3.7c0.8,1.2,2.1,1.9,3.5,1.9h14.6
						c0.6,0,1.2-0.2,1.6-0.7c0.4-0.4,0.6-1,0.6-1.6c-0.3-3.4-1.6-6.7-3.8-9.3c-2.7-3.4-6.3-6.2-10.3-7.9c-5-2.2-10.4-3.3-15.9-3.2
						c-5.3-0.1-10.5,0.8-15.3,2.8c-4.1,1.6-7.6,4.3-10.2,7.9c-2.4,3.4-3.7,7.4-3.6,11.5c0,6.3,2.1,11.2,6.2,14.6
						c4.2,3.4,10.4,5.9,18.8,7.6c4.3,0.9,7.6,1.7,9.9,2.4c1.8,0.5,3.5,1.3,5,2.5c1,0.9,1.6,2.2,1.6,3.6c0,2-1.2,3.9-3,4.7
						c-2.7,1.3-5.7,1.9-8.6,1.7c-2.7,0.1-5.3-0.4-7.6-1.6c-1.8-0.9-3.2-2.4-4.2-4.1c-0.5-0.6-1.1-1.1-1.7-1.5
						c-0.6-0.3-1.3-0.4-2-0.4h-13.9c-0.6,0-1.2,0.2-1.6,0.6c-0.4,0.4-0.7,1-0.7,1.6c0.2,3.8,1.5,7.4,3.9,10.4
						c2.8,3.5,6.5,6.1,10.7,7.7C346.5,74.1,352.4,75.1,358.2,75"/>
				</g>
			</g>
		</g>
	</g>
	<path id="Pfad_170" class="st0" d="M443.5,50.8h939.4c1.8,0,3.3-1.5,3.3-3.3V30.9c0-1.8-1.5-3.3-3.3-3.3H443.5
		c-1.8,0-3.3,1.5-3.3,3.3v16.7C440.2,49.3,441.7,50.8,443.5,50.8z"/>
</g>
</svg>
