<?xml version="1.0" encoding="utf-8"?>
<!-- Generator: Adobe Illustrator 23.0.4, SVG Export Plug-In . SVG Version: 6.00 Build 0)  -->
<svg version="1.1" id="Layer_1" xmlns="http://www.w3.org/2000/svg" xmlns:xlink="http://www.w3.org/1999/xlink" x="0px" y="0px"
	 viewBox="0 0 1391.9 75.2" style="enable-background:new 0 0 1391.9 75.2;" xml:space="preserve">
<style type="text/css">
	.st0{fill:#FFFFFF;}
</style>
<g id="Gruppe_278" transform="translate(-13 -42.671)">
	<g id="Gruppe_260" transform="translate(13 42.671)">
		<path id="Pfad_121" class="st0" d="M2.6,74.1h15c0.7,0,1.4-0.3,1.9-0.8c0.5-0.5,0.7-1.1,0.7-1.8V49h11.9c7.6,0.4,15-1.6,21.3-5.9
			c5.3-4.3,8.2-11,7.7-17.8c0.4-6.9-2.4-13.6-7.7-18.1c-6.2-4.4-13.7-6.6-21.3-6.2H2.6c-0.7,0-1.4,0.3-1.9,0.8C0.2,2.4,0,3.1,0,3.8
			v67.7c0,0.7,0.3,1.4,0.8,1.8C1.3,73.9,1.9,74.1,2.6,74.1 M19.9,34.1v-18h11.7c2.6-0.2,5.1,0.7,6.9,2.5c1.6,1.8,2.4,4.2,2.2,6.6
			c0.2,2.5-0.7,4.9-2.5,6.6c-1.9,1.6-4.3,2.4-6.7,2.2H19.9z M80.8,74.1h48.5c0.7,0,1.4-0.2,1.9-0.7c0.5-0.5,0.8-1.2,0.8-1.9V60.5
			c0-0.7-0.3-1.4-0.8-1.9c-0.5-0.5-1.2-0.8-1.9-0.8H98V3.7c0-0.7-0.2-1.4-0.7-1.9c-0.5-0.5-1.2-0.8-1.9-0.7H80.8
			c-0.7,0-1.3,0.3-1.8,0.7c-0.5,0.5-0.8,1.2-0.8,1.9v67.8c0,0.7,0.3,1.4,0.8,1.8C79.4,73.9,80.1,74.1,80.8,74.1 M144,74.1h13.6
			c1.6,0.1,3-0.8,3.5-2.3l3.8-10.1h27.3l3.8,10.1c0.6,1.4,2,2.4,3.5,2.3h13.6c0.6,0,1.1-0.3,1.5-0.7c0.4-0.4,0.7-0.9,0.7-1.5
			c0-0.3,0-0.6-0.1-0.9L190.9,4.1c-0.5-1.9-2.2-3.1-4.2-3h-16.3c-1.9-0.1-3.7,1.1-4.2,3L142,71c-0.1,0.3-0.1,0.6-0.1,0.9
			c0,0.6,0.3,1.1,0.7,1.5C142.9,73.9,143.5,74.1,144,74.1 M178.6,19.5l9.3,26.6h-18.6L178.6,19.5z M241.9,74.1h14.5
			c0.7,0,1.4-0.2,1.9-0.7c0.5-0.5,0.8-1.2,0.8-1.9V18.1h18.4c0.7,0,1.4-0.2,1.9-0.7c0.5-0.5,0.8-1.2,0.8-1.9V3.8
			c0-0.7-0.3-1.4-0.8-1.9c-0.5-0.5-1.2-0.8-1.9-0.8h-56.7c-0.7,0-1.4,0.3-1.9,0.8c-0.5,0.5-0.8,1.2-0.8,1.9v11.7
			c0,0.7,0.3,1.4,0.8,1.9c0.5,0.5,1.2,0.8,1.9,0.7h18.4v53.4c0,0.7,0.3,1.4,0.8,1.9C240.5,73.9,241.2,74.2,241.9,74.1 M299.4,74.1
			h14c0.7,0,1.4-0.3,1.9-0.8c0.5-0.5,0.7-1.1,0.7-1.8V48.4h29.8c0.7,0,1.4-0.2,1.9-0.7c0.5-0.5,0.8-1.2,0.8-1.9v-11
			c0-0.7-0.3-1.4-0.8-1.9c-0.5-0.5-1.2-0.8-1.9-0.8h-29.9V17.5h31.9c0.7,0,1.4-0.2,1.9-0.7c0.5-0.5,0.8-1.2,0.8-1.9V3.8
			c0-0.7-0.3-1.4-0.8-1.9c-0.5-0.5-1.2-0.8-1.9-0.8h-48.5c-0.7,0-1.4,0.3-1.9,0.8c-0.5,0.5-0.8,1.2-0.7,1.9v67.7
			c0,0.7,0.3,1.4,0.8,1.8C298,73.9,298.6,74.1,299.4,74.1 M398.6,75.2c8.4,0.5,16.7-2.1,23.3-7.2c5.9-5.4,9.2-13.2,9-21.2
			c0.1-3.9,0.2-6.9,0.2-9c0-2-0.1-5-0.2-9.1c0.2-8.1-3.1-15.8-9.1-21.2C415.3,2.3,407-0.4,398.6,0c-8.4-0.4-16.7,2.2-23.3,7.5
			c-6,5.4-9.3,13.2-9.1,21.2c-0.1,2-0.1,5-0.1,9.1c0,4,0,7,0.1,9c-0.2,8,3.1,15.8,9.1,21.2C381.9,73.1,390.2,75.7,398.6,75.2
			 M398.6,59.5c-3.3,0.2-6.4-1-8.8-3.3c-2.4-2.8-3.6-6.4-3.4-10.1c-0.1-2-0.1-4.9-0.1-8.7c0-3.7,0-6.5,0.1-8.5
			c-0.2-3.7,1.1-7.3,3.4-10.1c2.3-2.3,5.5-3.5,8.8-3.3c3.2-0.2,6.4,1,8.7,3.3c2.4,2.8,3.6,6.4,3.4,10.1c0.1,3.9,0.2,6.7,0.2,8.5
			s-0.1,4.6-0.2,8.7c0.2,3.7-1.1,7.3-3.4,10.1C405,58.5,401.9,59.7,398.6,59.5 M452.9,74.1h14.3c0.7,0,1.4-0.2,1.9-0.7
			c0.5-0.5,0.8-1.2,0.8-1.9V48.7h10l11.5,22.6c0.7,1.8,2.4,2.9,4.3,2.8h14.7c0.6,0,1.2-0.2,1.6-0.7c0.4-0.4,0.6-0.9,0.6-1.5
			c0-0.4-0.1-0.8-0.3-1.1l-14.1-25.5c3.8-1.7,7-4.5,9.3-7.9c2.3-3.7,3.5-8,3.4-12.4c0.4-6.8-2.5-13.3-7.8-17.6
			c-6.2-4.5-13.9-6.7-21.6-6.3h-28.7c-0.7,0-1.4,0.3-1.9,0.8c-0.5,0.5-0.8,1.2-0.7,1.9v67.7c0,0.7,0.3,1.4,0.8,1.8
			C451.5,73.9,452.2,74.1,452.9,74.1 M469.9,33.3V16.1h11.6c2.5-0.2,5,0.7,6.8,2.4c1.6,1.7,2.5,4,2.3,6.4c0.1,2.3-0.7,4.6-2.3,6.2
			c-1.9,1.6-4.4,2.4-6.8,2.2H469.9z M532.8,74.1H546c0.7,0,1.4-0.2,1.9-0.7c0.5-0.5,0.8-1.2,0.8-1.9v-38l11.2,20.7
			c0.7,1.4,2.1,2.3,3.7,2.4h5.6c1.6,0,3-1,3.7-2.4l11.3-20.7v38c0,0.7,0.3,1.4,0.8,1.8c0.5,0.5,1.1,0.8,1.8,0.8H600
			c0.7,0,1.4-0.2,1.9-0.7c0.5-0.5,0.8-1.2,0.8-1.9V3.8c0-0.7-0.3-1.4-0.8-1.9c-0.5-0.5-1.2-0.8-1.9-0.8h-11.8
			c-1.6-0.1-3.1,0.8-3.8,2.3l-18,32.2l-18-32.1c-0.7-1.5-2.2-2.4-3.8-2.3h-11.8c-0.7,0-1.4,0.3-1.9,0.8c-0.5,0.5-0.8,1.2-0.8,1.9
			v67.7c0,0.7,0.3,1.4,0.8,1.9C531.4,73.9,532.1,74.2,532.8,74.1 M651.8,75.2c5.6,0.1,11.2-0.8,16.5-2.8c4.4-1.6,8.3-4.3,11.3-8
			c2.7-3.5,4.2-7.9,4.1-12.3c0.1-3.8-0.8-7.5-2.8-10.7c-2.1-3.1-5.1-5.5-8.6-6.9c-5-2.1-10.2-3.6-15.6-4.4c-4-0.7-8-1.8-11.7-3.5
			c-1.9-0.8-3.1-2.7-3.1-4.7c-0.1-1.9,0.8-3.6,2.4-4.6c2.1-1.2,4.4-1.7,6.8-1.6c2.3-0.1,4.5,0.4,6.5,1.5c1.5,0.8,2.7,2.1,3.2,3.7
			c0.8,1.2,2.1,1.9,3.5,1.9H679c0.6,0,1.2-0.2,1.6-0.7c0.4-0.4,0.6-1,0.6-1.6c-0.3-3.4-1.6-6.7-3.8-9.3C674.6,7.7,671,5,667,3.2
			c-5-2.2-10.4-3.3-15.9-3.2c-5.3-0.1-10.5,0.9-15.4,2.8c-4.1,1.6-7.6,4.3-10.2,7.9c-2.4,3.4-3.7,7.4-3.6,11.5
			c-0.3,5.6,2,11,6.3,14.6c5.6,4,12.1,6.6,18.9,7.6c4.3,0.9,7.6,1.7,9.9,2.5c1.8,0.5,3.5,1.3,5,2.5c1,0.9,1.6,2.2,1.6,3.6
			c0,2-1.2,3.9-3,4.8c-2.7,1.3-5.7,1.9-8.7,1.7c-2.7,0.1-5.3-0.4-7.7-1.6c-1.8-0.9-3.2-2.4-4.2-4.1c-0.5-0.6-1.1-1.1-1.7-1.5
			c-0.6-0.3-1.3-0.4-2-0.4h-13.9c-0.6,0-1.2,0.2-1.6,0.6c-0.4,0.4-0.7,1-0.7,1.6c0.2,3.8,1.5,7.5,3.9,10.4c2.8,3.5,6.5,6.1,10.8,7.7
			C640.1,74.4,645.9,75.3,651.8,75.2"/>
	</g>
	<g id="Gruppe_261" transform="translate(207.21 49.983)">
		<path id="Pfad_122" class="st0" d="M1195.4,43.6c1.2,0,2.2-0.9,2.3-2.1c0,0,0-0.1,0-0.1V22.5c0-1.2-0.9-2.2-2.1-2.2
			c0,0-0.1,0-0.1,0H541c-1.2,0-2.2,0.9-2.3,2.1c0,0,0,0.1,0,0.1v18.9c0,1.2,0.9,2.2,2.1,2.2c0,0,0.1,0,0.1,0H1195.4z"/>
	</g>
</g>
</svg>
