<svg xmlns="http://www.w3.org/2000/svg" xmlns:xlink="http://www.w3.org/1999/xlink" width="531.484" height="33.819" viewBox="0 0 531.484 33.819">
  <defs>
    <clipPath id="clip-path">
      <path id="Path_173" data-name="Path 173" d="M0-33.86H531.484V-67.68H0Z" transform="translate(0 67.68)" fill="none"/>
    </clipPath>
  </defs>
  <g id="Group_276" data-name="Group 276" transform="translate(0 67.68)">
    <g id="Group_275" data-name="Group 275" transform="translate(0 -67.68)" clip-path="url(#clip-path)">
      <g id="Group_273" data-name="Group 273" transform="translate(0 0)">
        <path id="Path_171" data-name="Path 171" d="M-1.176-33.39H5.588a1.105,1.105,0,0,0,.845-.352,1.168,1.168,0,0,0,.329-.822V-44.71h5.355q6.106,0,9.582-2.654t3.476-8.009q0-5.355-3.476-8.126T12.117-66.27H-1.176a1.1,1.1,0,0,0-.845.352,1.225,1.225,0,0,0-.329.869v30.485A1.126,1.126,0,0,0-2-33.742a1.126,1.126,0,0,0,.822.352m7.8-18.037v-8.079h5.261a3.988,3.988,0,0,1,3.124,1.127,4.268,4.268,0,0,1,1.01,2.959,3.843,3.843,0,0,1-1.1,2.983,4.318,4.318,0,0,1-3.03,1.01ZM38.233-33.39h6.435a1.226,1.226,0,0,0,.869-.329,1.1,1.1,0,0,0,.352-.845V-44.851H50.4l5.167,10.193a1.961,1.961,0,0,0,1.926,1.268h6.623a.918.918,0,0,0,.7-.305.98.98,0,0,0,.282-.681,1.17,1.17,0,0,0-.141-.517L58.619-46.354a10.115,10.115,0,0,0,4.2-3.57,9.891,9.891,0,0,0,1.527-5.59,9.617,9.617,0,0,0-3.5-7.938q-3.5-2.818-9.7-2.818H38.233a1.1,1.1,0,0,0-.845.352,1.223,1.223,0,0,0-.329.869v30.485a1.126,1.126,0,0,0,.352.822,1.126,1.126,0,0,0,.822.352m7.656-18.366v-7.75H51.1a4.116,4.116,0,0,1,3.077,1.08,3.922,3.922,0,0,1,1.057,2.865,3.681,3.681,0,0,1-1.057,2.795,4.286,4.286,0,0,1-3.077,1.01Zm32.5,18.366H100.94a1.225,1.225,0,0,0,.869-.329,1.1,1.1,0,0,0,.352-.845v-4.65a1.181,1.181,0,0,0-.352-.869,1.181,1.181,0,0,0-.869-.352H85.721v-6.106h13.81a1.181,1.181,0,0,0,.869-.352,1.18,1.18,0,0,0,.352-.869v-4.274a1.181,1.181,0,0,0-.352-.869,1.181,1.181,0,0,0-.869-.352H85.721v-5.965h14.843a1.225,1.225,0,0,0,.869-.329,1.1,1.1,0,0,0,.352-.845v-4.65a1.181,1.181,0,0,0-.352-.869,1.181,1.181,0,0,0-.869-.352H78.393a1.1,1.1,0,0,0-.845.352,1.225,1.225,0,0,0-.329.869v30.485a1.126,1.126,0,0,0,.352.822,1.126,1.126,0,0,0,.822.352m48.945.47a20.608,20.608,0,0,0,7.422-1.245,11.456,11.456,0,0,0,5.073-3.593,8.746,8.746,0,0,0,1.832-5.543,8.634,8.634,0,0,0-1.245-4.815,8.856,8.856,0,0,0-3.852-3.1,30.1,30.1,0,0,0-7.022-2,21.321,21.321,0,0,1-5.261-1.574,2.366,2.366,0,0,1-1.409-2.137,2.31,2.31,0,0,1,1.08-2.067,5.575,5.575,0,0,1,3.053-.7,5.732,5.732,0,0,1,2.912.681,2.9,2.9,0,0,1,1.456,1.667,1.809,1.809,0,0,0,1.6.845h6.576a.918.918,0,0,0,.7-.305,1.036,1.036,0,0,0,.282-.728,7.577,7.577,0,0,0-1.714-4.2,12.269,12.269,0,0,0-4.65-3.57,16.617,16.617,0,0,0-7.163-1.433,17.59,17.59,0,0,0-6.928,1.268,10.534,10.534,0,0,0-4.6,3.546,8.733,8.733,0,0,0-1.621,5.19,8,8,0,0,0,2.818,6.576q2.818,2.3,8.5,3.429,2.912.611,4.462,1.1a6.248,6.248,0,0,1,2.255,1.127,2.083,2.083,0,0,1,.7,1.621,2.372,2.372,0,0,1-1.362,2.137,7.99,7.99,0,0,1-3.9.775,7.021,7.021,0,0,1-3.452-.728,4.714,4.714,0,0,1-1.9-1.855,3.042,3.042,0,0,0-.775-.658,1.947,1.947,0,0,0-.916-.188h-6.247a1.036,1.036,0,0,0-.728.282.916.916,0,0,0-.305.7,8.1,8.1,0,0,0,1.738,4.7,11.3,11.3,0,0,0,4.838,3.476,20.362,20.362,0,0,0,7.75,1.315m38.8,0a20.608,20.608,0,0,0,7.422-1.245,11.456,11.456,0,0,0,5.073-3.593,8.746,8.746,0,0,0,1.832-5.543,8.63,8.63,0,0,0-1.245-4.815,8.856,8.856,0,0,0-3.852-3.1,30.089,30.089,0,0,0-7.022-2,21.322,21.322,0,0,1-5.261-1.574,2.366,2.366,0,0,1-1.409-2.137,2.311,2.311,0,0,1,1.08-2.067,5.575,5.575,0,0,1,3.053-.7,5.73,5.73,0,0,1,2.912.681,2.9,2.9,0,0,1,1.456,1.667,1.809,1.809,0,0,0,1.6.845h6.576a.918.918,0,0,0,.7-.305,1.036,1.036,0,0,0,.282-.728,7.573,7.573,0,0,0-1.714-4.2,12.269,12.269,0,0,0-4.65-3.57,16.615,16.615,0,0,0-7.163-1.433,17.59,17.59,0,0,0-6.928,1.268,10.537,10.537,0,0,0-4.6,3.546,8.733,8.733,0,0,0-1.621,5.19,8,8,0,0,0,2.818,6.576q2.818,2.3,8.5,3.429,2.912.611,4.462,1.1a6.248,6.248,0,0,1,2.255,1.127,2.083,2.083,0,0,1,.7,1.621,2.372,2.372,0,0,1-1.362,2.137,7.989,7.989,0,0,1-3.9.775,7.021,7.021,0,0,1-3.452-.728,4.72,4.72,0,0,1-1.9-1.855,3.042,3.042,0,0,0-.775-.658,1.947,1.947,0,0,0-.916-.188h-6.247a1.036,1.036,0,0,0-.728.282.918.918,0,0,0-.305.7,8.108,8.108,0,0,0,1.738,4.7,11.3,11.3,0,0,0,4.838,3.476,20.362,20.362,0,0,0,7.75,1.315" transform="translate(2.35 66.74)" fill="#2b2e34"/>
      </g>
      <g id="Group_274" data-name="Group 274" transform="translate(208.678 11.815)">
        <path id="Path_172" data-name="Path 172" d="M-322.194-10.506a.979.979,0,0,0,1-1V-20a.979.979,0,0,0-1-1H-643a.979.979,0,0,0-1,1v8.494a.979.979,0,0,0,1,1Z" transform="translate(644 20.999)" fill="#2b2e34"/>
      </g>
    </g>
  </g>
</svg>
