<?xml version="1.0" encoding="utf-8"?>
<!-- Generator: Adobe Illustrator 23.0.4, SVG Export Plug-In . SVG Version: 6.00 Build 0)  -->
<svg version="1.1" id="Layer_1" xmlns="http://www.w3.org/2000/svg" xmlns:xlink="http://www.w3.org/1999/xlink" x="0px" y="0px"
	 viewBox="0 0 320.5 45" style="enable-background:new 0 0 320.5 45;" xml:space="preserve">
<style type="text/css">
	.st0{fill:#FFFFFF;}
</style>
<g id="Group_124" transform="translate(0 45.001)">
	<g>
		<g id="Group_123">
			<g id="Group_119" transform="translate(157.562 -0.233)">
				<path id="Path_96" class="st0" d="M0,0h3.4c0.2,0,0.3-0.1,0.4-0.2c0.1-0.1,0.2-0.3,0.2-0.4v-5h2.7C8.3-5.5,10-6,11.3-6.9
					c1.2-1,1.8-2.4,1.7-4c0.1-1.5-0.5-3-1.7-4c-1.4-1-3.1-1.5-4.8-1.4H0c-0.2,0-0.3,0.1-0.4,0.2c-0.1,0.1-0.2,0.3-0.2,0.4v15.1
					c0,0.2,0.1,0.3,0.2,0.4C-0.3-0.1-0.2,0,0,0 M3.9-8.9v-4h2.6c0.6,0,1.1,0.2,1.5,0.6c0.3,0.4,0.5,0.9,0.5,1.5
					c0,0.5-0.2,1.1-0.5,1.5C7.6-9.1,7-8.9,6.5-8.9L3.9-8.9z M24.5,0.2c1.9,0.1,3.7-0.5,5.1-1.6c1.3-1.2,2-3,1.9-4.8v-9.5
					c0-0.2-0.1-0.3-0.2-0.4c-0.1-0.1-0.3-0.2-0.4-0.2h-3.2c-0.2,0-0.3,0.1-0.4,0.2c-0.1,0.1-0.2,0.3-0.2,0.4v9.5
					c0.1,0.8-0.2,1.6-0.7,2.2c-0.5,0.5-1.2,0.8-2,0.7c-0.7,0-1.4-0.2-2-0.7c-0.5-0.6-0.7-1.4-0.7-2.2v-9.5c0-0.2-0.1-0.3-0.2-0.4
					c-0.1-0.1-0.3-0.2-0.4-0.2H18c-0.2,0-0.3,0.1-0.4,0.2c-0.1,0.1-0.2,0.3-0.2,0.4v9.5c-0.1,1.8,0.6,3.6,1.9,4.8
					C20.8-0.2,22.6,0.3,24.5,0.2 M37.4,0h7.4c1.6,0.1,3.2-0.4,4.4-1.3c1.1-0.9,1.6-2.3,1.5-3.7c0-0.8-0.2-1.5-0.7-2.2
					c-0.4-0.6-0.9-1.1-1.6-1.4c0.5-0.3,1-0.7,1.3-1.2c0.4-0.6,0.6-1.2,0.6-1.9c0.1-1.3-0.5-2.6-1.4-3.4c-1.3-0.9-2.8-1.3-4.4-1.2
					h-7.2c-0.2,0-0.3,0.1-0.4,0.2c-0.1,0.1-0.2,0.3-0.2,0.4v15.1c0,0.2,0.1,0.3,0.2,0.4C37.1-0.1,37.3,0,37.4,0 M41.2-9.9v-3.3h2.9
					c0.5,0,1,0.1,1.3,0.5c0.3,0.3,0.5,0.7,0.5,1.2c0,0.5-0.2,0.9-0.5,1.2c-0.4,0.3-0.8,0.5-1.3,0.5H41.2z M41.2-3.1v-3.7h3.1
					c0.5,0,1,0.2,1.4,0.5c0.3,0.4,0.5,0.8,0.5,1.3c0,0.5-0.2,0.9-0.5,1.3c-0.4,0.4-0.9,0.6-1.4,0.5L41.2-3.1z M56.3,0h10.8
					c0.2,0,0.3-0.1,0.4-0.2c0.1-0.1,0.2-0.3,0.2-0.4v-2.5c0-0.2-0.1-0.3-0.2-0.4c-0.1-0.1-0.3-0.2-0.4-0.2h-7v-12.1
					c0-0.2-0.1-0.3-0.2-0.4c-0.1-0.1-0.3-0.2-0.4-0.2h-3.3c-0.2,0-0.3,0.1-0.4,0.2c-0.1,0.1-0.2,0.3-0.2,0.4v15.1
					c0,0.2,0.1,0.3,0.2,0.4C56-0.1,56.1,0,56.3,0 M72.6,0h3.3c0.2,0,0.3-0.1,0.4-0.2c0.1-0.1,0.2-0.3,0.2-0.4v-15.1
					c0-0.2-0.1-0.3-0.2-0.4c-0.1-0.1-0.3-0.2-0.4-0.2h-3.3c-0.2,0-0.3,0.1-0.4,0.2C72-16,72-15.9,72-15.7v15.1
					c0,0.2,0.1,0.3,0.2,0.4C72.3-0.1,72.4,0,72.6,0 M88.2,0.2c1.3,0,2.5-0.2,3.7-0.6c1-0.4,1.9-1,2.5-1.8C95-3,95.3-3.9,95.3-4.9
					c0-0.8-0.2-1.7-0.6-2.4c-0.5-0.7-1.1-1.2-1.9-1.5c-1.1-0.5-2.3-0.8-3.5-1c-0.9-0.1-1.8-0.4-2.6-0.8c-0.4-0.2-0.7-0.6-0.7-1.1
					c0-0.4,0.2-0.8,0.5-1c0.5-0.3,1-0.4,1.5-0.4c0.5,0,1,0.1,1.4,0.3c0.3,0.2,0.6,0.5,0.7,0.8c0.2,0.3,0.5,0.4,0.8,0.4h3.3
					c0.1,0,0.3-0.1,0.3-0.2c0.1-0.1,0.1-0.2,0.1-0.4c-0.1-0.8-0.4-1.5-0.9-2.1c-0.6-0.8-1.4-1.4-2.3-1.8c-1.1-0.5-2.3-0.7-3.6-0.7
					c-1.2,0-2.3,0.2-3.4,0.6c-0.9,0.4-1.7,1-2.3,1.8c-0.5,0.8-0.8,1.7-0.8,2.6c-0.1,1.2,0.4,2.5,1.4,3.3c1.3,0.9,2.7,1.5,4.2,1.7
					c1,0.2,1.7,0.4,2.2,0.5c0.4,0.1,0.8,0.3,1.1,0.6c0.2,0.2,0.4,0.5,0.3,0.8c0,0.5-0.3,0.9-0.7,1.1c-0.6,0.3-1.3,0.4-1.9,0.4
					c-0.6,0-1.2-0.1-1.7-0.4c-0.4-0.2-0.7-0.5-0.9-0.9c-0.1-0.1-0.2-0.2-0.4-0.3C85-4.9,84.8-5,84.7-5h-3.1c-0.1,0-0.3,0-0.4,0.1
					C81.1-4.7,81-4.6,81-4.5c0,0.8,0.3,1.7,0.9,2.3c0.6,0.8,1.5,1.4,2.4,1.7C85.5,0,86.8,0.3,88.2,0.2 M100.4,0h3.2
					c0.2,0,0.3-0.1,0.4-0.2c0.1-0.1,0.2-0.3,0.2-0.4v-5.7h5.5v5.7c0,0.2,0.1,0.3,0.2,0.4c0.1,0.1,0.3,0.2,0.4,0.2h3.2
					c0.2,0,0.3-0.1,0.4-0.2c0.1-0.1,0.2-0.3,0.2-0.4v-15.1c0-0.2-0.1-0.3-0.2-0.4c-0.1-0.1-0.3-0.2-0.4-0.2h-3.2
					c-0.2,0-0.3,0.1-0.4,0.2c-0.1,0.1-0.2,0.3-0.2,0.4v5.5h-5.5v-5.5c0-0.2-0.1-0.3-0.2-0.4c-0.1-0.1-0.3-0.2-0.4-0.2h-3.2
					c-0.2,0-0.3,0.1-0.4,0.2c-0.1,0.1-0.2,0.3-0.2,0.4v15.1c0,0.2,0.1,0.3,0.2,0.4C100.1-0.1,100.3,0,100.4,0 M120.2,0h3.3
					c0.2,0,0.3-0.1,0.4-0.2c0.1-0.1,0.2-0.3,0.2-0.4v-15.1c0-0.2-0.1-0.3-0.2-0.4c-0.1-0.1-0.3-0.2-0.4-0.2h-3.3
					c-0.2,0-0.3,0.1-0.4,0.2c-0.1,0.1-0.2,0.3-0.2,0.4v15.1c0,0.2,0.1,0.3,0.2,0.4C119.9-0.1,120,0,120.2,0 M130.2,0h3
					c0.2,0,0.3-0.1,0.4-0.2c0.1-0.1,0.2-0.3,0.2-0.4v-8.2l5.5,8.3c0.2,0.3,0.5,0.5,0.8,0.4h2.6c0.2,0,0.3-0.1,0.4-0.2
					c0.1-0.1,0.2-0.3,0.2-0.4v-15.1c0-0.2-0.1-0.3-0.2-0.4c-0.1-0.1-0.3-0.2-0.4-0.2h-3c-0.2,0-0.3,0.1-0.4,0.2
					c-0.1,0.1-0.2,0.3-0.2,0.4v8.5l-5.5-8.7c-0.2-0.3-0.5-0.5-0.8-0.4h-2.6c-0.2,0-0.3,0.1-0.4,0.2c-0.1,0.1-0.2,0.3-0.2,0.4v15.1
					c0,0.2,0.1,0.3,0.2,0.4C129.9-0.1,130,0,130.2,0 M155.5,0.2c1.3,0,2.7-0.2,3.9-0.8c1.1-0.5,2-1.2,2.6-2.2c0.6-1,1-2.2,0.9-3.4
					v-2.7c0-0.2-0.1-0.3-0.2-0.4c-0.1-0.1-0.3-0.2-0.4-0.2h-5.9c-0.2,0-0.3,0.1-0.4,0.2c-0.1,0.1-0.2,0.3-0.2,0.4V-7
					c0,0.2,0.1,0.3,0.2,0.4c0.1,0.1,0.3,0.2,0.4,0.2h2.1V-6c0.1,0.8-0.2,1.5-0.8,2.1c-0.6,0.5-1.4,0.7-2.1,0.7c-1.8,0-2.8-1-2.8-3
					c0-0.5,0-1.1,0-2c0-0.9,0-1.6,0-2c0.1-1.9,1-2.8,2.8-2.8c0.6,0,1.2,0.1,1.7,0.5c0.4,0.3,0.7,0.7,0.9,1.1
					c0.1,0.1,0.1,0.2,0.2,0.2c0.1,0.1,0.2,0.1,0.4,0.1h3.6c0.1,0,0.3-0.1,0.4-0.2c0.1-0.1,0.2-0.2,0.2-0.4c-0.1-0.9-0.4-1.7-0.9-2.3
					c-0.7-0.8-1.6-1.5-2.5-1.9c-1.2-0.5-2.6-0.8-3.9-0.7c-1.9-0.1-3.8,0.5-5.3,1.6c-1.3,1.1-2.1,2.8-2,4.6c0,0.5,0,1.2,0,2.1
					s0,1.7,0,2.1c0,1.8,0.7,3.5,2,4.7C151.8-0.2,153.6,0.3,155.5,0.2"/>
			</g>
			<g id="Group_120" transform="translate(0.583 -28.196)">
				<path id="Path_97" class="st0" d="M0,0h7.4c1.6,0.1,3.2-0.4,4.4-1.3c1.1-0.9,1.6-2.3,1.5-3.7c0-0.8-0.2-1.5-0.7-2.2
					c-0.4-0.6-0.9-1.1-1.6-1.4c0.5-0.3,1-0.7,1.3-1.2c0.4-0.6,0.6-1.2,0.6-1.9c0.1-1.3-0.5-2.6-1.5-3.4c-1.3-0.9-2.8-1.3-4.4-1.2H0
					c-0.2,0-0.3,0.1-0.4,0.2c-0.1,0.1-0.2,0.3-0.2,0.4v15.1c0,0.2,0.1,0.3,0.2,0.4C-0.3-0.1-0.2,0,0,0 M3.8-9.9v-3.3h2.9
					c0.5,0,1,0.1,1.3,0.5c0.3,0.3,0.5,0.7,0.5,1.2c0,0.5-0.2,0.9-0.5,1.2C7.7-10,7.2-9.8,6.7-9.9H3.8z M3.8-3.1v-3.7h3.1
					c0.5,0,1,0.2,1.4,0.5C8.7-5.9,8.8-5.5,8.8-5c0,0.5-0.2,0.9-0.5,1.3C8-3.3,7.4-3.1,6.9-3.1L3.8-3.1z M18.8,0H22
					c0.2,0,0.3-0.1,0.4-0.2c0.1-0.1,0.2-0.3,0.2-0.4v-5.1h2.2l2.6,5.1c0.1,0.4,0.5,0.7,1,0.6h3.3c0.1,0,0.3-0.1,0.3-0.2
					c0.1-0.1,0.1-0.2,0.1-0.3c0-0.1,0-0.2-0.1-0.3l-3.1-5.7c0.8-0.4,1.6-1,2.1-1.8C31.5-9,31.8-10,31.8-11c0.1-1.5-0.6-3-1.7-3.9
					c-1.4-1-3.1-1.5-4.8-1.4h-6.4c-0.2,0-0.3,0.1-0.4,0.2c-0.1,0.1-0.2,0.3-0.2,0.4v15.1c0,0.2,0.1,0.3,0.2,0.4
					C18.5-0.1,18.7,0,18.8,0 M22.6-9.1V-13h2.6c0.6,0,1.1,0.2,1.5,0.5c0.4,0.4,0.5,0.9,0.5,1.4c0,0.5-0.2,1-0.5,1.4
					c-0.4,0.4-1,0.5-1.5,0.5L22.6-9.1z M35.8,0h3c0.3,0,0.7-0.2,0.8-0.5l0.8-2.3h6.1l0.8,2.3C47.6-0.2,47.9,0,48.2,0h3
					c0.1,0,0.2-0.1,0.3-0.2c0.1-0.1,0.1-0.2,0.2-0.3c0-0.1,0-0.1,0-0.2l-5.4-14.9c-0.1-0.4-0.5-0.7-0.9-0.7h-3.6
					c-0.4,0-0.8,0.3-0.9,0.7L35.4-0.7c0,0.1,0,0.1,0,0.2c0,0.1,0.1,0.3,0.2,0.3C35.6-0.1,35.7,0,35.8,0 M43.6-12.2l2.1,5.9h-4.1
					L43.6-12.2z M56.4,0h3c0.2,0,0.3-0.1,0.4-0.2C59.9-0.3,60-0.4,60-0.6v-8.2l5.5,8.3C65.6-0.2,65.9,0,66.3,0h2.6
					c0.2,0,0.3-0.1,0.4-0.2c0.1-0.1,0.2-0.3,0.2-0.4v-15.1c0-0.2-0.1-0.3-0.2-0.4c-0.1-0.1-0.3-0.2-0.4-0.2h-3
					c-0.2,0-0.3,0.1-0.4,0.2c-0.1,0.1-0.2,0.3-0.2,0.4v8.5l-5.5-8.7c-0.2-0.3-0.5-0.5-0.8-0.4h-2.6c-0.2,0-0.3,0.1-0.4,0.2
					c-0.1,0.1-0.2,0.3-0.2,0.4v15.1c0,0.2,0.1,0.3,0.2,0.4C56.1-0.1,56.3,0,56.4,0 M75.6,0h6.2c4.7,0,7.1-2.1,7.2-6.4
					c0-0.4,0-1,0-1.8c0-0.7,0-1.3,0-1.8c0.1-1.8-0.7-3.5-2-4.7c-1.5-1.2-3.4-1.8-5.4-1.6h-6.1c-0.2,0-0.3,0.1-0.4,0.2
					C75-16,75-15.9,75-15.7v15.1c0,0.2,0.1,0.3,0.2,0.4C75.3-0.1,75.4,0,75.6,0 M79.4-3.5v-9.3h2.2c0.8-0.1,1.6,0.2,2.2,0.7
					c0.6,0.6,0.8,1.4,0.8,2.2c0,0.4,0,1,0,1.7c0,0.7,0,1.3,0,1.7c0,0.8-0.2,1.6-0.7,2.2c-0.6,0.5-1.4,0.8-2.2,0.7L79.4-3.5z M94.7,0
					h11.2c0.2,0,0.3-0.1,0.4-0.2c0.1-0.1,0.2-0.3,0.2-0.4v-2.3c0-0.2-0.1-0.3-0.2-0.4c-0.1-0.1-0.3-0.2-0.4-0.2h-7.5v-3h6.9
					c0.2,0,0.3-0.1,0.4-0.2c0.1-0.1,0.2-0.3,0.2-0.4v-2.1c0-0.2-0.1-0.3-0.2-0.4c-0.1-0.1-0.3-0.2-0.4-0.2h-6.9v-3h7.4
					c0.2,0,0.3-0.1,0.4-0.2c0.1-0.1,0.2-0.3,0.2-0.4v-2.3c0-0.2-0.1-0.3-0.2-0.4c-0.1-0.1-0.3-0.2-0.4-0.2h-11
					c-0.2,0-0.3,0.1-0.4,0.2c-0.1,0.1-0.2,0.3-0.2,0.4v15.1c0,0.2,0.1,0.3,0.2,0.4C94.4-0.1,94.5,0,94.7,0 M111.9,0h6.2
					c4.7,0,7.1-2.1,7.2-6.4c0-0.4,0-1,0-1.8c0-0.7,0-1.3,0-1.8c0.1-1.8-0.7-3.5-2-4.7c-1.5-1.2-3.4-1.8-5.4-1.6H112
					c-0.2,0-0.3,0.1-0.4,0.2c-0.1,0.1-0.2,0.3-0.2,0.4v15.1c0,0.2,0.1,0.3,0.2,0.4C111.6-0.1,111.8,0,111.9,0 M115.8-3.5v-9.3h2.2
					c0.8-0.1,1.6,0.2,2.2,0.7c0.6,0.6,0.8,1.4,0.8,2.2c0,0.4,0,1,0,1.7c0,0.7,0,1.3,0,1.7c0,0.8-0.2,1.6-0.7,2.2
					c-0.6,0.5-1.4,0.8-2.2,0.7L115.8-3.5z"/>
			</g>
			<g id="Group_121" transform="translate(319.256 -38.375)">
				<path id="Path_98" class="st0" d="M0,0c0.6,0,1.1-0.5,1.2-1.1c0,0,0,0,0,0v-4.3c0-0.6-0.5-1.1-1.1-1.2c0,0,0,0,0,0h-173.1
					c-0.6,0-1.1,0.5-1.2,1.1c0,0,0,0,0,0v4.3c0,0.6,0.5,1.1,1.1,1.2c0,0,0,0,0,0H0z"/>
			</g>
			<g id="Group_122" transform="translate(135.942 -7.389)">
				<path id="Path_99" class="st0" d="M0,0c0.6,0,1.1-0.5,1.2-1.1c0,0,0,0,0,0v-4.3c0-0.6-0.5-1.1-1.1-1.2c0,0,0,0,0,0h-134.6
					c-0.6,0-1.1,0.5-1.2,1.1c0,0,0,0,0,0v4.3c0,0.6,0.5,1.1,1.1,1.2c0,0,0,0,0.1,0H0z"/>
			</g>
		</g>
	</g>
</g>
</svg>
