<svg xmlns="http://www.w3.org/2000/svg" xmlns:xlink="http://www.w3.org/1999/xlink" width="320.54" height="45.001" viewBox="0 0 320.54 45.001">
  <defs>
    <clipPath id="clip-path">
      <path id="Path_100" data-name="Path 100" d="M0,0H320.54V-45H0Z" fill="none"/>
    </clipPath>
  </defs>
  <g id="Group_124" data-name="Group 124" transform="translate(0 45.001)">
    <g id="Group_123" data-name="Group 123" clip-path="url(#clip-path)">
      <g id="Group_119" data-name="Group 119" transform="translate(157.562 -0.233)">
        <path id="Path_96" data-name="Path 96" d="M0,0H3.356a.547.547,0,0,0,.419-.175.576.576,0,0,0,.163-.408V-5.616H6.595a7.661,7.661,0,0,0,4.753-1.317,4.681,4.681,0,0,0,1.725-3.973,4.847,4.847,0,0,0-1.725-4.031,7.426,7.426,0,0,0-4.753-1.375H0a.544.544,0,0,0-.419.175.606.606,0,0,0-.164.431V-.583a.56.56,0,0,0,.175.408A.559.559,0,0,0,0,0M3.868-8.948v-4.008h2.61a1.979,1.979,0,0,1,1.55.559,2.117,2.117,0,0,1,.5,1.468,1.908,1.908,0,0,1-.548,1.48,2.142,2.142,0,0,1-1.5.5ZM24.491.233a7.631,7.631,0,0,0,5.15-1.608A6.024,6.024,0,0,0,31.5-6.2v-9.507a.583.583,0,0,0-.175-.431.583.583,0,0,0-.431-.175H27.73a.583.583,0,0,0-.431.175.583.583,0,0,0-.175.431v9.461a3.043,3.043,0,0,1-.687,2.155,2.566,2.566,0,0,1-1.969.734A2.586,2.586,0,0,1,22.5-4.078a3.033,3.033,0,0,1-.688-2.167v-9.461a.583.583,0,0,0-.175-.431.583.583,0,0,0-.431-.175H18.013a.548.548,0,0,0-.42.175.605.605,0,0,0-.163.431V-6.2a6,6,0,0,0,1.876,4.824A7.713,7.713,0,0,0,24.491.233M37.447,0h7.411A6.712,6.712,0,0,0,49.3-1.3a4.52,4.52,0,0,0,1.549-3.659,3.806,3.806,0,0,0-.652-2.178,3.755,3.755,0,0,0-1.608-1.387A3.829,3.829,0,0,0,49.9-9.717a3.2,3.2,0,0,0,.594-1.934A4.251,4.251,0,0,0,49.052-15.1a6.741,6.741,0,0,0-4.4-1.212h-7.2a.544.544,0,0,0-.419.175.605.605,0,0,0-.163.431V-.583a.559.559,0,0,0,.174.408A.559.559,0,0,0,37.447,0m3.8-9.857v-3.309h2.913a1.815,1.815,0,0,1,1.339.454,1.594,1.594,0,0,1,.455,1.177,1.643,1.643,0,0,1-.466,1.212,1.8,1.8,0,0,1-1.328.466Zm0,6.711V-6.8h3.122a1.864,1.864,0,0,1,1.4.524,1.806,1.806,0,0,1,.513,1.316,1.8,1.8,0,0,1-.5,1.294,1.86,1.86,0,0,1-1.41.524ZM56.252,0H67.088a.605.605,0,0,0,.431-.163.546.546,0,0,0,.175-.42v-2.47a.586.586,0,0,0-.175-.431.587.587,0,0,0-.431-.175H60.1v-12.07a.568.568,0,0,0-.163-.42.57.57,0,0,0-.419-.163H56.252a.58.58,0,0,0-.407.163.548.548,0,0,0-.175.42V-.583a.556.556,0,0,0,.175.408A.555.555,0,0,0,56.252,0M72.564,0H75.9a.548.548,0,0,0,.42-.175.58.58,0,0,0,.163-.408V-15.729a.572.572,0,0,0-.163-.42.572.572,0,0,0-.42-.163H72.564a.584.584,0,0,0-.408.163.551.551,0,0,0-.174.42V-.583a.559.559,0,0,0,.174.408A.559.559,0,0,0,72.564,0m15.59.233a10.229,10.229,0,0,0,3.681-.617,5.689,5.689,0,0,0,2.517-1.783,4.339,4.339,0,0,0,.909-2.75A4.276,4.276,0,0,0,94.643-7.3a4.381,4.381,0,0,0-1.91-1.538,14.934,14.934,0,0,0-3.484-.991,10.6,10.6,0,0,1-2.61-.78,1.175,1.175,0,0,1-.7-1.061,1.145,1.145,0,0,1,.536-1.025,2.765,2.765,0,0,1,1.515-.35,2.841,2.841,0,0,1,1.444.338,1.445,1.445,0,0,1,.723.828.9.9,0,0,0,.792.419h3.262a.456.456,0,0,0,.35-.151.517.517,0,0,0,.14-.362,3.763,3.763,0,0,0-.851-2.085,6.085,6.085,0,0,0-2.307-1.771,8.239,8.239,0,0,0-3.553-.711,8.741,8.741,0,0,0-3.438.629,5.23,5.23,0,0,0-2.283,1.76,4.328,4.328,0,0,0-.8,2.574,3.972,3.972,0,0,0,1.4,3.263,9.648,9.648,0,0,0,4.218,1.7q1.444.3,2.213.548a3.093,3.093,0,0,1,1.119.559,1.035,1.035,0,0,1,.35.8,1.177,1.177,0,0,1-.676,1.06,3.967,3.967,0,0,1-1.934.385,3.482,3.482,0,0,1-1.713-.362,2.333,2.333,0,0,1-.944-.92,1.517,1.517,0,0,0-.384-.326.967.967,0,0,0-.455-.094h-3.1a.515.515,0,0,0-.361.14.455.455,0,0,0-.152.35,4.02,4.02,0,0,0,.862,2.33,5.608,5.608,0,0,0,2.4,1.725,10.117,10.117,0,0,0,3.845.652M100.411,0H103.6a.605.605,0,0,0,.431-.163.546.546,0,0,0,.175-.42V-6.292h5.5V-.583a.55.55,0,0,0,.175.42.607.607,0,0,0,.431.163h3.169a.61.61,0,0,0,.432-.163.549.549,0,0,0,.174-.42V-15.706a.586.586,0,0,0-.174-.431.587.587,0,0,0-.432-.175h-3.169a.584.584,0,0,0-.431.175.587.587,0,0,0-.175.431v5.523h-5.5v-5.523a.583.583,0,0,0-.175-.431.583.583,0,0,0-.431-.175h-3.192a.546.546,0,0,0-.42.175.606.606,0,0,0-.163.431V-.583a.567.567,0,0,0,.163.42.567.567,0,0,0,.42.163m19.76,0H123.5a.548.548,0,0,0,.42-.175.58.58,0,0,0,.163-.408V-15.729a.572.572,0,0,0-.163-.42.572.572,0,0,0-.42-.163h-3.332a.584.584,0,0,0-.408.163.551.551,0,0,0-.175.42V-.583a.56.56,0,0,0,.175.408.559.559,0,0,0,.408.175m10,0h2.959a.605.605,0,0,0,.431-.163.546.546,0,0,0,.175-.42v-8.2l5.476,8.342A.852.852,0,0,0,140,0h2.633a.546.546,0,0,0,.419-.175.606.606,0,0,0,.163-.431v-15.1a.606.606,0,0,0-.163-.431.546.546,0,0,0-.419-.175h-2.96a.544.544,0,0,0-.419.175.606.606,0,0,0-.163.431v8.529l-5.5-8.692a.853.853,0,0,0-.792-.443h-2.633a.548.548,0,0,0-.42.175.61.61,0,0,0-.163.431V-.583a.56.56,0,0,0,.175.408.557.557,0,0,0,.408.175m25.376.233a9.433,9.433,0,0,0,3.915-.757,5.869,5.869,0,0,0,2.6-2.191,6.184,6.184,0,0,0,.92-3.414v-2.7a.584.584,0,0,0-.175-.431.587.587,0,0,0-.431-.175h-5.919a.588.588,0,0,0-.431.175.588.588,0,0,0-.175.431v1.818a.588.588,0,0,0,.175.431.588.588,0,0,0,.431.175h2.074v.419a2.548,2.548,0,0,1-.792,2.051,3.192,3.192,0,0,1-2.144.676q-2.75,0-2.843-2.96-.022-.675-.023-2.027t.023-2q.093-2.8,2.8-2.8a2.839,2.839,0,0,1,1.737.466,2.763,2.763,0,0,1,.9,1.119.914.914,0,0,0,.244.245.679.679,0,0,0,.362.081H162.4a.5.5,0,0,0,.361-.151.494.494,0,0,0,.151-.361,4.03,4.03,0,0,0-.92-2.319,6.3,6.3,0,0,0-2.54-1.853,9.763,9.763,0,0,0-3.9-.722,8,8,0,0,0-5.278,1.62,5.855,5.855,0,0,0-2.039,4.555q-.022.677-.023,2.144t.023,2.121a6.186,6.186,0,0,0,2.028,4.7A7.854,7.854,0,0,0,155.544.233" fill="#fff"/>
      </g>
      <g id="Group_120" data-name="Group 120" transform="translate(0.583 -28.196)">
        <path id="Path_97" data-name="Path 97" d="M0,0H7.41a6.715,6.715,0,0,0,4.44-1.3A4.523,4.523,0,0,0,13.4-4.964a3.814,3.814,0,0,0-.652-2.178,3.755,3.755,0,0,0-1.608-1.387,3.827,3.827,0,0,0,1.316-1.188,3.192,3.192,0,0,0,.6-1.934A4.251,4.251,0,0,0,11.6-15.1a6.745,6.745,0,0,0-4.4-1.212H0a.544.544,0,0,0-.419.175.606.606,0,0,0-.164.431V-.583a.56.56,0,0,0,.175.408A.559.559,0,0,0,0,0M3.8-9.857v-3.309H6.711a1.817,1.817,0,0,1,1.34.454,1.594,1.594,0,0,1,.455,1.177,1.64,1.64,0,0,1-.467,1.212,1.794,1.794,0,0,1-1.328.466Zm0,6.711V-6.8H6.921a1.864,1.864,0,0,1,1.4.524,1.806,1.806,0,0,1,.513,1.316,1.8,1.8,0,0,1-.5,1.294,1.86,1.86,0,0,1-1.41.524ZM18.805,0H22a.609.609,0,0,0,.431-.163.549.549,0,0,0,.174-.42v-5.1H24.84L27.4-.629A.972.972,0,0,0,28.359,0h3.286a.454.454,0,0,0,.349-.151.484.484,0,0,0,.14-.338.579.579,0,0,0-.07-.257L28.919-6.432A5.01,5.01,0,0,0,31-8.2a4.9,4.9,0,0,0,.757-2.773,4.768,4.768,0,0,0-1.736-3.938,7.473,7.473,0,0,0-4.812-1.4H18.805a.544.544,0,0,0-.419.175.606.606,0,0,0-.164.431V-.583a.56.56,0,0,0,.175.408A.559.559,0,0,0,18.805,0m3.8-9.111v-3.845H25.19a2.036,2.036,0,0,1,1.526.536A1.943,1.943,0,0,1,27.241-11a1.825,1.825,0,0,1-.525,1.387,2.125,2.125,0,0,1-1.526.5ZM35.839,0h3.03a.81.81,0,0,0,.792-.513l.839-2.26h6.1l.839,2.26A.809.809,0,0,0,48.236,0h3.03A.47.47,0,0,0,51.6-.151a.472.472,0,0,0,.151-.338.728.728,0,0,0-.023-.21L46.3-15.636a.909.909,0,0,0-.932-.676H41.735a.909.909,0,0,0-.932.676L35.373-.7a.728.728,0,0,0-.023.21.468.468,0,0,0,.151.338A.468.468,0,0,0,35.839,0m7.714-12.211,2.073,5.943H41.479ZM56.439,0H59.4a.605.605,0,0,0,.431-.163A.546.546,0,0,0,60-.583v-8.2L65.48-.443A.852.852,0,0,0,66.272,0h2.634a.547.547,0,0,0,.419-.175.605.605,0,0,0,.163-.431v-15.1a.605.605,0,0,0-.163-.431.547.547,0,0,0-.419-.175h-2.96a.544.544,0,0,0-.419.175.605.605,0,0,0-.163.431v8.529l-5.5-8.692a.853.853,0,0,0-.792-.443H56.439a.548.548,0,0,0-.42.175.605.605,0,0,0-.163.431V-.583a.556.556,0,0,0,.175.408A.556.556,0,0,0,56.439,0M75.57,0h6.245q7.014,0,7.248-6.385.022-.652.023-1.771T89.063-9.95a6.148,6.148,0,0,0-2.005-4.719A7.969,7.969,0,0,0,81.7-16.312H75.57a.544.544,0,0,0-.419.175.605.605,0,0,0-.163.431V-.583a.559.559,0,0,0,.174.408A.559.559,0,0,0,75.57,0m3.8-3.495v-9.322h2.213a3.139,3.139,0,0,1,2.226.711,3.033,3.033,0,0,1,.8,2.2q.046.653.046,1.725t-.046,1.747A3.212,3.212,0,0,1,83.866-4.2a2.95,2.95,0,0,1-2.167.7ZM94.655,0H105.84a.61.61,0,0,0,.432-.163.549.549,0,0,0,.174-.42V-2.89a.589.589,0,0,0-.174-.431.59.59,0,0,0-.432-.174H98.29v-3.03h6.851a.583.583,0,0,0,.431-.175.583.583,0,0,0,.175-.431v-2.12a.583.583,0,0,0-.175-.431.583.583,0,0,0-.431-.175H98.29v-2.96h7.364a.605.605,0,0,0,.431-.163.544.544,0,0,0,.175-.419v-2.307a.583.583,0,0,0-.175-.431.583.583,0,0,0-.431-.175h-11a.544.544,0,0,0-.419.175.606.606,0,0,0-.164.431V-.583a.56.56,0,0,0,.175.408A.559.559,0,0,0,94.655,0m17.291,0h6.245q7.014,0,7.247-6.385.022-.652.023-1.771t-.023-1.794a6.144,6.144,0,0,0-2-4.719,7.972,7.972,0,0,0-5.36-1.643h-6.128a.548.548,0,0,0-.42.175.605.605,0,0,0-.163.431V-.583a.556.556,0,0,0,.175.408.556.556,0,0,0,.408.175m3.8-3.495v-9.322h2.214a3.137,3.137,0,0,1,2.225.711,3.025,3.025,0,0,1,.8,2.2q.046.653.047,1.725t-.047,1.747a3.207,3.207,0,0,1-.745,2.237,2.954,2.954,0,0,1-2.168.7Z" fill="#fff"/>
      </g>
      <g id="Group_121" data-name="Group 121" transform="translate(319.256 -38.375)">
        <path id="Path_98" data-name="Path 98" d="M0,0A1.129,1.129,0,0,0,1.153-1.153V-5.474A1.129,1.129,0,0,0,0-6.626H-173.083a1.129,1.129,0,0,0-1.153,1.152v4.321A1.129,1.129,0,0,0-173.083,0Z" fill="#fff"/>
      </g>
      <g id="Group_122" data-name="Group 122" transform="translate(135.942 -7.389)">
        <path id="Path_99" data-name="Path 99" d="M0,0A1.133,1.133,0,0,0,1.157-1.157V-5.5A1.133,1.133,0,0,0,0-6.653H-134.623A1.133,1.133,0,0,0-135.78-5.5v4.339A1.133,1.133,0,0,0-134.623,0Z" fill="#fff"/>
      </g>
    </g>
  </g>
</svg>
