<?xml version="1.0" encoding="utf-8"?>
<!-- Generator: Adobe Illustrator 23.0.4, SVG Export Plug-In . SVG Version: 6.00 Build 0)  -->
<svg version="1.1" id="Layer_1" xmlns="http://www.w3.org/2000/svg" xmlns:xlink="http://www.w3.org/1999/xlink" x="0px" y="0px"
	 viewBox="0 0 304.4 44.6" style="enable-background:new 0 0 304.4 44.6;" xml:space="preserve">
<style type="text/css">
	.st0{fill:#FFFFFF;}
</style>
<g id="Group_130" transform="translate(0 44.603)">
	<g>
		<g id="Group_129">
			<g id="Group_125" transform="translate(118.263 -0.232)">
				<path id="Path_101" class="st0" d="M0,0h2.9c0.2,0,0.3-0.1,0.4-0.2c0.1-0.1,0.2-0.3,0.2-0.4V-9L6-4.4c0.2,0.3,0.5,0.5,0.8,0.5
					h1.3c0.4,0,0.7-0.2,0.8-0.5L11.4-9v8.5c0,0.2,0.1,0.3,0.2,0.4C11.7-0.1,11.8,0,12,0h2.9c0.2,0,0.3-0.1,0.4-0.2
					c0.1-0.1,0.2-0.3,0.2-0.4v-15.1c0-0.2-0.1-0.3-0.2-0.4c-0.1-0.1-0.3-0.2-0.4-0.2h-2.6c-0.4,0-0.7,0.2-0.8,0.5l-4,7.1l-4-7.2
					c-0.1-0.3-0.5-0.5-0.8-0.5H0c-0.2,0-0.3,0.1-0.4,0.2c-0.1,0.1-0.2,0.3-0.2,0.4v15.1c0,0.2,0.1,0.3,0.2,0.4C-0.3-0.1-0.2,0,0,0
					 M20.1,0h3c0.3,0,0.7-0.2,0.8-0.5l0.8-2.3h6.1l0.8,2.3C31.8-0.2,32.1,0,32.5,0h3c0.1,0,0.3-0.1,0.3-0.2C35.9-0.2,36-0.4,36-0.5
					c0-0.1,0-0.1,0-0.2l-5.4-14.9c-0.1-0.4-0.5-0.7-0.9-0.7H26c-0.4,0-0.8,0.3-0.9,0.7L19.7-0.7c0,0.1,0,0.1,0,0.2
					c0,0.1,0.1,0.3,0.2,0.3C19.9-0.1,20,0,20.1,0 M27.8-12.2l2.1,5.9h-4.1L27.8-12.2z M40.7,0h2.9c0.2,0,0.3-0.1,0.4-0.2
					c0.1-0.1,0.2-0.3,0.2-0.4v-8.2l5.5,8.3C49.8-0.2,50.1,0,50.5,0h2.6c0.2,0,0.3-0.1,0.4-0.2c0.1-0.1,0.2-0.3,0.2-0.4v-15.1
					c0-0.2-0.1-0.3-0.2-0.4c-0.1-0.1-0.3-0.2-0.4-0.2h-3c-0.2,0-0.3,0.1-0.4,0.2c-0.1,0.1-0.2,0.3-0.2,0.4v8.5l-5.5-8.7
					c-0.2-0.3-0.5-0.5-0.8-0.4h-2.6c-0.2,0-0.3,0.1-0.4,0.2c-0.1,0.1-0.2,0.3-0.2,0.4v15.1c0,0.2,0.1,0.3,0.2,0.4
					C40.4-0.1,40.5,0,40.7,0 M58.2,0h3c0.3,0,0.7-0.2,0.8-0.5l0.8-2.3H69l0.8,2.3C69.9-0.2,70.3,0,70.6,0h3c0.1,0,0.3-0.1,0.3-0.2
					c0.1-0.1,0.1-0.2,0.2-0.3c0-0.1,0-0.1,0-0.2l-5.4-14.9c-0.1-0.4-0.5-0.7-0.9-0.7h-3.6c-0.4,0-0.8,0.3-0.9,0.7L57.8-0.7
					c0,0.1,0,0.1,0,0.2c0,0.1,0.1,0.2,0.2,0.3C58-0.1,58.1,0,58.2,0 M65.9-12.2L68-6.2h-4.1L65.9-12.2z M84.7,0.2
					c1.3,0,2.7-0.2,3.9-0.8c1.1-0.5,2-1.2,2.6-2.2c0.6-1,0.9-2.2,0.9-3.4v-2.7c0-0.2-0.1-0.3-0.2-0.4c-0.1-0.1-0.3-0.2-0.4-0.2h-5.9
					c-0.2,0-0.3,0.1-0.4,0.2C85-9.1,84.9-9,85-8.8V-7c0,0.2,0.1,0.3,0.2,0.4c0.1,0.1,0.3,0.2,0.4,0.2h2.1V-6c0.1,0.8-0.2,1.5-0.8,2
					c-0.6,0.5-1.4,0.7-2.1,0.7c-1.8,0-2.8-1-2.8-3c0-0.4,0-1.1,0-2c0-0.9,0-1.6,0-2c0.1-1.9,1-2.8,2.8-2.8c0.6,0,1.2,0.1,1.7,0.5
					c0.4,0.3,0.7,0.7,0.9,1.1c0.1,0.1,0.1,0.2,0.2,0.2c0.1,0.1,0.2,0.1,0.4,0.1h3.6c0.1,0,0.3-0.1,0.4-0.2c0.1-0.1,0.2-0.2,0.2-0.4
					c-0.1-0.8-0.4-1.7-0.9-2.3c-0.7-0.8-1.5-1.5-2.5-1.8c-1.2-0.5-2.6-0.7-3.9-0.7c-1.9-0.1-3.8,0.5-5.3,1.6c-1.3,1.1-2.1,2.8-2,4.5
					c0,0.4,0,1.2,0,2.1s0,1.7,0,2.1c0,1.8,0.7,3.5,2,4.7C80.9-0.2,82.8,0.3,84.7,0.2 M97.5,0h11.2c0.2,0,0.3-0.1,0.4-0.2
					c0.1-0.1,0.2-0.3,0.2-0.4v-2.3c0-0.2-0.1-0.3-0.2-0.4c-0.1-0.1-0.3-0.2-0.4-0.2h-7.5v-3h6.8c0.2,0,0.3-0.1,0.4-0.2
					c0.1-0.1,0.2-0.3,0.2-0.4v-2.1c0-0.2-0.1-0.3-0.2-0.4c-0.1-0.1-0.3-0.2-0.4-0.2h-6.8v-2.9h7.3c0.2,0,0.3-0.1,0.4-0.2
					c0.1-0.1,0.2-0.3,0.2-0.4v-2.3c0-0.2-0.1-0.3-0.2-0.4c-0.1-0.1-0.3-0.2-0.4-0.2h-11c-0.2,0-0.3,0.1-0.4,0.2
					C97-16,97-15.8,97-15.7v15.1c0,0.2,0.1,0.3,0.2,0.4C97.2-0.1,97.4,0,97.5,0 M114.8,0h2.9c0.2,0,0.3-0.1,0.4-0.2
					c0.1-0.1,0.2-0.3,0.2-0.4V-9l2.5,4.6c0.2,0.3,0.5,0.5,0.8,0.5h1.3c0.4,0,0.7-0.2,0.8-0.5l2.5-4.6v8.5c0,0.2,0.1,0.3,0.2,0.4
					c0.1,0.1,0.3,0.2,0.4,0.2h2.9c0.2,0,0.3-0.1,0.4-0.2c0.1-0.1,0.2-0.3,0.2-0.4v-15.1c0-0.2-0.1-0.3-0.2-0.4
					c-0.1-0.1-0.3-0.2-0.4-0.2h-2.6c-0.4,0-0.7,0.2-0.8,0.5l-4,7.1l-4-7.2c-0.1-0.3-0.5-0.5-0.8-0.5h-2.6c-0.2,0-0.3,0.1-0.4,0.2
					c-0.1,0.1-0.2,0.3-0.2,0.4v15.1c0,0.2,0.1,0.3,0.2,0.4C114.5-0.1,114.6,0,114.8,0 M136.4,0h11.2c0.2,0,0.3-0.1,0.4-0.2
					c0.1-0.1,0.2-0.3,0.2-0.4v-2.3c0-0.2-0.1-0.3-0.2-0.4c-0.1-0.1-0.3-0.2-0.4-0.2H140v-3h6.8c0.2,0,0.3-0.1,0.4-0.2
					c0.1-0.1,0.2-0.3,0.2-0.4v-2.1c0-0.2-0.1-0.3-0.2-0.4c-0.1-0.1-0.3-0.2-0.4-0.2H140v-2.9h7.3c0.2,0,0.3-0.1,0.4-0.2
					c0.1-0.1,0.2-0.3,0.2-0.4v-2.3c0-0.2-0.1-0.3-0.2-0.4c-0.1-0.1-0.3-0.2-0.4-0.2h-11c-0.2,0-0.3,0.1-0.4,0.2
					c-0.1,0.1-0.2,0.3-0.2,0.4v15.1c0,0.2,0.1,0.3,0.2,0.4C136.1-0.1,136.3,0,136.4,0 M153.6,0h3c0.2,0,0.3-0.1,0.4-0.2
					c0.1-0.1,0.2-0.3,0.2-0.4v-8.2l5.5,8.3c0.2,0.3,0.5,0.5,0.8,0.4h2.6c0.2,0,0.3-0.1,0.4-0.2c0.1-0.1,0.2-0.3,0.2-0.4v-15.1
					c0-0.2-0.1-0.3-0.2-0.4c-0.1-0.1-0.3-0.2-0.4-0.2h-3c-0.2,0-0.3,0.1-0.4,0.2c-0.1,0.1-0.2,0.3-0.2,0.4v8.5l-5.5-8.7
					c-0.2-0.3-0.5-0.5-0.8-0.4h-2.6c-0.2,0-0.3,0.1-0.4,0.2c-0.1,0.1-0.2,0.3-0.2,0.4v15.1c0,0.2,0.1,0.3,0.2,0.4
					C153.3-0.1,153.5,0,153.6,0 M176.3,0h3.2c0.2,0,0.3-0.1,0.4-0.2c0.1-0.1,0.2-0.3,0.2-0.4v-11.9h4.1c0.2,0,0.3-0.1,0.4-0.2
					c0.1-0.1,0.2-0.3,0.2-0.4v-2.6c0-0.2-0.1-0.3-0.2-0.4c-0.1-0.1-0.3-0.2-0.4-0.2h-12.6c-0.2,0-0.3,0.1-0.4,0.2
					c-0.1,0.1-0.2,0.3-0.2,0.4v2.6c0,0.2,0.1,0.3,0.2,0.4c0.1,0.1,0.3,0.2,0.4,0.2h4.1v11.9c0,0.2,0.1,0.3,0.2,0.4
					C176-0.1,176.2,0,176.3,0"/>
			</g>
			<g id="Group_126" transform="translate(7.108 -27.877)">
				<path id="Path_102" class="st0" d="M0,0c1.3,0,2.5-0.2,3.7-0.6c1-0.3,1.9-1,2.5-1.8c0.6-0.8,0.9-1.8,0.9-2.7
					c0-0.8-0.2-1.7-0.6-2.4C6-8.2,5.3-8.7,4.6-9c-1.1-0.5-2.3-0.8-3.5-1c-0.9-0.1-1.8-0.4-2.6-0.8c-0.4-0.2-0.7-0.6-0.7-1.1
					c0-0.4,0.2-0.8,0.5-1c0.5-0.3,1-0.4,1.5-0.3c0.5,0,1,0.1,1.4,0.3c0.3,0.2,0.6,0.5,0.7,0.8c0.2,0.3,0.5,0.4,0.8,0.4H6
					c0.1,0,0.3-0.1,0.3-0.2c0.1-0.1,0.1-0.2,0.1-0.4c-0.1-0.8-0.4-1.5-0.8-2.1C5.1-15,4.3-15.6,3.4-16c-1.1-0.5-2.3-0.7-3.5-0.7
					c-1.2,0-2.3,0.2-3.4,0.6c-0.9,0.4-1.7,1-2.3,1.8c-0.5,0.7-0.8,1.6-0.8,2.6c-0.1,1.2,0.4,2.4,1.4,3.3C-4-7.6-2.6-7-1.1-6.8
					c1,0.2,1.7,0.4,2.2,0.5C1.5-6.2,1.9-6,2.2-5.7c0.2,0.2,0.4,0.5,0.3,0.8c0,0.5-0.3,0.9-0.7,1.1C1.3-3.6,0.7-3.4,0-3.5
					c-0.6,0-1.2-0.1-1.7-0.4c-0.4-0.2-0.7-0.5-0.9-0.9C-2.8-4.9-2.9-5-3-5.1c-0.1-0.1-0.3-0.1-0.5-0.1h-3.1c-0.1,0-0.3,0-0.4,0.1
					C-7-5-7.1-4.8-7.1-4.7c0,0.8,0.3,1.7,0.9,2.3C-5.6-1.6-4.8-1-3.8-0.7C-2.6-0.2-1.3,0,0,0 M18.4,0c1.9,0.1,3.7-0.5,5.2-1.6
					c1.3-1.2,2.1-2.9,2-4.7c0-0.9,0-1.5,0-2c0-0.4,0-1.1,0-2c0-1.8-0.7-3.5-2-4.7c-1.5-1.2-3.3-1.8-5.2-1.7
					c-1.9-0.1-3.7,0.5-5.2,1.7c-1.3,1.2-2.1,2.9-2,4.7c0,0.4,0,1.1,0,2c0,0.9,0,1.6,0,2c0,1.8,0.7,3.5,2,4.7
					C14.7-0.5,16.5,0.1,18.4,0 M18.4-3.5c-0.7,0-1.4-0.2-2-0.7c-0.5-0.6-0.8-1.4-0.8-2.2c0-0.4,0-1.1,0-1.9c0-0.8,0-1.4,0-1.9
					c0-0.8,0.2-1.6,0.8-2.2c0.5-0.5,1.2-0.8,2-0.7c0.7,0,1.4,0.2,1.9,0.7c0.5,0.6,0.8,1.4,0.8,2.2c0,0.9,0,1.5,0,1.9
					c0,0.4,0,1,0,1.9c0,0.8-0.2,1.6-0.8,2.2C19.8-3.7,19.1-3.5,18.4-3.5 M37.3,0c1.3,0,2.5-0.2,3.7-0.7c1-0.4,1.9-1.1,2.6-2
					c0.6-0.9,1-1.9,1-3c0-0.1-0.1-0.3-0.2-0.3c-0.1-0.1-0.2-0.1-0.4-0.1h-3.3c-0.2,0-0.3,0-0.5,0.1c-0.1,0.1-0.2,0.3-0.3,0.5
					c-0.1,0.6-0.5,1.2-1,1.6c-0.5,0.3-1.1,0.5-1.8,0.5c-1.8,0-2.7-1-2.7-2.9c0-0.4,0-1.1,0-2c0-0.9,0-1.5,0-1.9c0.1-2,1-2.9,2.7-2.9
					c0.6,0,1.2,0.1,1.8,0.5c0.5,0.4,0.9,1,1,1.6c0,0.2,0.1,0.3,0.3,0.5c0.1,0.1,0.3,0.1,0.5,0.1h3.3c0.1,0,0.3,0,0.4-0.1
					c0.1-0.1,0.2-0.2,0.2-0.3c0-1.1-0.4-2.1-1-3c-0.7-0.9-1.6-1.6-2.6-2c-1.2-0.5-2.4-0.7-3.7-0.7c-1.9-0.1-3.7,0.5-5.2,1.6
					c-1.3,1.2-2.1,2.9-2,4.7c0,0.4,0,1.1,0,2.1c0,0.9,0,1.6,0,2c0,1.8,0.7,3.5,2,4.7C33.6-0.5,35.4,0.1,37.3,0 M49.9-0.2h3.3
					c0.2,0,0.3-0.1,0.4-0.2c0.1-0.1,0.2-0.3,0.2-0.4v-15.1c0-0.2-0.1-0.3-0.2-0.4c-0.1-0.1-0.3-0.2-0.4-0.2h-3.3
					c-0.2,0-0.3,0.1-0.4,0.2c-0.1,0.1-0.2,0.3-0.2,0.4v15.1c0,0.2,0.1,0.3,0.2,0.4C49.6-0.3,49.7-0.2,49.9-0.2 M58.4-0.2h3
					c0.3,0,0.7-0.2,0.8-0.5L63-3h6.1l0.8,2.3c0.1,0.3,0.4,0.5,0.8,0.5h3c0.1,0,0.3-0.1,0.3-0.2c0.1-0.1,0.1-0.2,0.2-0.3
					c0-0.1,0-0.1,0-0.2l-5.4-14.9c-0.1-0.4-0.5-0.7-0.9-0.7h-3.6c-0.4,0-0.8,0.3-0.9,0.7L57.9-0.9c0,0.1,0,0.1,0,0.2
					c0,0.1,0.1,0.3,0.2,0.3C58.1-0.3,58.2-0.2,58.4-0.2 M66-12.4l2.1,5.9H64L66-12.4z M78.9-0.2h10.8c0.2,0,0.3-0.1,0.4-0.2
					c0.1-0.1,0.2-0.3,0.2-0.4v-2.5c0-0.2-0.1-0.3-0.2-0.4c-0.1-0.1-0.3-0.2-0.4-0.2h-7v-12c0-0.2-0.1-0.3-0.2-0.4
					c-0.1-0.1-0.3-0.2-0.4-0.2h-3.3c-0.2,0-0.3,0.1-0.4,0.2c-0.1,0.1-0.2,0.3-0.2,0.4v15.1c0,0.2,0.1,0.3,0.2,0.4
					C78.6-0.3,78.7-0.2,78.9-0.2 M101.8-0.2h2.9c0.2,0,0.3-0.1,0.4-0.2c0.1-0.1,0.2-0.3,0.2-0.4v-8.5l2.5,4.6
					c0.2,0.3,0.5,0.5,0.8,0.5h1.3c0.4,0,0.7-0.2,0.8-0.5l2.5-4.6v8.5c0,0.2,0.1,0.3,0.2,0.4c0.1,0.1,0.3,0.2,0.4,0.2h2.9
					c0.2,0,0.3-0.1,0.4-0.2c0.1-0.1,0.2-0.3,0.2-0.4v-15.1c0-0.2-0.1-0.3-0.2-0.4c-0.1-0.1-0.3-0.2-0.4-0.2h-2.6
					c-0.4,0-0.7,0.2-0.8,0.5l-4,7.2l-4-7.2c-0.1-0.3-0.5-0.5-0.8-0.5h-2.6c-0.2,0-0.3,0.1-0.4,0.2c-0.1,0.1-0.2,0.3-0.2,0.4v15.1
					c0,0.2,0.1,0.3,0.2,0.4C101.5-0.3,101.7-0.2,101.8-0.2 M123.4-0.2h11.2c0.2,0,0.3-0.1,0.4-0.2c0.1-0.1,0.2-0.3,0.2-0.4v-2.3
					c0-0.2-0.1-0.3-0.2-0.4c-0.1-0.1-0.3-0.2-0.4-0.2h-7.5v-3h6.8c0.2,0,0.3-0.1,0.4-0.2c0.1-0.1,0.2-0.3,0.2-0.4v-2.1
					c0-0.2-0.1-0.3-0.2-0.4c-0.1-0.1-0.3-0.2-0.4-0.2h-6.8V-13h7.3c0.2,0,0.3-0.1,0.4-0.2c0.1-0.1,0.2-0.3,0.2-0.4v-2.3
					c0-0.2-0.1-0.3-0.2-0.4c-0.1-0.1-0.3-0.2-0.4-0.2h-11c-0.2,0-0.3,0.1-0.4,0.2c-0.1,0.1-0.2,0.3-0.2,0.4v15.1
					c0,0.2,0.1,0.3,0.2,0.4C123.1-0.3,123.3-0.2,123.4-0.2 M140.7-0.2h6.2c4.7,0,7.1-2.1,7.2-6.4c0-0.4,0-1,0-1.8s0-1.3,0-1.8
					c0-1.8-0.7-3.5-2-4.7c-1.5-1.2-3.4-1.8-5.3-1.6h-6.1c-0.2,0-0.3,0.1-0.4,0.2c-0.1,0.1-0.2,0.3-0.2,0.4v15.1
					c0,0.2,0.1,0.3,0.2,0.4C140.4-0.3,140.5-0.2,140.7-0.2 M144.5-3.7V-13h2.2c0.8-0.1,1.6,0.2,2.2,0.7c0.6,0.6,0.8,1.4,0.8,2.2
					c0,0.4,0,1,0,1.7s0,1.3,0,1.7c0,0.8-0.2,1.6-0.7,2.2c-0.6,0.5-1.4,0.8-2.2,0.7L144.5-3.7z M159.7-0.2h3.3c0.2,0,0.3-0.1,0.4-0.2
					c0.1-0.1,0.2-0.3,0.2-0.4v-15.1c0-0.2-0.1-0.3-0.2-0.4c-0.1-0.1-0.3-0.2-0.4-0.2h-3.3c-0.2,0-0.3,0.1-0.4,0.2
					c-0.1,0.1-0.2,0.3-0.2,0.4v15.1c0,0.2,0.1,0.3,0.2,0.4C159.4-0.3,159.6-0.2,159.7-0.2 M168.2-0.2h3c0.3,0,0.7-0.2,0.8-0.5
					l0.8-2.3h6.1l0.8,2.3c0.1,0.3,0.4,0.5,0.8,0.5h3c0.1,0,0.3-0.1,0.3-0.2c0.1-0.1,0.1-0.2,0.2-0.3c0-0.1,0-0.1,0-0.2l-5.4-14.9
					c-0.1-0.4-0.5-0.7-0.9-0.7h-3.6c-0.4,0-0.8,0.3-0.9,0.7l-5.4,14.9c0,0.1,0,0.1,0,0.2c0,0.1,0.1,0.3,0.2,0.3
					C167.9-0.3,168.1-0.2,168.2-0.2 M175.9-12.4l2.1,5.9h-4.1L175.9-12.4z"/>
			</g>
			<g id="Group_127" transform="translate(303.435 -32.61)">
				<path id="Path_103" class="st0" d="M0,0c0.5,0,1-0.4,1-1c0,0,0,0,0,0v-3.6c0-0.5-0.4-1-1-1c0,0,0,0,0,0h-100.9c-0.5,0-1,0.4-1,1
					c0,0,0,0,0,0V-1c0,0.5,0.4,1,1,1c0,0,0,0,0,0H0z"/>
			</g>
			<g id="Group_128" transform="translate(101.895 -5.136)">
				<path id="Path_104" class="st0" d="M0,0c0.5,0,1-0.4,1-1c0,0,0,0,0,0v-3.6c0-0.5-0.4-1-1-1c0,0,0,0,0,0h-100.9c-0.5,0-1,0.4-1,1
					c0,0,0,0,0,0V-1c0,0.5,0.4,1,1,1c0,0,0,0,0,0H0z"/>
			</g>
		</g>
	</g>
</g>
</svg>
