<svg xmlns="http://www.w3.org/2000/svg" xmlns:xlink="http://www.w3.org/1999/xlink" width="304.435" height="44.603" viewBox="0 0 304.435 44.603">
  <defs>
    <clipPath id="clip-path">
      <path id="Path_105" data-name="Path 105" d="M0,0H304.435V-44.6H0Z" fill="none"/>
    </clipPath>
  </defs>
  <g id="Group_130" data-name="Group 130" transform="translate(0 44.603)">
    <g id="Group_129" data-name="Group 129" clip-path="url(#clip-path)">
      <g id="Group_125" data-name="Group 125" transform="translate(118.263 -0.232)">
        <path id="Path_101" data-name="Path 101" d="M0,0H2.927a.6.6,0,0,0,.43-.163.545.545,0,0,0,.174-.418V-9.037l2.486,4.6A.982.982,0,0,0,6.83-3.9H8.084A.91.91,0,0,0,8.9-4.437l2.509-4.6V-.581a.558.558,0,0,0,.174.407A.56.56,0,0,0,11.987,0h2.95a.6.6,0,0,0,.43-.163.545.545,0,0,0,.174-.418V-15.657a.584.584,0,0,0-.174-.43.585.585,0,0,0-.43-.174H12.312a.868.868,0,0,0-.836.511L7.457-8.6l-4-7.155a.868.868,0,0,0-.836-.511H0a.584.584,0,0,0-.43.174.584.584,0,0,0-.174.43V-.581A.545.545,0,0,0-.43-.163.6.6,0,0,0,0,0M20.117,0h3.02a.806.806,0,0,0,.79-.511l.837-2.253H30.85l.836,2.253a.806.806,0,0,0,.79.511H35.5a.466.466,0,0,0,.337-.151.47.47,0,0,0,.151-.337A.725.725,0,0,0,35.961-.7L30.548-15.588a.907.907,0,0,0-.929-.673H26a.906.906,0,0,0-.929.673L19.653-.7a.691.691,0,0,0-.023.209.466.466,0,0,0,.151.337A.462.462,0,0,0,20.117,0m7.69-12.173,2.067,5.924H25.739ZM40.653,0H43.6a.6.6,0,0,0,.43-.163.545.545,0,0,0,.174-.418V-8.758L49.666-.441a.851.851,0,0,0,.79.441h2.625A.546.546,0,0,0,53.5-.174a.6.6,0,0,0,.163-.43V-15.657a.6.6,0,0,0-.163-.43.546.546,0,0,0-.418-.174h-2.95a.545.545,0,0,0-.418.174.6.6,0,0,0-.163.43v8.5L44.068-15.82a.851.851,0,0,0-.79-.441H40.653a.545.545,0,0,0-.418.174.6.6,0,0,0-.163.43V-.581a.558.558,0,0,0,.174.407A.56.56,0,0,0,40.653,0M58.238,0h3.02a.806.806,0,0,0,.79-.511l.836-2.253h6.087l.836,2.253A.806.806,0,0,0,70.6,0h3.02a.466.466,0,0,0,.337-.151.47.47,0,0,0,.151-.337A.685.685,0,0,0,74.081-.7L68.669-15.588a.907.907,0,0,0-.929-.673H64.116a.908.908,0,0,0-.93.673L57.774-.7a.685.685,0,0,0-.024.209.47.47,0,0,0,.151.337A.466.466,0,0,0,58.238,0m7.69-12.173L68-6.249H63.86ZM84.651.232a9.4,9.4,0,0,0,3.9-.755,5.852,5.852,0,0,0,2.59-2.183,6.162,6.162,0,0,0,.918-3.4V-8.8a.584.584,0,0,0-.175-.43.583.583,0,0,0-.429-.174h-5.9a.584.584,0,0,0-.43.174.584.584,0,0,0-.174.43v1.812a.583.583,0,0,0,.174.429.581.581,0,0,0,.43.175h2.068v.418a2.54,2.54,0,0,1-.79,2.044,3.189,3.189,0,0,1-2.138.674q-2.74,0-2.834-2.951-.022-.673-.023-2.021t.023-2q.093-2.789,2.788-2.788a2.823,2.823,0,0,1,1.731.465,2.744,2.744,0,0,1,.894,1.115.924.924,0,0,0,.244.244.671.671,0,0,0,.36.081h3.6a.491.491,0,0,0,.36-.151.5.5,0,0,0,.151-.36,4.016,4.016,0,0,0-.918-2.312,6.274,6.274,0,0,0-2.532-1.847,9.736,9.736,0,0,0-3.891-.72,7.974,7.974,0,0,0-5.262,1.615,5.835,5.835,0,0,0-2.032,4.541q-.024.675-.024,2.138t.024,2.114A6.166,6.166,0,0,0,79.378-1.4,7.832,7.832,0,0,0,84.651.232M97.544,0h11.15a.6.6,0,0,0,.43-.163.545.545,0,0,0,.174-.418v-2.3a.583.583,0,0,0-.174-.429.584.584,0,0,0-.43-.175h-7.526v-3.02H108a.584.584,0,0,0,.43-.174.584.584,0,0,0,.175-.43V-9.223a.584.584,0,0,0-.175-.429.584.584,0,0,0-.43-.175h-6.829v-2.95h7.341a.606.606,0,0,0,.429-.162.546.546,0,0,0,.175-.419v-2.3a.581.581,0,0,0-.175-.43.583.583,0,0,0-.429-.174H97.544a.545.545,0,0,0-.418.174.6.6,0,0,0-.163.43V-.581a.558.558,0,0,0,.174.407A.558.558,0,0,0,97.544,0M114.8,0h2.927a.6.6,0,0,0,.43-.163.545.545,0,0,0,.174-.418V-9.037l2.486,4.6a.982.982,0,0,0,.813.534h1.254a.91.91,0,0,0,.813-.534l2.509-4.6V-.581a.558.558,0,0,0,.174.407.56.56,0,0,0,.407.174h2.95a.6.6,0,0,0,.43-.163.545.545,0,0,0,.174-.418V-15.657a.584.584,0,0,0-.174-.43.585.585,0,0,0-.43-.174h-2.625a.868.868,0,0,0-.836.511L122.261-8.6l-4-7.155a.868.868,0,0,0-.836-.511H114.8a.584.584,0,0,0-.43.174.584.584,0,0,0-.174.43V-.581a.545.545,0,0,0,.174.418A.6.6,0,0,0,114.8,0m21.6,0h11.151a.606.606,0,0,0,.43-.163.545.545,0,0,0,.174-.418v-2.3a.583.583,0,0,0-.174-.429.588.588,0,0,0-.43-.175h-7.527v-3.02h6.83a.585.585,0,0,0,.43-.174.584.584,0,0,0,.174-.43V-9.223a.583.583,0,0,0-.174-.429.586.586,0,0,0-.43-.175h-6.83v-2.95h7.341a.608.608,0,0,0,.43-.162.548.548,0,0,0,.174-.419v-2.3a.584.584,0,0,0-.174-.43.585.585,0,0,0-.43-.174H136.408a.546.546,0,0,0-.418.174.607.607,0,0,0-.163.43V-.581A.559.559,0,0,0,136-.174a.556.556,0,0,0,.406.174m17.237,0H156.6a.6.6,0,0,0,.429-.163.545.545,0,0,0,.174-.418V-8.758l5.46,8.317a.849.849,0,0,0,.789.441h2.626a.548.548,0,0,0,.418-.174.607.607,0,0,0,.162-.43V-15.657a.607.607,0,0,0-.162-.43.548.548,0,0,0-.418-.174h-2.951a.546.546,0,0,0-.418.174.607.607,0,0,0-.162.43v8.5L157.06-15.82a.85.85,0,0,0-.79-.441h-2.625a.546.546,0,0,0-.418.174.607.607,0,0,0-.163.43V-.581a.559.559,0,0,0,.175.407.556.556,0,0,0,.406.174m22.673,0h3.229a.6.6,0,0,0,.43-.163.545.545,0,0,0,.174-.418V-12.475h4.089a.606.606,0,0,0,.429-.162.546.546,0,0,0,.175-.419v-2.6a.581.581,0,0,0-.175-.43.583.583,0,0,0-.429-.174H171.626a.584.584,0,0,0-.43.174.584.584,0,0,0-.174.43v2.6a.548.548,0,0,0,.174.419.607.607,0,0,0,.43.162h4.088V-.581a.545.545,0,0,0,.174.418.6.6,0,0,0,.43.163" fill="#fff"/>
      </g>
      <g id="Group_126" data-name="Group 126" transform="translate(7.108 -27.877)">
        <path id="Path_102" data-name="Path 102" d="M0,0A10.172,10.172,0,0,0,3.67-.616,5.658,5.658,0,0,0,6.179-2.393a4.325,4.325,0,0,0,.906-2.741A4.269,4.269,0,0,0,6.47-7.515a4.388,4.388,0,0,0-1.9-1.533,14.917,14.917,0,0,0-3.473-.988,10.526,10.526,0,0,1-2.6-.778,1.168,1.168,0,0,1-.7-1.057,1.143,1.143,0,0,1,.534-1.022,2.761,2.761,0,0,1,1.51-.348,2.842,2.842,0,0,1,1.441.336A1.437,1.437,0,0,1,2-12.08a.894.894,0,0,0,.79.418H6.04a.453.453,0,0,0,.348-.151.511.511,0,0,0,.14-.36,3.748,3.748,0,0,0-.848-2.079,6.065,6.065,0,0,0-2.3-1.765,8.207,8.207,0,0,0-3.543-.709,8.7,8.7,0,0,0-3.426.627,5.213,5.213,0,0,0-2.277,1.754,4.323,4.323,0,0,0-.8,2.567A3.954,3.954,0,0,0-5.273-8.526a9.6,9.6,0,0,0,4.2,1.7q1.44.3,2.207.546a3.1,3.1,0,0,1,1.115.558,1.028,1.028,0,0,1,.349.8,1.173,1.173,0,0,1-.674,1.057A3.945,3.945,0,0,1,0-3.485a3.458,3.458,0,0,1-1.707-.36,2.331,2.331,0,0,1-.941-.917,1.494,1.494,0,0,0-.384-.325.959.959,0,0,0-.453-.093H-6.574a.51.51,0,0,0-.36.139.453.453,0,0,0-.151.348A4.009,4.009,0,0,0-6.226-2.37,5.593,5.593,0,0,0-3.833-.65,10.08,10.08,0,0,0,0,0M18.375,0a7.781,7.781,0,0,0,5.192-1.6,6.153,6.153,0,0,0,2.009-4.716q.047-1.3.047-2,0-.673-.047-2.021a6.145,6.145,0,0,0-2.032-4.727,7.679,7.679,0,0,0-5.169-1.661,7.713,7.713,0,0,0-5.192,1.661,6.145,6.145,0,0,0-2.033,4.727q-.022.675-.023,2.021t.023,2A6.136,6.136,0,0,0,13.171-1.6a7.83,7.83,0,0,0,5.2,1.6m0-3.485a2.613,2.613,0,0,1-1.951-.731,3.228,3.228,0,0,1-.767-2.242q-.024-.673-.023-1.928,0-1.232.023-1.882a3.23,3.23,0,0,1,.767-2.242,2.613,2.613,0,0,1,1.951-.731,2.586,2.586,0,0,1,1.928.731,3.235,3.235,0,0,1,.767,2.242q.047,1.3.046,1.882T21.07-6.458A3.233,3.233,0,0,1,20.3-4.216a2.586,2.586,0,0,1-1.928.731M37.308,0a9.667,9.667,0,0,0,3.705-.674A5.98,5.98,0,0,0,43.6-2.625a5.151,5.151,0,0,0,1-3.02.452.452,0,0,0-.151-.348.514.514,0,0,0-.36-.14h-3.3a.778.778,0,0,0-.487.128.879.879,0,0,0-.256.476,2.655,2.655,0,0,1-.987,1.58,3.062,3.062,0,0,1-1.754.464q-2.625,0-2.718-2.927-.024-.673-.023-1.974t.023-1.928q.093-2.928,2.718-2.927a3.054,3.054,0,0,1,1.754.453,2.76,2.76,0,0,1,.987,1.591,1.06,1.06,0,0,0,.267.476.73.73,0,0,0,.476.128h3.3a.517.517,0,0,0,.36-.139.455.455,0,0,0,.151-.349,5.153,5.153,0,0,0-1-3.02,5.987,5.987,0,0,0-2.59-1.951,9.667,9.667,0,0,0-3.705-.674,7.725,7.725,0,0,0-5.192,1.638,6.118,6.118,0,0,0-2.033,4.657q-.024.651-.023,2.091,0,1.418.023,2.045A6.123,6.123,0,0,0,32.093-1.6,7.818,7.818,0,0,0,37.308,0M49.875-.232H53.2a.542.542,0,0,0,.418-.175.573.573,0,0,0,.163-.406v-15.1a.564.564,0,0,0-.163-.418.566.566,0,0,0-.418-.163H49.875a.577.577,0,0,0-.406.163.546.546,0,0,0-.174.418v15.1a.556.556,0,0,0,.174.406.553.553,0,0,0,.406.175m8.479,0h3.02a.807.807,0,0,0,.79-.511L63-3h6.087l.836,2.254a.807.807,0,0,0,.79.511h3.02a.466.466,0,0,0,.337-.151.47.47,0,0,0,.151-.337A.72.72,0,0,0,74.2-.929L68.785-15.82a.908.908,0,0,0-.929-.674H64.232a.908.908,0,0,0-.93.674L57.89-.929a.686.686,0,0,0-.023.209.466.466,0,0,0,.151.337.462.462,0,0,0,.336.151M66.044-12.4l2.067,5.924H63.976ZM78.89-.232h10.8a.6.6,0,0,0,.43-.163A.545.545,0,0,0,90.3-.813V-3.276a.583.583,0,0,0-.174-.429.586.586,0,0,0-.43-.175H82.723V-15.913a.567.567,0,0,0-.163-.418.567.567,0,0,0-.418-.163H78.89a.58.58,0,0,0-.407.163.546.546,0,0,0-.174.418v15.1a.556.556,0,0,0,.174.406.555.555,0,0,0,.407.175m22.951,0h2.927A.6.6,0,0,0,105.2-.4a.545.545,0,0,0,.174-.418V-9.269l2.486,4.6a.982.982,0,0,0,.813.534h1.254a.912.912,0,0,0,.814-.534l2.508-4.6V-.813a.557.557,0,0,0,.175.406.553.553,0,0,0,.406.175h2.95a.6.6,0,0,0,.43-.163.545.545,0,0,0,.174-.418V-15.89a.583.583,0,0,0-.174-.429.581.581,0,0,0-.43-.175h-2.625a.869.869,0,0,0-.836.511L109.3-8.828,105.3-15.983a.871.871,0,0,0-.837-.511h-2.625a.584.584,0,0,0-.43.175.583.583,0,0,0-.174.429V-.813a.545.545,0,0,0,.174.418.606.606,0,0,0,.43.163m21.6,0H134.6a.6.6,0,0,0,.43-.163.545.545,0,0,0,.174-.418v-2.3a.587.587,0,0,0-.174-.43.585.585,0,0,0-.43-.174h-7.527v-3.02h6.83a.585.585,0,0,0,.43-.174.584.584,0,0,0,.174-.43V-9.455a.587.587,0,0,0-.174-.43.585.585,0,0,0-.43-.174h-6.83v-2.95h7.341a.6.6,0,0,0,.43-.163.545.545,0,0,0,.174-.418v-2.3a.583.583,0,0,0-.174-.429.581.581,0,0,0-.43-.175H123.445a.544.544,0,0,0-.418.175.606.606,0,0,0-.162.429V-.813a.556.556,0,0,0,.174.406.553.553,0,0,0,.406.175m17.237,0h6.226q6.993,0,7.225-6.365.022-.651.023-1.766t-.023-1.789a6.126,6.126,0,0,0-2-4.7,7.944,7.944,0,0,0-5.343-1.638h-6.11a.544.544,0,0,0-.418.175.606.606,0,0,0-.162.429V-.813a.556.556,0,0,0,.174.406.553.553,0,0,0,.406.175m3.787-3.485v-9.292h2.207a3.128,3.128,0,0,1,2.218.708,3.016,3.016,0,0,1,.8,2.2c.031.433.046,1.007.046,1.719s-.015,1.293-.046,1.742a3.2,3.2,0,0,1-.743,2.23,2.945,2.945,0,0,1-2.161.7ZM159.708-.232h3.322a.544.544,0,0,0,.418-.175.577.577,0,0,0,.163-.406v-15.1a.567.567,0,0,0-.163-.418.567.567,0,0,0-.418-.163h-3.322a.577.577,0,0,0-.406.163.544.544,0,0,0-.175.418v15.1a.553.553,0,0,0,.175.406.553.553,0,0,0,.406.175m8.479,0h3.02A.807.807,0,0,0,172-.743L172.833-3h6.087l.836,2.254a.807.807,0,0,0,.79.511h3.02a.468.468,0,0,0,.337-.151.47.47,0,0,0,.151-.337.68.68,0,0,0-.024-.209L178.618-15.82a.908.908,0,0,0-.93-.674h-3.624a.908.908,0,0,0-.929.674L167.723-.929a.68.68,0,0,0-.024.209.466.466,0,0,0,.151.337.466.466,0,0,0,.337.151M175.876-12.4l2.068,5.924h-4.135Z" fill="#fff"/>
      </g>
      <g id="Group_127" data-name="Group 127" transform="translate(303.435 -32.61)">
        <path id="Path_103" data-name="Path 103" d="M0,0A.979.979,0,0,0,1-1V-4.558a.979.979,0,0,0-1-1H-100.894a.979.979,0,0,0-1,1V-1a.979.979,0,0,0,1,1Z" fill="#fff"/>
      </g>
      <g id="Group_128" data-name="Group 128" transform="translate(101.895 -5.136)">
        <path id="Path_104" data-name="Path 104" d="M0,0A.979.979,0,0,0,1-1V-4.558a.979.979,0,0,0-1-1H-100.894a.979.979,0,0,0-1,1V-1a.979.979,0,0,0,1,1Z" fill="#fff"/>
      </g>
    </g>
  </g>
</svg>
