<?xml version="1.0" encoding="utf-8"?>
<!-- Generator: Adobe Illustrator 23.0.3, SVG Export Plug-In . SVG Version: 6.00 Build 0)  -->
<svg version="1.1" id="Layer_1" xmlns="http://www.w3.org/2000/svg" xmlns:xlink="http://www.w3.org/1999/xlink" x="0px" y="0px"
	 viewBox="0 0 992.8 71.1" style="enable-background:new 0 0 992.8 71.1;" xml:space="preserve">
<style type="text/css">
	.st0{fill:#FFFFFF;}
</style>
<g>
	<path class="st0" d="M12.3,67.8c-0.7-0.6-1.1-1.3-1.2-2.2L1.1,5.4C1,5.3,1,5.1,1,4.8c0-0.5,0.2-1,0.6-1.4s0.9-0.6,1.4-0.6h12.3
		c1.8,0,2.8,0.7,3,2.2L24,40.5L30.5,20c0.5-1.7,1.5-2.5,3.1-2.5h7c1.6,0,2.6,0.9,3.1,2.5l6.5,20.5L56,5c0.1-0.8,0.4-1.3,0.9-1.7
		C57.3,3,58,2.8,59,2.8h12.3c0.6,0,1,0.2,1.4,0.6s0.6,0.9,0.6,1.4v0.6L63.2,65.5c-0.1,0.9-0.5,1.6-1.2,2.2s-1.5,0.9-2.5,0.9h-9.5
		c-1,0-1.8-0.2-2.4-0.8s-0.9-1.1-1.1-1.7l-9.3-26l-9.3,26c-0.2,0.6-0.7,1.2-1.2,1.7s-1.4,0.8-2.4,0.8h-9.4
		C13.8,68.7,12.9,68.3,12.3,67.8z"/>
	<path class="st0" d="M97.5,63.1c-5.1-4.3-7.9-10.7-8.2-19.1c-0.1-1.8-0.1-4.5-0.1-8.1s0-6.4,0.1-8.2c0.2-8.3,3-14.6,8.2-19.1
		s12.2-6.7,21-6.7c8.7,0,15.7,2.2,20.9,6.7c5.2,4.5,8,10.9,8.2,19.1c0.1,3.6,0.2,6.4,0.2,8.2c0,1.9-0.1,4.6-0.2,8.1
		c-0.3,8.4-3,14.8-8.1,19.1c-5.1,4.3-12.1,6.5-21,6.5C109.7,69.6,102.6,67.4,97.5,63.1z M126.4,52.5c1.9-2,3-5,3.1-9.1
		c0.1-3.6,0.2-6.2,0.2-7.8s-0.1-4.1-0.2-7.6c-0.1-4.1-1.2-7.1-3.1-9.1s-4.5-3-7.8-3c-3.3,0-6,1-7.9,3s-3,5-3.1,9.1
		c-0.1,1.8-0.1,4.3-0.1,7.6c0,3.4,0,6,0.1,7.8c0.1,4.1,1.2,7.1,3.1,9.1s4.6,3,7.9,3C121.8,55.5,124.4,54.5,126.4,52.5z"/>
	<path class="st0" d="M168.5,67.9c-0.5-0.5-0.7-1-0.7-1.6v-61c0-0.7,0.2-1.3,0.7-1.7s1-0.7,1.7-0.7H196c8.3,0,14.7,1.9,19.4,5.6
		s7,9.1,7,15.9c0,4.4-1,8.1-3,11.2c-2,3.1-4.8,5.5-8.4,7.1l12.7,22.9c0.2,0.4,0.3,0.7,0.3,1c0,0.5-0.2,1-0.6,1.4
		c-0.4,0.4-0.9,0.6-1.4,0.6h-13.2c-1.8,0-3.1-0.8-3.9-2.5l-10.3-20.4h-9v20.6c0,0.7-0.2,1.2-0.7,1.7s-1,0.7-1.7,0.7h-12.9
		C169.5,68.7,169,68.4,168.5,67.9z M195.9,31.9c2.7,0,4.8-0.7,6.2-2s2.1-3.2,2.1-5.6s-0.7-4.3-2.1-5.7s-3.5-2.2-6.2-2.2h-10.4v15.5
		L195.9,31.9L195.9,31.9z"/>
	<path class="st0" d="M243.2,67.9c-0.5-0.5-0.7-1-0.7-1.6v-61c0-0.7,0.2-1.3,0.7-1.7s1-0.7,1.7-0.7h12.6c0.7,0,1.2,0.2,1.7,0.7
		c0.4,0.5,0.7,1,0.7,1.7v20.5l16.6-21.1c0.7-1.2,1.9-1.9,3.7-1.9h14.4c0.5,0,1,0.2,1.4,0.6c0.4,0.4,0.6,0.9,0.6,1.4
		s-0.1,0.9-0.4,1.1l-21.9,28.4l23.7,31.2c0.2,0.2,0.4,0.6,0.4,1.1s-0.2,1-0.6,1.4c-0.4,0.4-0.9,0.6-1.5,0.6h-14.8
		c-1,0-1.8-0.2-2.4-0.6c-0.6-0.4-1.1-0.8-1.3-1.3l-17.9-22.9v22.5c0,0.6-0.2,1.2-0.7,1.6s-1,0.7-1.7,0.7h-12.6
		C244.3,68.7,243.7,68.4,243.2,67.9z"/>
</g>
<g>
	<path class="st0" d="M989.9,47.8c0,0,2,0,2-2v-17c0,0,0-2-2-2H357.6c0,0-2,0-2,2v17c0,0,0,2,2,2H989.9z"/>
</g>
</svg>
