<?xml version="1.0" encoding="utf-8"?>
<!-- Generator: Adobe Illustrator 23.0.4, SVG Export Plug-In . SVG Version: 6.00 Build 0)  -->
<svg version="1.1" id="Layer_1" xmlns="http://www.w3.org/2000/svg" xmlns:xlink="http://www.w3.org/1999/xlink" x="0px" y="0px"
	 viewBox="0 0 1385.4 75.3" style="enable-background:new 0 0 1385.4 75.3;" xml:space="preserve">
<style type="text/css">
	.st0{fill:#FFFFFF;}
</style>
<g>
	<g>
		<path class="st0" d="M12.6,73.3c-0.8-0.7-1.2-1.4-1.3-2.4L0.1,3.9C0,3.8,0,3.6,0,3.2c0-0.6,0.2-1.1,0.7-1.6S1.7,1,2.2,1h13.7
			c2,0,3.1,0.8,3.3,2.4l6.3,39.5l7.2-22.8c0.6-1.9,1.7-2.8,3.4-2.8h7.8c1.8,0,2.9,1,3.4,2.8l7.2,22.8l6.5-39.5
			c0.1-0.9,0.4-1.4,1-1.9C62.6,1.2,63.4,1,64.5,1h13.7c0.7,0,1.1,0.2,1.6,0.7c0.4,0.4,0.7,1,0.7,1.6v0.7L69.2,70.8
			c-0.1,1-0.6,1.8-1.3,2.4c-0.8,0.7-1.7,1-2.8,1H54.5c-1.1,0-2-0.2-2.7-0.9c-0.7-0.7-1-1.2-1.2-1.9L40.3,42.5L29.9,71.4
			c-0.2,0.7-0.8,1.3-1.3,1.9c-0.6,0.6-1.6,0.9-2.7,0.9H15.5C14.2,74.3,13.2,73.9,12.6,73.3z"/>
		<path class="st0" d="M107.4,68.1c-5.7-4.8-8.8-11.9-9.1-21.2c-0.1-2-0.1-5-0.1-9s0-7.1,0.1-9.1c0.2-9.2,3.3-16.2,9.1-21.2
			S120.9,0,130.7,0c9.7,0,17.5,2.4,23.3,7.5s8.9,12.1,9.1,21.2c0.1,4,0.2,7.1,0.2,9.1c0,2.1-0.1,5.1-0.2,9c-0.3,9.3-3.3,16.5-9,21.2
			c-5.7,4.8-13.5,7.2-23.4,7.2C120.9,75.3,113,72.9,107.4,68.1z M139.5,56.3c2.1-2.2,3.3-5.6,3.4-10.1c0.1-4,0.2-6.9,0.2-8.7
			c0-1.8-0.1-4.6-0.2-8.5c-0.1-4.6-1.3-7.9-3.4-10.1s-5-3.3-8.7-3.3c-3.7,0-6.7,1.1-8.8,3.3s-3.3,5.6-3.4,10.1
			c-0.1,2-0.1,4.8-0.1,8.5c0,3.8,0,6.7,0.1,8.7c0.1,4.6,1.3,7.9,3.4,10.1c2.1,2.2,5.1,3.3,8.8,3.3C134.4,59.6,137.3,58.5,139.5,56.3
			z"/>
		<path class="st0" d="M186.3,73.4c-0.6-0.6-0.8-1.1-0.8-1.8V3.8c0-0.8,0.2-1.4,0.8-1.9c0.6-0.4,1.1-0.8,1.9-0.8h28.7
			c9.2,0,16.4,2.1,21.6,6.2c5.2,4.1,7.8,10.1,7.8,17.7c0,4.9-1.1,9-3.3,12.5c-2.2,3.4-5.3,6.1-9.3,7.9l14.1,25.5
			c0.2,0.4,0.3,0.8,0.3,1.1c0,0.6-0.2,1.1-0.7,1.6c-0.4,0.4-1,0.7-1.6,0.7h-14.7c-2,0-3.4-0.9-4.3-2.8l-11.5-22.7h-10v22.9
			c0,0.8-0.2,1.3-0.8,1.9c-0.6,0.6-1.1,0.8-1.9,0.8h-14.4C187.5,74.3,186.9,74,186.3,73.4z M216.8,33.4c3,0,5.3-0.8,6.9-2.2
			c1.6-1.4,2.3-3.6,2.3-6.2s-0.8-4.8-2.3-6.3s-3.9-2.4-6.9-2.4h-11.6v17.2H216.8L216.8,33.4z"/>
		<path class="st0" d="M269.4,73.4c-0.6-0.6-0.8-1.1-0.8-1.8V3.8c0-0.8,0.2-1.4,0.8-1.9s1.1-0.8,1.9-0.8h14c0.8,0,1.3,0.2,1.9,0.8
			c0.4,0.6,0.8,1.1,0.8,1.9v22.8l18.5-23.5c0.8-1.3,2.1-2.1,4.1-2.1h16c0.6,0,1.1,0.2,1.6,0.7s0.7,1,0.7,1.6s-0.1,1-0.4,1.2L304,36
			l26.4,34.7c0.2,0.2,0.4,0.7,0.4,1.2s-0.2,1.1-0.7,1.6c-0.4,0.4-1,0.7-1.7,0.7H312c-1.1,0-2-0.2-2.7-0.7s-1.2-0.9-1.4-1.4L288,46.6
			v25c0,0.7-0.2,1.3-0.8,1.8s-1.1,0.8-1.9,0.8h-14C270.7,74.3,270,74,269.4,73.4z"/>
	</g>
	<g>
		<path class="st0" d="M1383.2,51.1c0,0,2.2,0,2.2-2.2V29.9c0,0,0-2.2-2.2-2.2H371.7c0,0-2.2,0-2.2,2.2v18.9c0,0,0,2.2,2.2,2.2
			H1383.2z"/>
	</g>
</g>
</svg>
